<svg width="26" height="26" viewBox="0 0 26 26" fill="none" xmlns="http://www.w3.org/2000/svg">
<path d="M2.77797 24.3803C2.77797 24.8475 2.55968 25.0965 1.96798 25.0965H0.609375V22.4654H1.91628C2.52713 22.4654 2.73776 22.7067 2.73776 23.151C2.73776 23.4899 2.60946 23.645 2.24755 23.735L2.17958 23.7541L2.2399 23.7656C2.65159 23.8585 2.77798 24.0098 2.77798 24.3803H2.77797ZM1.23267 23.5665H1.7832C2.00149 23.5665 2.10011 23.4707 2.10011 23.2457C2.10011 23.0207 2.01011 22.9145 1.7832 22.9145H1.23458L1.23268 23.5665H1.23267ZM2.14128 24.3162C2.14128 24.0749 2.04553 23.9734 1.82053 23.9734H1.23458V24.6522H1.82053C2.05606 24.6503 2.14319 24.5526 2.14319 24.3152L2.14129 24.3162L2.14128 24.3162ZM3.20595 24.2405V22.4654H3.86179V24.2175C3.86179 24.5048 3.99392 24.6168 4.34817 24.6168C4.70242 24.6168 4.83455 24.5076 4.83455 24.2175V22.4654H5.49039V24.2367C5.49039 24.8552 5.13231 25.1376 4.34817 25.1376C3.56403 25.1376 3.20786 24.859 3.20786 24.2396L3.20596 24.2406L3.20595 24.2405ZM8.5676 22.4693V25.0965H7.7691L6.65177 23.196V25.0955H6.04188V22.4654H6.84038L7.9558 24.365V22.4654L8.5676 22.4692V22.4693ZM9.10759 22.4693H10.2795C11.1986 22.4693 11.4399 22.8465 11.4399 23.7809C11.4399 24.6896 11.1757 25.0965 10.2795 25.0965H9.10664L9.10763 22.4693H9.10759ZM10.2565 24.5948C10.6395 24.5948 10.7649 24.3947 10.7649 23.7809C10.7649 23.1672 10.6404 22.971 10.2565 22.971H9.75865V24.5986L10.2565 24.5948V24.5948ZM11.9167 22.4654H13.756V22.9671H12.5726V23.5186H13.5559V24.0126H12.5726V24.5871H13.7828V25.0888H11.9167V22.4654ZM14.1715 24.9931V24.476C14.4542 24.5721 14.7509 24.6206 15.0495 24.6197C15.351 24.6197 15.4832 24.5402 15.4832 24.3324C15.4832 24.1553 15.4267 24.1026 15.1854 24.0538L14.7479 23.9638C14.2921 23.8681 14.1408 23.6852 14.1408 23.2362C14.1408 22.6617 14.4798 22.4109 15.1624 22.4109C15.4477 22.4083 15.7311 22.457 15.9992 22.5545V23.0667C15.7429 22.975 15.4729 22.9278 15.2007 22.9269C14.8762 22.9269 14.767 23.014 14.767 23.2141C14.767 23.3836 14.8426 23.4324 15.0542 23.4784L15.4803 23.5684C15.9743 23.6737 16.1093 23.8393 16.1093 24.3104C16.1093 24.8724 15.7627 25.1281 15.0562 25.1281C14.7557 25.134 14.4565 25.0884 14.1715 24.9931V24.9931ZM16.5651 22.4654H17.2209V24.5909H18.3478V25.0926H16.5651V22.4654ZM18.7576 22.4654H19.4135V25.0926H18.7576V22.4654ZM22.1287 23.5732V25.0017C21.8349 25.0944 21.5283 25.1403 21.2201 25.1376C20.3077 25.1376 19.8797 24.7346 19.8797 23.7771C19.8797 22.8197 20.3096 22.4166 21.2201 22.4166C21.5156 22.4119 21.8094 22.4618 22.0866 22.5641V23.0725C21.8245 22.9828 21.5498 22.9356 21.2728 22.9327C20.7223 22.9327 20.549 23.1548 20.549 23.7771C20.549 24.4253 20.7299 24.6388 21.2498 24.6388C21.3645 24.6389 21.479 24.6313 21.5926 24.6158V24.028H21.1062V23.5761L22.1287 23.5732V23.5732ZM24.2705 24.5421H23.2442L23.0594 25.0926H22.4054L23.3437 22.4654H24.1805L25.115 25.0926H24.4553L24.2705 24.5421ZM23.7621 22.88L23.3792 24.0672H24.1365L23.7621 22.88Z" fill="white"/>
<path fill-rule="evenodd" clip-rule="evenodd" d="M0.65625 0.669312L25.0824 0.669312V20.2106H0.65625L0.65625 0.669312ZM20.6707 11.1029C20.7588 11.0388 20.8019 11.0053 20.7885 10.9564L20.7923 10.9545C20.7311 10.7299 20.5591 10.7246 20.399 10.7197C20.3762 10.719 20.3537 10.7183 20.3317 10.717C20.2347 10.7114 20.1468 10.7087 20.0553 10.7059C19.913 10.7016 19.7622 10.697 19.5553 10.6807C19.2695 10.6626 18.9852 10.6261 18.7041 10.5715C18.5375 10.539 18.0416 10.4183 18.0416 10.4183C17.4631 10.2783 16.9292 10.043 16.3847 9.80307C15.9314 9.60334 15.4708 9.40038 14.971 9.24641C14.9597 9.25353 14.9412 9.27008 14.9229 9.28647C14.9043 9.30312 14.8859 9.3196 14.8753 9.32588C14.6758 9.2344 14.4105 9.23071 14.1953 9.22772C14.075 9.22605 13.9703 9.2246 13.9016 9.20811C13.0581 8.80599 12.0269 8.68248 12.0269 8.68248L11.9676 8.48333C11.9676 8.48333 9.52035 8.12907 8.98036 8.08312C9.16005 7.00025 9.66484 5.90803 9.91891 5.35829L9.92822 5.33814L10.6157 5.38793L10.7487 5.08921C10.8052 4.95612 10.8728 4.82801 10.9508 4.70624C10.9946 4.6455 11.0416 4.61648 11.0815 4.59186C11.1227 4.56641 11.1564 4.54566 11.171 4.49943C11.1841 4.45741 11.1746 4.37999 11.1625 4.28269C11.143 4.125 11.1171 3.9151 11.171 3.71912C11.1893 3.64349 11.2134 3.58082 11.2354 3.52382C11.2743 3.42279 11.3064 3.33959 11.2868 3.2337C11.1863 2.69562 10.4481 2.25232 9.94642 2.25232C8.97079 2.25232 8.69122 3.0805 8.71515 3.7038C7.68495 3.3639 5.48284 3.6272 5.48284 3.6272L5.42731 3.84358C5.42731 3.84358 5.09699 3.78231 4.91891 3.96805C4.27551 4.64879 3.18403 6.07441 3.18403 6.07441C2.95999 6.0792 2.79531 6.20271 2.64978 6.4076C2.53021 6.57595 2.37702 6.63635 2.18917 6.71043C2.14839 6.72651 2.10597 6.74324 2.06191 6.76185C1.97095 6.79345 2.00734 6.97058 2.07819 6.97058C2.24 6.98685 2.44681 6.89111 2.63255 6.79536C2.5561 6.9387 2.38005 7.05787 2.24427 7.14978C2.17598 7.19601 2.11788 7.23534 2.08776 7.26738C2.06383 7.29324 2.05904 7.3143 2.08776 7.36312C2.21415 7.56227 2.79531 7.43398 3.03275 7.26738C3.21562 7.14196 3.40711 6.97153 3.40711 6.97153C3.40711 6.97153 3.51626 6.60005 3.58136 6.55217C3.74941 6.4034 3.989 6.19979 4.26062 5.96894C4.60956 5.67239 5.01138 5.3309 5.38231 5.00304C6.20951 5.07051 6.67535 5.1004 6.90078 5.11486C6.99525 5.12092 7.0475 5.12427 7.06644 5.12655L6.4489 5.37261C6.04581 6.12899 5.6389 8.72652 5.76433 9.03385C5.77474 9.03348 5.79568 9.02128 5.82049 9.00682C5.85959 8.98405 5.90828 8.95568 5.9405 8.95917C5.84475 9.29811 5.9405 10.2622 5.9405 10.2622C6.02284 11.1565 6.3139 12.3466 6.43357 12.6041L6.6557 12.6511C6.69208 12.9603 7.01474 13.799 7.20048 14.1992C6.62071 14.2268 5.87889 14.9116 5.1925 15.5451C5.06843 15.6597 4.94616 15.7725 4.82699 15.8795C4.35498 16.3037 3.86477 16.0241 3.73935 15.9485C3.61166 15.8594 3.44138 15.8617 3.31616 15.9542C3.30241 15.9666 3.2893 15.9797 3.2769 15.9934C3.2702 16.0011 3.26733 16.0011 3.26062 16.0011H3.24913L3.23764 15.9944C3.21563 15.9801 3.1802 15.9973 3.15914 16.0318L3.1103 16.1074C3.08732 16.1428 3.08732 16.1821 3.1103 16.1964L3.13711 16.2146C3.11222 16.2654 3.0902 16.3152 3.07105 16.3611L3.04903 16.3534C3.02414 16.3448 2.9935 16.3687 2.97914 16.408L2.94946 16.4932C2.9351 16.5325 2.94275 16.5708 2.96861 16.5803L2.98872 16.588C2.92464 16.7454 2.82403 16.8606 2.72159 16.978C2.61891 17.0957 2.51439 17.2154 2.44298 17.3817L2.4133 17.3712C2.38745 17.3636 2.35777 17.3875 2.34341 17.4268L2.31373 17.511C2.30032 17.5503 2.30799 17.5895 2.33192 17.5981L2.36256 17.6087C2.33893 17.6947 2.32197 17.7824 2.31181 17.871H2.27734C2.25245 17.87 2.22756 17.9026 2.22756 17.9438V18.0338C2.22564 18.0759 2.24574 18.1113 2.2716 18.1113H2.30033V18.4215C2.3099 18.613 2.63256 18.7059 2.7283 18.5278C3.28163 17.4687 4.63332 16.9839 6.07296 16.4675C6.71831 16.2361 7.38134 15.9982 7.99804 15.6995C7.98019 15.6628 7.96454 15.6251 7.95112 15.5865C8.04017 15.5444 8.21633 15.4487 8.36282 15.3654C8.50931 15.2821 8.63665 15.1959 8.66633 15.1739C8.76603 15.1029 8.84984 15.012 8.91239 14.9068C8.97622 14.7862 9.00913 14.6516 9.00813 14.5152C9.01076 14.3237 8.99741 14.0323 8.98413 13.7426C8.98287 13.7151 8.98161 13.6876 8.98037 13.6602C8.96409 13.3078 8.93346 12.9153 8.90186 12.6281C8.94016 12.6233 9.07324 12.585 9.07324 12.585L8.91239 11.1364L8.4107 10.8903L11.6947 10.9056C11.6947 10.9056 11.6995 10.876 11.7397 10.741C12.2664 10.7609 12.5768 10.7657 12.9018 10.7707C13.1533 10.7745 13.4136 10.7785 13.7896 10.7898C14.0197 10.7926 14.175 10.8936 14.3277 10.9931C14.4375 11.0645 14.5459 11.1352 14.68 11.168C15.1609 11.2867 15.5349 11.2739 15.9627 11.2592C16.4421 11.2427 16.9892 11.2239 17.83 11.3853C17.8774 11.393 17.9174 11.4249 17.9353 11.4696C17.9542 11.53 17.9654 11.6139 17.9766 11.6986C17.991 11.8069 18.0056 11.9165 18.0368 11.9799C18.167 12.2259 18.346 12.1953 18.5098 12.1302L18.5308 12.1752C18.5423 12.1982 18.5806 12.203 18.6189 12.1857L18.7003 12.1484C18.7386 12.1302 18.7597 12.0976 18.7491 12.0737L18.7271 12.0268L18.8429 11.9703L18.865 12.0163C18.8745 12.0393 18.9147 12.045 18.9521 12.0278L19.0344 11.9895C19.0708 11.9722 19.0938 11.9387 19.0814 11.9157L19.0612 11.8698C19.2211 11.7956 19.379 11.7236 19.5324 11.6536C19.7253 11.5657 19.9113 11.4809 20.0857 11.3987L20.1001 11.4294C20.1116 11.4533 20.1508 11.4581 20.1882 11.4409L20.2695 11.4026C20.3078 11.3853 20.3299 11.3509 20.3184 11.3279L20.3021 11.2934L20.4036 11.2436L20.4208 11.2762C20.4323 11.2992 20.4725 11.303 20.5089 11.2839L20.5893 11.2437C20.6267 11.2255 20.6477 11.191 20.6353 11.168L20.6171 11.1326L20.6707 11.1029ZM22.3672 7.60919C22.3672 7.60919 22.3672 7.60919 22.3672 7.60919L22.3672 7.60917L22.3672 7.60919ZM22.3672 7.60919C21.6179 7.60768 21.0093 8.21375 21.0077 8.96301C21.0062 9.71229 21.6122 10.321 22.3615 10.3226C23.1108 10.3241 23.7195 9.71802 23.7211 8.96875V8.96585C23.72 8.21694 23.1123 7.61054 22.3634 7.61107L22.3672 7.60919Z" fill="white"/>
</svg>
