<svg width="40" height="14" viewBox="0 0 40 14" fill="none" xmlns="http://www.w3.org/2000/svg">
<path d="M15.0392 3.82698C15.5242 3.82805 16.0088 3.8245 16.4938 3.82875C16.4913 5.26044 16.492 6.69211 16.4931 8.1238C17.077 8.12344 17.6606 8.12417 18.2445 8.12344V9.40049C17.1767 9.40119 16.1088 9.39908 15.0409 9.40156C15.0371 7.54336 15.0406 5.68517 15.0392 3.82698Z" fill="white"/>
<path d="M24.0323 3.82495C24.5166 3.82706 25.0005 3.82565 25.4844 3.82565C25.4848 5.25805 25.4844 6.69042 25.4848 8.12245C26.0691 8.12422 26.6533 8.11998 27.2377 8.12456C27.2352 8.54965 27.237 8.97441 27.237 9.39916C26.1684 9.39953 25.0998 9.39987 24.0312 9.39916C24.0326 7.541 24.0302 5.68314 24.0323 3.82495Z" fill="white"/>
<path d="M20.2199 4.88269C20.5714 4.81507 20.9472 4.82494 21.2821 4.96052C21.5153 5.05457 21.7122 5.21551 21.9023 5.37648C21.9051 5.22645 21.9027 5.07642 21.9055 4.92636C22.351 4.92883 22.7969 4.92672 23.2425 4.92743C23.241 6.41617 23.2453 7.90525 23.2407 9.39436C22.7867 9.40881 22.3316 9.39647 21.8773 9.39998C21.8773 9.26122 21.878 9.12244 21.8769 8.98402C21.5195 9.31015 21.0451 9.51337 20.5576 9.50705C19.9902 9.51725 19.408 9.30067 19.0301 8.86852C18.6353 8.4251 18.4729 7.81862 18.4694 7.23504C18.4574 6.72365 18.6061 6.20839 18.8956 5.78574C19.201 5.33208 19.6796 4.98869 20.2199 4.88269ZM20.6443 6.12736C20.3294 6.19039 20.0568 6.41828 19.9332 6.71376C19.731 7.19944 19.8709 7.84502 20.3273 8.13769C20.7475 8.40325 21.3476 8.29652 21.6727 7.92743C22.071 7.49388 22.0242 6.73664 21.5797 6.3524C21.3293 6.12983 20.968 6.05338 20.6443 6.12736Z" fill="white"/>
<path d="M30.5514 5.23818C30.9579 4.90148 31.5133 4.78384 32.0286 4.86696C32.4142 4.91872 32.7506 5.14238 33.0161 5.41708C33.0189 5.25401 33.0175 5.09096 33.0175 4.92788C33.4493 4.92752 33.8808 4.92611 34.3126 4.92859C34.3115 6.26094 34.3126 7.59297 34.3122 8.92532C34.3055 9.4272 34.1336 9.93788 33.7804 10.302C33.3715 10.7314 32.7759 10.9353 32.1937 10.9631C31.5954 10.9924 30.9656 10.8642 30.481 10.4961C30.1306 10.2369 29.8907 9.83326 29.8368 9.40007C30.3391 9.40288 30.842 9.39585 31.3442 9.40325C31.4337 9.50644 31.5108 9.62936 31.6383 9.69063C31.8204 9.78043 32.0328 9.7727 32.2304 9.75544C32.4843 9.7269 32.7562 9.61491 32.883 9.37929C32.9932 9.18523 32.9453 8.9556 32.958 8.74358C32.5875 9.05247 32.1166 9.27012 31.6267 9.25145C31.1558 9.24512 30.6895 9.04859 30.364 8.70694C29.9217 8.25789 29.7304 7.60913 29.7516 6.98894C29.7696 6.33244 30.0312 5.65765 30.5514 5.23818ZM31.8208 6.02252C31.4823 6.07498 31.216 6.35322 31.1252 6.67549C31.0124 7.06398 31.0575 7.52993 31.3418 7.83564C31.6901 8.22165 32.3554 8.18853 32.7108 7.82931C33.1105 7.44578 33.1225 6.75512 32.7798 6.33214C32.5516 6.0542 32.1631 5.96898 31.8208 6.02252Z" fill="white"/>
<path d="M35.8665 5.20853C36.3187 4.8891 36.9051 4.76794 37.4472 4.88485C37.7761 4.95529 38.0565 5.15463 38.304 5.37405C38.3019 5.22543 38.3023 5.07644 38.3023 4.92782C38.7513 4.92782 39.2007 4.9243 39.6498 4.92959V9.39862C39.1947 9.40144 38.7393 9.40003 38.2843 9.39933C38.285 9.26021 38.285 9.12109 38.284 8.98233C38.1329 9.11088 37.973 9.2324 37.792 9.31655C37.3179 9.55324 36.753 9.55675 36.2539 9.40003C35.8031 9.25669 35.416 8.93408 35.1881 8.52024C34.9173 8.03666 34.8419 7.46542 34.8873 6.91914C34.955 6.24645 35.3086 5.59806 35.8665 5.20853ZM37.0305 6.13199C36.6628 6.21052 36.3638 6.51941 36.2821 6.88428C36.1782 7.33051 36.3211 7.85916 36.7121 8.12472C37.1559 8.42093 37.8138 8.28884 38.1301 7.86515C38.4639 7.43196 38.4104 6.7494 38.011 6.375C37.7539 6.13306 37.3704 6.0464 37.0305 6.13199Z" fill="white"/>
<path d="M28.2977 3.00339C28.696 2.88823 29.1588 3.12207 29.2881 3.51936C29.3969 3.82825 29.3008 4.19911 29.0511 4.41217C28.8123 4.62667 28.4439 4.68265 28.154 4.5439C27.8339 4.39738 27.6483 4.02582 27.7057 3.68137C27.7448 3.36404 27.9878 3.08403 28.2977 3.00339ZM27.8286 4.92814C28.278 4.92533 28.727 4.92814 29.1764 4.92673C29.1771 6.41792 29.1771 7.90914 29.1764 9.40033C28.727 9.39926 28.278 9.40173 27.8286 9.39892C27.8303 7.9088 27.83 6.41829 27.8286 4.92814Z" fill="white"/>
<path d="M5.20586 5.88619C5.44676 5.56499 5.78065 5.31459 6.16314 5.18885C6.10997 5.2459 6.05571 5.3019 6.00324 5.35932C6.22829 5.32656 6.45898 5.35755 6.66994 5.44139C6.69283 5.64214 6.71257 5.84326 6.74108 6.04294C6.79143 5.84641 6.79531 5.64107 6.82315 5.44069C7.03518 5.35476 7.26691 5.32904 7.49373 5.35828C7.43598 5.30016 7.37716 5.24345 7.31834 5.18677C7.70013 5.31144 8.04456 5.55445 8.27632 5.88411C8.20941 5.85029 8.14212 5.81756 8.0745 5.78551C8.16043 5.98733 8.2249 6.20639 8.19917 6.42792C8.02519 6.53569 7.81845 6.58323 7.65115 6.70334C7.84909 6.66811 8.0456 6.62375 8.24284 6.58607C8.39287 6.75828 8.48585 6.97172 8.53235 7.19361C8.56969 7.12599 8.60596 7.05801 8.63979 6.98864C8.6419 7.39226 8.50067 7.78285 8.27596 8.11463C8.28757 8.03784 8.29814 7.96108 8.30765 7.8843C8.14072 8.03115 7.94736 8.14986 7.73075 8.20586C7.5853 8.05971 7.45676 7.89734 7.3067 7.75645C7.37572 7.95192 7.52083 8.11288 7.58812 8.30728C7.47472 8.49816 7.2993 8.6408 7.1116 8.75456C7.18344 8.76901 7.25564 8.78239 7.3275 8.79752C7.14084 8.84824 6.94925 8.87993 6.7559 8.88839C6.55233 8.88488 6.35228 8.84366 6.15434 8.79999C6.22865 8.78768 6.30119 8.76831 6.3741 8.75034C6.18251 8.63728 6.01275 8.48585 5.89511 8.29567C5.99371 8.11429 6.10396 7.93924 6.19483 7.75398C6.0367 7.88818 5.90919 8.0544 5.76726 8.2048C5.54537 8.15759 5.35766 8.02693 5.18227 7.89065C5.19425 7.96462 5.20797 8.03857 5.22312 8.11218C4.98644 7.78991 4.8519 7.39335 4.85156 6.99325C4.8889 7.0591 4.92306 7.12672 4.9597 7.1933C5.00584 6.97 5.09845 6.75516 5.25096 6.58399C5.4496 6.62307 5.64647 6.67346 5.84722 6.70056C5.67077 6.5942 5.476 6.52376 5.29111 6.43466C5.27244 6.21032 5.32808 5.98843 5.41755 5.78416C5.34639 5.81717 5.27666 5.85237 5.20586 5.88619ZM5.90323 6.7135C6.00642 7.04878 6.11667 7.3816 6.22725 7.71444C6.57415 7.71304 6.92071 7.71444 7.26764 7.71374C7.37471 7.38126 7.48285 7.04915 7.59202 6.71701C7.31345 6.50816 7.02781 6.30881 6.7485 6.101C6.46464 6.30212 6.18499 6.50993 5.90323 6.7135Z" fill="white"/>
<path d="M6.14006 0.718018H6.29116C6.43731 1.45762 6.56692 2.20041 6.70956 2.94074C6.73632 3.06119 6.75182 3.18412 6.75359 3.30772C5.92803 3.44155 5.16942 3.94802 4.74995 4.6746C4.72355 4.74892 4.64077 4.77321 4.57773 4.72426C3.89059 4.32945 3.2077 3.92687 2.5209 3.53102C2.47934 3.49793 2.39797 3.46973 2.42862 3.40247C2.46526 3.29647 2.53569 3.20664 2.59484 3.11262C3.01749 2.45964 3.58488 1.90212 4.24067 1.48476C4.81827 1.11106 5.47055 0.866642 6.14006 0.718018Z" fill="white"/>
<path d="M7.23174 1.34499C8.58384 1.21608 9.97746 1.61159 11.0566 2.43681C11.1602 2.52063 11.276 2.5932 11.3616 2.69638C11.407 2.75169 11.3436 2.80626 11.3127 2.84852C10.8386 3.39443 10.3659 3.94138 9.89294 4.48766C9.83201 4.55494 9.77989 4.63136 9.70875 4.68805C9.63972 4.72572 9.58937 4.65881 9.53865 4.6229C9.00471 4.17315 8.29539 3.94212 7.59945 3.97839C7.48147 3.98227 7.3656 4.01007 7.2476 4.00726C7.21026 3.96959 7.19828 3.91816 7.19089 3.8678C7.08981 3.16869 6.98485 2.4703 6.882 1.77152C6.86651 1.65599 6.83833 1.54049 6.84466 1.42355C6.95738 1.34853 7.10319 1.3672 7.23174 1.34499Z" fill="white"/>
<path d="M6.45696 4.93741C7.01625 4.85393 7.60653 5.01948 8.04537 5.37555C8.46344 5.71014 8.74519 6.21308 8.80295 6.74629C8.85966 7.20661 8.7554 7.6856 8.50992 8.07935C8.23589 8.52629 7.78614 8.86194 7.27897 8.99505C6.82641 9.11409 6.33226 9.07886 5.90436 8.88691C5.43911 8.68124 5.05521 8.29911 4.84917 7.83383C4.61145 7.30167 4.61249 6.6677 4.85409 6.13661C5.13658 5.49774 5.76349 5.02721 6.45696 4.93741ZM5.2049 5.88586C5.2757 5.85204 5.34543 5.81684 5.41656 5.78372C5.3271 5.98798 5.27145 6.20988 5.29012 6.43422C5.47502 6.52332 5.66978 6.59375 5.84624 6.70012C5.64549 6.67299 5.44862 6.62263 5.24997 6.58355C5.09747 6.75472 5.00485 6.96956 4.95871 7.19286C4.92208 7.12631 4.88792 7.05866 4.85058 6.99281C4.85094 7.39291 4.98548 7.78949 5.22214 8.11174C5.20698 8.03813 5.19326 7.96415 5.18128 7.89021C5.35667 8.02652 5.54441 8.15717 5.76628 8.20435C5.90821 8.05396 6.03572 7.88773 6.19384 7.75353C6.10297 7.93879 5.99273 8.11382 5.89412 8.2952C6.01176 8.48538 6.1815 8.63684 6.37311 8.7499C6.30021 8.76786 6.22767 8.78724 6.15336 8.79955C6.3513 8.84322 6.55135 8.88444 6.75491 8.88795C6.94827 8.87949 7.13985 8.8478 7.32652 8.79708C7.25468 8.78192 7.18248 8.76854 7.11061 8.75412C7.29835 8.64036 7.47374 8.49772 7.58713 8.30684C7.51985 8.11241 7.37477 7.95147 7.30571 7.75601C7.45574 7.8969 7.58429 8.05924 7.72977 8.20542C7.94638 8.14941 8.13973 8.03073 8.30666 7.88385C8.29716 7.96064 8.28659 8.0374 8.27497 8.11418C8.49968 7.78241 8.64091 7.39181 8.6388 6.9882C8.60498 7.05759 8.56871 7.12555 8.53137 7.19317C8.48489 6.97127 8.39191 6.75784 8.24185 6.58563C8.04461 6.6233 7.84811 6.6677 7.65017 6.7029C7.81746 6.58282 8.0242 6.53524 8.19819 6.42747C8.22389 6.20594 8.15944 5.98689 8.07352 5.78507C8.14114 5.81712 8.20842 5.84987 8.27534 5.88367C8.0436 5.554 7.69915 5.31099 7.31735 5.18632C7.37617 5.24304 7.43499 5.29972 7.49274 5.35784C7.26593 5.32859 7.03419 5.35432 6.82216 5.44025C6.79433 5.64063 6.79048 5.84597 6.74009 6.0425C6.71155 5.84282 6.69184 5.6417 6.66896 5.44095C6.458 5.35713 6.2273 5.32612 6.00226 5.35888C6.05472 5.30146 6.10896 5.24548 6.16216 5.18841C5.77969 5.31425 5.4458 5.56466 5.2049 5.88586Z" fill="white"/>
<path d="M5.89844 6.71341C6.18019 6.50985 6.45984 6.30204 6.7437 6.10095C7.02299 6.30876 7.30862 6.50808 7.58723 6.71696C7.47805 7.04907 7.36992 7.38121 7.26285 7.71369C6.91595 7.71439 6.56938 7.71299 6.22245 7.71439C6.11187 7.38155 6.00165 7.0487 5.89844 6.71341Z" fill="white"/>
<path d="M1.52483 3.4768C1.56709 3.4504 1.61042 3.49055 1.6488 3.50534C2.35003 3.88325 3.05229 4.25869 3.75388 4.63554C3.82468 4.66301 3.85285 4.74401 3.8025 4.8046C3.41545 5.51851 3.36717 6.40075 3.66585 7.15517C3.70741 7.21928 3.64507 7.27843 3.58519 7.2971C2.91635 7.55597 2.24684 7.81273 1.57767 8.07124C1.47341 8.10961 1.37233 8.1593 1.26352 8.18429C1.23006 8.1695 1.20611 8.14591 1.19168 8.11316C0.613381 6.65118 0.716934 4.94128 1.45724 3.55538C1.47164 3.52083 1.49419 3.49476 1.52483 3.4768Z" fill="white"/>
<path d="M11.1724 3.62372C11.2562 3.57336 11.3274 3.68006 11.3837 3.72938C12.4889 4.81521 13.0958 6.38636 12.9989 7.93286C12.9869 7.94871 12.963 7.9797 12.951 7.99519C12.1536 7.96949 11.3563 7.9177 10.5589 7.88565C10.4927 7.87685 10.4046 7.89164 10.3592 7.83071C10.3479 7.71447 10.3585 7.5979 10.3529 7.48167C10.318 6.76354 9.99362 6.06409 9.46708 5.57452C9.39946 5.52591 9.43432 5.43718 9.48679 5.39314C10.051 4.80571 10.6036 4.20626 11.1724 3.62372Z" fill="white"/>
<path d="M2.94364 7.88826C2.99998 7.86959 3.06445 7.82697 3.12254 7.86256C3.15038 7.89883 3.16902 7.94109 3.18946 7.98231C3.47684 8.61732 4.01606 9.13259 4.65846 9.40062C4.76483 9.44817 4.8807 9.47176 4.98355 9.52706C5.00399 9.58411 4.98495 9.644 4.96909 9.69964C4.72538 10.4745 4.48552 11.2504 4.24321 12.0256C4.19988 12.0344 4.15729 12.034 4.11466 12.0245C2.63582 11.5729 1.37988 10.4547 0.752964 9.04205C0.728671 8.98146 0.732523 8.91454 0.726562 8.8508C1.46372 8.52608 2.2058 8.21191 2.94364 7.88826Z" fill="white"/>
<path d="M9.57972 8.18637C9.64171 8.1501 9.71426 8.1656 9.78154 8.16841C10.5617 8.23322 11.3428 8.28849 12.1226 8.35367C12.1842 8.34875 12.2195 8.41178 12.2085 8.46706C12.1001 10.0245 11.278 11.5118 10.0245 12.4402C9.98052 12.4691 9.93227 12.4892 9.88543 12.5117C9.40714 11.8767 8.94541 11.2294 8.47066 10.5915C8.42804 10.5313 8.37804 10.4728 8.35938 10.4003C8.37099 10.3548 8.41538 10.3316 8.44744 10.3024C9.01483 9.88186 9.40613 9.23591 9.52832 8.54174C9.55084 8.4241 9.55332 8.30331 9.57972 8.18637Z" fill="white"/>
<path d="M7.5309 9.97545C7.58126 9.92827 7.65205 9.9448 7.68518 10.0029C8.10816 10.6267 8.52552 11.2546 8.94744 11.8794C8.99321 11.9474 9.04183 12.0147 9.07599 12.0904C9.04253 12.1809 8.94637 12.2182 8.87276 12.2693C8.15112 12.7225 7.32309 13.0047 6.47465 13.0839C6.12457 13.0783 5.77342 13.074 5.42368 13.0892C5.11974 13.049 4.81543 13.0022 4.51959 12.9198C4.46994 12.9106 4.43541 12.8729 4.39844 12.8427C4.62666 12.0404 4.84186 11.2342 5.06761 10.4312C5.07711 10.3632 5.14828 10.3245 5.20954 10.3561C5.9904 10.578 6.85928 10.4276 7.5309 9.97545Z" fill="white"/>
</svg>
