<svg width="38" height="22" viewBox="0 0 38 22" fill="none" xmlns="http://www.w3.org/2000/svg">
<path d="M22.9404 6.84449C22.9404 4.68626 21.1979 2.89325 19.028 2.89325C16.8909 2.89325 15.1484 4.65301 15.1484 6.84449C15.1484 9.00272 16.8909 10.7625 19.0609 10.7625C19.9157 10.7625 20.7047 10.4969 21.3294 10.032L20.2444 8.9363C19.8828 9.1355 19.4882 9.26835 19.0608 9.26835C17.7457 9.26835 16.6608 8.20585 16.6608 6.84449C16.6608 5.51638 17.7128 4.42064 19.0608 4.42064C20.1458 4.42064 21.0663 5.18433 21.3622 6.1804H17.5485L18.7649 7.44216H22.8746C22.9404 7.24289 22.9404 7.04369 22.9404 6.84449Z" fill="white"/>
<path d="M22.1864 10.8953C21.3316 11.5926 20.2466 11.9911 19.0631 11.9911C16.2356 11.9911 13.9671 9.70006 13.9671 6.84456C13.9671 5.64922 14.3617 4.55355 15.0521 3.69026L13.9343 2.56134C12.9808 3.72343 12.4219 5.21764 12.4219 6.84463C12.4219 10.5302 15.3809 13.5518 19.0631 13.5518C20.6741 13.5518 22.1536 12.9873 23.3043 12.0244L22.1864 10.8953Z" fill="white"/>
<path d="M15.9131 2.79363C16.7679 2.09636 17.8529 1.69789 19.0364 1.69789C21.8639 1.69789 24.1325 3.9889 24.1325 6.84441C24.1325 8.03974 23.7379 9.13541 23.0475 9.99871L24.1325 11.0944C25.0859 9.93235 25.6448 8.43821 25.6448 6.81116C25.6777 3.12561 22.7187 0.137329 19.0693 0.137329C17.4583 0.137329 15.9788 0.701822 14.8281 1.66472L15.9131 2.79363Z" fill="white"/>
<path d="M6.67856 17.421L5.53125 17.421V21.5151H6.67856V19.4294C6.67856 18.657 7.44343 18.5024 8.13179 18.5024V17.3438C7.51988 17.3438 7.06099 17.4982 6.67856 17.8845V17.421Z" fill="white"/>
<path d="M16.0892 17.6528C15.7832 17.421 15.4008 17.3438 14.9418 17.3438C13.7945 17.3438 12.9531 18.2708 12.9531 19.5068C12.9531 20.7427 13.871 21.6697 14.9418 21.6697C15.4008 21.6697 15.7832 21.5152 16.0892 21.3606V21.5924H17.2365V15.4899H16.0892V17.6528ZM16.0892 20.1247C15.8597 20.5109 15.4773 20.5882 15.0948 20.5882C14.4829 20.5882 14.0239 20.0474 14.0239 19.4294C14.0239 18.8114 14.4829 18.2707 15.0948 18.2707C15.4773 18.2707 15.7832 18.4252 16.0892 18.7342V20.1247Z" fill="white"/>
<path d="M19.3739 17.4211H18.2266V21.5152H19.3739V17.4211Z" fill="white"/>
<path d="M22.1306 19.9703L21.0598 17.4211H19.8359L21.5952 21.5152H22.6661L24.4253 17.4211H23.125L22.1306 19.9703Z" fill="white"/>
<path d="M26.0301 17.4211H24.8828V21.5152H26.0301V17.4211Z" fill="white"/>
<path d="M29.321 19.0435L28.5561 18.889C28.1737 18.8117 28.0971 18.6572 28.0971 18.5027C28.0971 18.3482 28.3266 18.1165 28.7091 18.1165C29.0916 18.1165 29.3975 18.2709 29.4739 18.6572H30.5448C30.4683 17.4985 29.3975 17.2667 28.7091 17.2667C27.6382 17.2667 26.9498 17.8075 26.9498 18.6572C26.9498 19.4296 27.5617 19.7386 28.1737 19.8931L29.015 20.0476C29.321 20.1249 29.3975 20.2021 29.3975 20.3566C29.3975 20.5883 29.0915 20.7428 28.7091 20.7428C28.2501 20.7428 27.9442 20.5884 27.8677 20.1249H26.7969C26.8733 21.2836 27.7912 21.6698 28.7091 21.6698C29.7799 21.6698 30.5448 21.2063 30.5448 20.2793C30.5449 19.507 30.0095 19.1979 29.321 19.0435Z" fill="white"/>
<path d="M32.4598 17.4211H31.3125V21.5152H32.4598V17.4211Z" fill="white"/>
<path d="M2.93072 17.3438C1.63045 17.3438 0.789062 18.2708 0.789062 19.5067C0.789062 20.7427 1.63045 21.6696 2.93072 21.6696C3.92507 21.6696 4.68994 21.1289 4.84297 20.3564H3.69566C3.5427 20.5109 3.31322 20.6655 3.00723 20.6655C2.54828 20.6655 2.16585 20.4337 2.01289 19.9703H4.99593C4.99593 19.8158 4.99593 19.6613 4.99593 19.4295C4.99593 18.1935 4.0781 17.3438 2.93072 17.3438ZM1.93637 19.1204C2.08933 18.5797 2.47177 18.348 2.85427 18.348C3.31322 18.348 3.69566 18.657 3.69566 19.1204H1.93637Z" fill="white"/>
<path d="M10.4307 17.3438C9.13045 17.3438 8.28906 18.2708 8.28906 19.5067C8.28906 20.7427 9.13038 21.6696 10.5072 21.6696C11.5016 21.6696 12.19 21.1289 12.4194 20.3564H11.1956C11.0426 20.5882 10.8132 20.6655 10.5072 20.6655C10.0483 20.6655 9.66585 20.4337 9.51282 19.9703H12.4959C12.4959 19.8158 12.4959 19.6613 12.4959 19.4295C12.4194 18.1935 11.5781 17.3438 10.4307 17.3438ZM9.43637 19.1204C9.58933 18.5797 9.97177 18.348 10.3543 18.348C10.8132 18.348 11.1956 18.657 11.1956 19.1204H9.43637Z" fill="white"/>
<path d="M37.271 19.4295C37.271 18.1935 36.4297 17.3439 35.2823 17.3439C33.982 17.3439 33.1406 18.2709 33.1406 19.5068C33.1406 20.7428 33.9819 21.6697 35.2823 21.6697C36.2767 21.6697 36.9651 21.129 37.1945 20.3566H35.9707C35.8177 20.5883 35.5883 20.6656 35.2823 20.6656C34.8233 20.6656 34.4409 20.4338 34.2879 19.9704H37.271C37.271 19.7384 37.271 19.584 37.271 19.4295ZM34.2879 19.1205C34.4409 18.5798 34.8233 18.348 35.2058 18.348C35.6648 18.348 36.0472 18.657 36.0472 19.1205H34.2879Z" fill="white"/>
</svg>
