<svg width="23" height="24" viewBox="0 0 23 24" fill="none" xmlns="http://www.w3.org/2000/svg">
<path d="M22.8249 1.61532V0.262634L0.859145 0.262634V1.61532C0.859145 1.61532 0.858431 9.20227 0.858431 9.24755C0.853763 12.2464 1.76693 15.1752 3.47581 17.6423L0.742187 20.3697L2.65975 22.2829L5.22116 19.7273C5.83544 20.3379 6.50201 20.8937 7.21326 21.3885C8.50875 22.2908 9.94095 22.9799 11.4553 23.4296L11.842 23.5444L12.2288 23.4296C15.2918 22.5228 17.9788 20.6521 19.8886 18.0967C21.7984 15.5412 22.8287 12.438 22.8257 9.25036C22.8257 9.20508 22.8249 1.61532 22.8249 1.61532Z" fill="white"/>
<path d="M5.35869 15.5673L5.23988 15.6858L5.5671 16.0123L5.49166 16.0875L5.16444 15.7611L5.04565 15.8796L4.98438 15.8185L5.29742 15.5062L5.35869 15.5673ZM5.86786 15.4864L5.69815 15.1063L5.80659 14.9982L6.19506 15.3857L6.12435 15.4563L5.8207 15.1534L5.81884 15.1552L6.0065 15.5739L5.9537 15.6266L5.53408 15.4394L5.53217 15.4412L5.8358 15.7442L5.76509 15.8147L5.37662 15.4271L5.48599 15.318L5.86786 15.4864Z" fill="#171717"/>
<path d="M9.50847 9.22589L9.75414 9.98024L9.11096 9.51412L8.46782 9.98024L8.71334 9.22589L8.07031 8.75962H8.86544L9.11096 8.00507L9.35658 8.75962H10.1516L9.50847 9.22589Z" fill="#171717"/>
<path d="M5.8055 9.22589L6.44863 8.75962H5.65371L5.40799 8.00507L5.16242 8.75962H4.36719L5.01048 9.22589L4.76475 9.98024L5.40799 9.51412L6.05096 9.98024L5.8055 9.22589Z" fill="#171717"/>
<path d="M7.50517 11.2161L7.25945 10.4616L7.01383 11.2161H6.21875L6.86183 11.6823L6.61626 12.4366L7.25945 11.9705L7.90248 12.4366L7.65696 11.6823L8.30004 11.2161H7.50517Z" fill="#171717"/>
<path d="M5.09273 6.27157L4.36348 4.61463H4.34034V6.826C4.34082 6.83371 4.33965 6.84143 4.33692 6.84866C4.33419 6.85589 4.32996 6.86246 4.3245 6.86794C4.31904 6.87342 4.31247 6.87768 4.30524 6.88045C4.29801 6.88322 4.29028 6.88442 4.28255 6.88399H3.62866C3.6209 6.88445 3.61313 6.88326 3.60586 6.88051C3.5986 6.87776 3.592 6.8735 3.5865 6.86803C3.581 6.86255 3.57672 6.85597 3.57394 6.84873C3.57117 6.84149 3.56996 6.83374 3.5704 6.826V3.01523C3.56995 3.0075 3.57116 2.99976 3.57393 2.99252C3.57671 2.98529 3.58099 2.97873 3.5865 2.97327C3.592 2.96782 3.59861 2.96359 3.60588 2.96087C3.61315 2.95816 3.62091 2.95701 3.62866 2.95751H4.31725C4.33689 2.95548 4.35665 2.96006 4.37339 2.97051C4.39013 2.98097 4.40288 2.99671 4.40962 3.01523L5.40516 5.25549H5.42857L6.40638 3.01523C6.4132 2.99668 6.42602 2.98093 6.44282 2.97047C6.45963 2.96002 6.47944 2.95546 6.49914 2.95751H7.17616C7.18388 2.95703 7.19161 2.95819 7.19884 2.96092C7.20607 2.96366 7.21263 2.96789 7.21809 2.97335C7.22355 2.97882 7.22778 2.98538 7.2305 2.9926C7.23321 2.99982 7.23436 3.00753 7.23385 3.01523V6.826C7.23435 6.8337 7.2332 6.84143 7.23048 6.84866C7.22776 6.85589 7.22354 6.86246 7.21809 6.86794C7.21263 6.87343 7.20608 6.87769 7.19885 6.88046C7.19162 6.88322 7.18389 6.88443 7.17616 6.88399H6.5221C6.51437 6.88441 6.50665 6.8832 6.49943 6.88043C6.49221 6.87766 6.48567 6.87339 6.48022 6.86791C6.47477 6.86243 6.47055 6.85586 6.46784 6.84864C6.46512 6.84142 6.46397 6.8337 6.46445 6.826V4.61463H6.44122L5.71207 6.27157C5.70437 6.29439 5.68944 6.31408 5.66952 6.32767C5.64961 6.34126 5.6258 6.34801 5.60169 6.34689H5.20246C5.17846 6.34791 5.15478 6.34111 5.13498 6.32753C5.11519 6.31394 5.10036 6.2943 5.09273 6.27157Z" fill="#171717"/>
<path d="M7.82352 6.88423H10.3874C10.3951 6.88466 10.4029 6.88346 10.4101 6.88069C10.4173 6.87793 10.4239 6.87367 10.4294 6.86819C10.4348 6.86271 10.4391 6.85614 10.4418 6.84891C10.4446 6.84168 10.4458 6.83395 10.4453 6.82623V6.18533C10.4458 6.17763 10.4446 6.16992 10.4418 6.16271C10.439 6.1555 10.4348 6.14896 10.4293 6.14351C10.4238 6.13806 10.4173 6.13382 10.41 6.13108C10.4028 6.12834 10.3951 6.12715 10.3874 6.1276H8.65117C8.64645 6.12828 8.64163 6.12785 8.63709 6.12634C8.63256 6.12484 8.62845 6.1223 8.62507 6.11893C8.62169 6.11557 8.61915 6.11146 8.61764 6.10694C8.61614 6.10242 8.61571 6.09761 8.61639 6.09289V3.01546C8.61688 3.00776 8.61572 3.00004 8.61299 2.99282C8.61026 2.9856 8.60602 2.97904 8.60055 2.97358C8.59508 2.96812 8.58851 2.96388 8.58127 2.96115C8.57403 2.95842 8.5663 2.95726 8.55857 2.95775H7.82352C7.81581 2.95728 7.80808 2.95844 7.80085 2.96118C7.79362 2.96391 7.78705 2.96815 7.78158 2.9736C7.77612 2.97906 7.77188 2.98562 7.76915 2.99283C7.76641 3.00005 7.76525 3.00776 7.76573 3.01546V6.82623C7.76526 6.83394 7.76643 6.84167 7.76916 6.84889C7.77189 6.85612 7.77613 6.86269 7.78159 6.86817C7.78705 6.87365 7.7936 6.87791 7.80083 6.88068C7.80806 6.88345 7.81579 6.88466 7.82352 6.88423Z" fill="#171717"/>
<path d="M12.5801 4.52235L12.3719 4.49351C11.9205 4.43014 11.7584 4.28583 11.7584 4.06057C11.7584 3.8121 11.9377 3.63333 12.285 3.63333C12.6092 3.63333 12.8984 3.73714 13.1994 3.93358C13.2058 3.9378 13.2131 3.9407 13.2207 3.94209C13.2283 3.94349 13.2361 3.94336 13.2436 3.94171C13.2511 3.94006 13.2583 3.93692 13.2646 3.93249C13.2709 3.92805 13.2762 3.9224 13.2803 3.91587L13.6334 3.39054C13.6623 3.35006 13.6565 3.32722 13.6221 3.30406C13.2919 3.04993 12.8058 2.8941 12.285 2.8941C11.4342 2.8941 10.8903 3.37337 10.8903 4.09507C10.8903 4.78797 11.3358 5.16318 12.1347 5.273L12.343 5.30171C12.8117 5.36528 12.9505 5.50978 12.9505 5.74077C12.9505 6.01768 12.7191 6.20841 12.3082 6.20841C11.8916 6.20841 11.5387 6.01212 11.2781 5.80424C11.2722 5.79846 11.2652 5.79398 11.2575 5.7911C11.2498 5.78822 11.2416 5.78701 11.2334 5.78755C11.2252 5.78809 11.2172 5.79036 11.2099 5.79422C11.2027 5.79807 11.1963 5.80343 11.1913 5.80992L10.7514 6.31232C10.7395 6.32629 10.7334 6.3443 10.7345 6.36261C10.7356 6.38092 10.7437 6.39811 10.7572 6.41059C11.0639 6.70516 11.6598 6.94744 12.2736 6.94744C13.2919 6.94744 13.8189 6.42204 13.8189 5.71198C13.8189 5.00159 13.3904 4.63212 12.5801 4.52235Z" fill="#171717"/>
<path d="M21.9243 1.59291L21.9242 1.14203L1.76638 1.14203L1.76635 1.59291C1.76635 1.59291 1.76564 9.19106 1.76564 9.23635C1.76102 12.2626 2.75074 15.207 4.58323 17.6186C4.61169 17.656 4.64077 17.6929 4.66956 17.73L2.02384 20.3698L2.66301 21.0074L5.24765 18.4287C5.98483 19.2628 6.81936 20.0059 7.73347 20.6422C8.94965 21.4899 10.2944 22.1373 11.7164 22.5596L11.8453 22.5979L11.9742 22.5596C13.3962 22.1373 14.741 21.4899 15.9571 20.6422C17.1596 19.8054 18.2227 18.785 19.1074 17.6186C20.9399 15.207 21.9296 12.2626 21.925 9.23635C21.925 9.19106 21.9243 1.59291 21.9243 1.59291ZM5.30392 17.0741C3.59032 14.8193 2.66495 12.0661 2.66959 9.23635C2.66959 9.19776 2.6701 3.67827 2.67025 2.04389H20.3917L5.31396 17.0871C5.31066 17.0828 5.30723 17.0785 5.30392 17.0741ZM20.3239 13.4423C19.8764 14.7482 19.2224 15.9743 18.3867 17.0741C17.5591 18.1653 16.5647 19.1198 15.4398 19.9026C14.3399 20.6693 13.1273 21.2609 11.8453 21.6562C10.5633 21.2609 9.35069 20.6693 8.25076 19.9026C7.38021 19.2965 6.58689 18.587 5.88832 17.7895L21.0204 2.69204C21.0206 4.7988 21.021 9.2019 21.021 9.23635C21.0227 10.6671 20.7871 12.0882 20.3239 13.4423Z" fill="#171717"/>
</svg>
