<svg width="22" height="26" viewBox="0 0 22 26" fill="none" xmlns="http://www.w3.org/2000/svg">
<path opacity="0.5" d="M7.14325 24.4237H0L0 25.1651H7.14325V24.4237Z" fill="white"/>
<path opacity="0.5" d="M21.4089 24.4236H14.2656V25.165H21.4089V24.4236Z" fill="white"/>
<path d="M3.04136 22.4977C3.02477 22.4811 3.0137 22.4424 3.03583 22.4203L3.38442 22.0219C3.40102 21.9997 3.42868 21.9997 3.45082 22.0163C3.65554 22.1823 3.9322 22.3317 4.26418 22.3317C4.5851 22.3317 4.7677 22.1823 4.7677 21.961C4.7677 21.7784 4.65703 21.6677 4.28632 21.6124L4.12032 21.5903C3.48955 21.5018 3.14096 21.2085 3.14096 20.6663C3.14096 20.0963 3.56701 19.7201 4.23652 19.7201C4.64043 19.7201 5.02775 19.8418 5.28781 20.041C5.31547 20.0576 5.31547 20.0797 5.29334 20.1074L5.01669 20.5224C5.00009 20.5445 4.97795 20.5501 4.95582 20.539C4.72343 20.3785 4.49104 20.3066 4.23652 20.3066C3.96539 20.3066 3.82153 20.4505 3.82153 20.6441C3.82153 20.8267 3.9488 20.9374 4.30292 20.9816L4.46891 21.0038C5.11075 21.0923 5.44827 21.38 5.44827 21.9444C5.44827 22.5032 5.03329 22.9238 4.23098 22.9238C3.7496 22.9182 3.27929 22.7301 3.04136 22.4977Z" fill="white"/>
<path d="M5.80469 19.8195C5.80469 19.7919 5.82129 19.7753 5.84895 19.7753H7.83534C7.86301 19.7753 7.87961 19.7919 7.87961 19.8195V20.3064C7.87961 20.3341 7.86301 20.3507 7.83534 20.3507H6.49633C6.47973 20.3507 6.46866 20.3562 6.46866 20.3784V20.9926C6.46866 21.0092 6.47419 21.0202 6.49633 21.0202H7.60848C7.63615 21.0202 7.65275 21.0368 7.65275 21.0645V21.5459C7.65275 21.5735 7.63615 21.5901 7.60848 21.5901H6.49633C6.47973 21.5901 6.46866 21.5957 6.46866 21.6178V22.2596C6.46866 22.2762 6.47419 22.2873 6.49633 22.2873H7.82981C7.85747 22.2873 7.87407 22.3039 7.87407 22.3316V22.8185C7.87407 22.8461 7.85747 22.8627 7.82981 22.8627H5.84895C5.82129 22.8627 5.80469 22.8461 5.80469 22.8185V19.8195Z" fill="white"/>
<path d="M9.99652 22.8631C9.95778 22.8631 9.94118 22.8465 9.93012 22.8188L9.39341 21.6845H8.97842C8.96182 21.6845 8.95076 21.6901 8.95076 21.7122V22.8188C8.95076 22.8465 8.93416 22.8631 8.90649 22.8631H8.32552C8.29785 22.8631 8.28125 22.8465 8.28125 22.8188V19.8088C8.28125 19.7811 8.29785 19.7645 8.32552 19.7645H9.5594C10.1902 19.7645 10.6107 20.1629 10.6107 20.7273C10.6107 21.1257 10.4004 21.4355 10.0629 21.5849L10.6716 22.8022C10.6882 22.8299 10.6716 22.8575 10.6439 22.8575H9.99652V22.8631ZM9.95225 20.7384C9.95225 20.506 9.78626 20.3566 9.53173 20.3566H8.98396C8.96736 20.3566 8.95629 20.3621 8.95629 20.3842V21.098C8.95629 21.1146 8.96182 21.1257 8.98396 21.1257H9.53173C9.78626 21.1201 9.95225 20.9707 9.95225 20.7384Z" fill="white"/>
<path d="M11.0391 19.8195C11.0391 19.7919 11.0557 19.7753 11.0833 19.7753H11.6643C11.692 19.7753 11.7086 19.7919 11.7086 19.8195V22.8295C11.7086 22.8572 11.692 22.8738 11.6643 22.8738H11.0944C11.0667 22.8738 11.0501 22.8572 11.0501 22.8295V19.8195H11.0391Z" fill="white"/>
<path d="M12.2109 19.8195C12.2109 19.7919 12.2275 19.7753 12.2552 19.7753H14.2416C14.2693 19.7753 14.2859 19.7919 14.2859 19.8195V20.3064C14.2859 20.3341 14.2693 20.3507 14.2416 20.3507H12.9081C12.8915 20.3507 12.8804 20.3562 12.8804 20.3784V20.9926C12.8804 21.0092 12.886 21.0202 12.9081 21.0202H14.0203C14.0479 21.0202 14.0645 21.0368 14.0645 21.0645V21.5459C14.0645 21.5735 14.0479 21.5901 14.0203 21.5901H12.9081C12.8915 21.5901 12.8804 21.5957 12.8804 21.6178V22.2596C12.8804 22.2762 12.886 22.2873 12.9081 22.2873H14.2416C14.2693 22.2873 14.2859 22.3039 14.2859 22.3316V22.8185C14.2859 22.8461 14.2693 22.8627 14.2416 22.8627H12.2552C12.2275 22.8627 12.2109 22.8461 12.2109 22.8185V19.8195Z" fill="white"/>
<path d="M16.5119 19.8195C16.5174 19.7919 16.5396 19.7753 16.5728 19.7753H17.1427C17.1704 19.7753 17.198 19.7919 17.2035 19.8195L18.2493 22.8295C18.2548 22.8572 18.2493 22.8738 18.2216 22.8738H17.6296C17.6019 22.8738 17.5743 22.8572 17.5687 22.8295L17.3861 22.2873H16.3017L16.1301 22.8295C16.1246 22.8572 16.1025 22.8738 16.0693 22.8738H15.4772C15.4496 22.8738 15.4385 22.8572 15.4496 22.8295L16.5119 19.8195ZM17.2035 21.7119L16.8494 20.6274H16.8328L16.4787 21.7119H17.2035Z" fill="white"/>
<path d="M10.7002 18.133L3.16406 13.3524H7.77868L10.7002 18.133Z" fill="white"/>
<path d="M10.7031 18.1329L18.2448 13.3523H13.6246L10.7031 18.1329Z" fill="white"/>
<path d="M10.7002 5.63837L11.9617 8.9693H10.3682L9.28369 11.841H13.0462L13.6161 13.3571H18.2363L12.7806 0.641968C11.3918 0.641968 10.0085 0.641968 8.61971 0.641968L3.16406 13.3515H7.78421L10.7002 5.63837Z" fill="white"/>
</svg>
