<svg fill="none" height="191" viewBox="0 0 238 191" width="238" xmlns="http://www.w3.org/2000/svg" xmlns:xlink="http://www.w3.org/1999/xlink"><filter id="a" color-interpolation-filters="sRGB" filterUnits="userSpaceOnUse" height="199.751" width="173.985" x="-7.68435" y="-4.998"><feFlood flood-opacity="0" result="BackgroundImageFix"/><feColorMatrix in="SourceAlpha" result="hardAlpha" type="matrix" values="0 0 0 0 0 0 0 0 0 0 0 0 0 0 0 0 0 0 127 0"/><feOffset dy="3.87726"/><feGaussianBlur stdDeviation="7.75453"/><feComposite in2="hardAlpha" operator="out"/><feColorMatrix type="matrix" values="0 0 0 0 0 0 0 0 0 0 0 0 0 0 0 0 0 0 0.1 0"/><feBlend in2="BackgroundImageFix" mode="normal" result="effect1_dropShadow_7026_33422"/><feBlend in="SourceGraphic" in2="effect1_dropShadow_7026_33422" mode="normal" result="shape"/></filter><filter id="b" color-interpolation-filters="sRGB" filterUnits="userSpaceOnUse" height="194.724" width="167.21" x="75.7033" y="-2.48494"><feFlood flood-opacity="0" result="BackgroundImageFix"/><feColorMatrix in="SourceAlpha" result="hardAlpha" type="matrix" values="0 0 0 0 0 0 0 0 0 0 0 0 0 0 0 0 0 0 127 0"/><feOffset dy="3.87726"/><feGaussianBlur stdDeviation="7.75453"/><feComposite in2="hardAlpha" operator="out"/><feColorMatrix type="matrix" values="0 0 0 0 0 0 0 0 0 0 0 0 0 0 0 0 0 0 0.1 0"/><feBlend in2="BackgroundImageFix" mode="normal" result="effect1_dropShadow_7026_33422"/><feBlend in="SourceGraphic" in2="effect1_dropShadow_7026_33422" mode="normal" result="shape"/></filter><linearGradient id="c" gradientUnits="userSpaceOnUse" x1="96.9316" x2="96.9316" y1="0" y2="77.5453"><stop offset="0" stop-color="#2a61e0" stop-opacity="0"/><stop offset="1" stop-color="#2a61e0"/></linearGradient><linearGradient id="d"><stop offset="0" stop-color="#fff"/><stop offset="1" stop-color="#fff" stop-opacity="0"/></linearGradient><linearGradient id="e" gradientUnits="userSpaceOnUse" x1="76.2285" x2="95.9963" xlink:href="#d" y1="70.6912" y2="169.729"/><linearGradient id="f" gradientUnits="userSpaceOnUse" x1="162.942" x2="148.658" xlink:href="#d" y1="70.7858" y2="170.791"/><clipPath id="g"><path d="m0 0h238v191h-238z"/></clipPath><clipPath id="h"><rect height="148.317" rx="14.9364" transform="matrix(.979287 -.195465 .189999 .98317 7.82471 29.5452)" width="117.215"/></clipPath><clipPath id="i"><rect height="148.561" rx="14.9364" transform="matrix(.989953 .141395 -.136985 .990573 111.563 9.14685)" width="117.017"/></clipPath><g clip-path="url(#g)"><g filter="url(#a)"><g clip-path="url(#h)"><rect fill="#292929" height="148.317" rx="14.9364" transform="matrix(.979287 -.195465 .189999 .98317 7.82471 29.5452)" width="117.215"/><path d="m0 0h193.863v77.5453h-193.863z" fill="url(#c)" transform="matrix(.979287 -.195465 .189999 .98317 51.061 168.171)"/><path d="m32.2902 141.903-5.6511 28.621c29.9073 8.943 42.7437 8.245 71.1712 4.901 26.3637-.137 62.5117-30.651 61.9077-31.463-.484-.65-8.202-13.896-12.001-20.438-.778-1.708-4.578-9.804-11.472-10.758-2.275-.664-21.516-4.869-30.852-6.889-1.466-.64-5.9518-5.336-6.9867-6.0621-.8279-.5809-2.1349-7.9614-2.6849-11.5791-.29-2.272-.1793-5.5568-.1793-5.5568 4.3907-2.7396 3.1739-11.3505 3.1739-11.3505.2013-4.5136-3.0204-4.057-3.9657-2.0051l-1.2138-6.2808c-.0694-.3589-1.8171-6.3165-2.6822-9.2504-.9827-5.085-8.2001-12.3429-20.0884-11.3679-13.7123 3.1097-15.8648 13.5736-15.227 18.4169l1.7342 8.9736 1.7311 6.6435c-1.6398-2.3133-3.7054-.6576-3.0118 2.9311 1.526 7.8968 5.7557 9.7242 7.6797 9.6508.8922 1.5306 2.8494 5.0232 3.5407 6.7491.6914 1.726 1.2727 7.3567 1.4769 9.9567l-2.1447 7.418c-7.0306 4.51-22.2108 14.219-26.6876 16.977-4.4767 2.757-6.9101 8.99-7.5672 11.762z" fill="url(#e)" fill-opacity=".3"/></g></g><g filter="url(#b)"><g clip-path="url(#i)"><rect fill="#7f7f7f" height="148.561" rx="14.9364" transform="matrix(.989953 .141395 -.136985 .990573 111.563 9.14685)" width="117.017"/><path d="m0 0h193.863v77.5453h-193.863z" fill="url(#c)" transform="matrix(.989953 .141395 -.136985 .990573 107.817 154.288)"/><path d="m98.4839 123.452-14.5602 25.164c25.3783 18.401 37.7313 22.013 65.6693 28.312 24.955 8.643 68.941-8.162 68.632-9.13-.248-.775-3.273-15.859-4.755-23.304-.185-1.873-1.168-10.787-7.374-13.982-1.936-1.385-18.762-11.761-26.933-16.776-1.178-1.092-3.904-7.022-4.648-8.052-.595-.825.548-8.2332 1.193-11.8345.458-2.2433 1.621-5.3102 1.621-5.3102 5.031-1.1276 6.656-9.6688 6.656-9.6688 1.644-4.1979-1.547-4.8384-3.102-3.2141l.877-6.3385c.05-.3623.318-6.573.446-9.633.709-5.1318-3.772-14.3911-15.319-17.4257-13.958-1.6242-19.363 7.5467-20.321 12.3352l-1.252 9.0561-.505 6.8534c-.804-2.7314-3.289-1.8544-3.79 1.7674-1.102 7.9693 2.306 11.1034 4.147 11.6742.35 1.7431 1.074 5.6944 1.172 7.5553.097 1.8608-1.168 7.375-1.813 9.8992l-4.416 6.296c-8.096 1.922-25.567 6.045-30.686 7.161-5.118 1.115-9.4252 6.195-10.9391 8.595z" fill="url(#f)" fill-opacity=".3"/></g></g></g></svg>