<svg width="56" height="54" viewBox="0 0 56 54" fill="none" xmlns="http://www.w3.org/2000/svg">
<g clip-path="url(#clip0_220_23360)">
<path d="M55.8627 0.765625H0.458252V45.0701H55.8627V0.765625Z" fill="#D20515"/>
<path d="M46.1025 24.1144C46.1025 24.2101 46.0068 24.3054 45.8154 24.4012L45.7197 24.4972V24.5929C45.7197 24.6887 45.7197 24.6887 45.6239 24.784L45.4325 24.8801C45.3368 24.8801 45.2411 24.8801 45.2411 24.8801V24.784L45.0496 24.8801V24.9758C45.0496 25.0715 45.0496 25.0715 44.9539 25.1669L44.7625 25.263C44.6668 25.263 44.571 25.263 44.571 25.263V25.1669C43.9014 25.5498 43.0399 25.8369 42.2745 26.2194V26.3155C42.2745 26.4112 42.2745 26.4112 42.1788 26.5066L41.9874 26.6023C41.8917 26.6023 41.7959 26.6023 41.7959 26.6023L41.7002 26.5066L41.4131 26.6023L41.5088 26.6984C41.5088 26.7941 41.5088 26.7941 41.4131 26.8894L41.2216 26.9852C41.1259 26.9852 41.0302 26.9852 41.0302 26.9852L40.9345 26.8894C40.5516 27.0809 40.1691 27.0809 39.882 26.5066C39.7862 26.2194 39.7862 25.6455 39.6905 25.3583C39.5948 25.1669 39.4034 25.1669 39.4034 25.1669C35.7672 24.4972 34.6189 25.263 32.2267 24.6887C31.4613 24.4976 31.0784 23.8276 30.217 23.8276C28.3033 23.7319 27.729 23.8276 25.5282 23.7318C25.4325 24.0186 25.4325 24.1147 25.4325 24.1147H17.9698L19.118 24.6887L19.5009 27.9424C19.5009 27.9424 19.2137 28.038 19.118 28.038C19.2137 28.7081 19.2137 29.5692 19.3095 30.3346C19.3095 31.0046 19.4052 31.77 19.4052 32.2482C19.4052 32.4397 19.4052 32.7268 19.2137 33.1097C19.118 33.3968 18.8309 33.5879 18.6398 33.6836C18.5441 33.7797 18.2569 33.9708 17.9701 34.1622C17.5872 34.3533 17.2047 34.5451 17.0133 34.6405C17.0133 34.7362 17.109 34.8315 17.109 34.9276C12.6117 37.128 6.96581 37.798 5.14789 41.3389C4.95645 41.7218 4.19107 41.53 4.19107 41.0517C4.19107 40.8607 4.19107 40.5735 4.19107 40.3817H4.09535C3.99963 40.3817 3.99963 40.286 3.99963 40.1906V39.9992C3.99963 39.9035 4.09535 39.8081 4.09535 39.8081H4.19107C4.19107 39.6167 4.28679 39.4252 4.28679 39.2338H4.19107C4.09535 39.2338 4.09535 39.1381 4.19107 39.0427L4.28679 38.8513C4.28679 38.7556 4.3825 38.6602 4.47822 38.7556H4.57394C4.8611 37.9902 5.53076 37.7031 5.81791 36.9373C5.7222 36.9373 5.7222 36.8416 5.81791 36.7462L5.7222 36.5548C5.7222 36.4591 5.81791 36.3634 5.91363 36.4591H6.00935C6.00935 36.363 6.10507 36.2677 6.20079 36.1719H6.10507C6.00935 36.1719 6.00935 36.0762 6.10507 35.9805L6.20079 35.7894C6.2965 35.6937 6.2965 35.6937 6.39222 35.6937L6.48794 35.5976C6.77509 35.4066 7.15797 35.4066 7.44476 35.5976C7.73191 35.7891 8.88017 36.363 9.9327 35.4065C11.6549 33.78 13.7603 31.6747 15.2911 31.5789C14.9082 30.7175 14.1428 28.8038 14.0471 28.038L13.5685 27.9424C13.2814 27.3681 12.6117 24.6887 12.4203 22.5839C12.4203 22.5839 12.2289 20.3831 12.4203 19.6174C12.3246 19.6174 12.0374 19.8085 12.0374 19.8085C11.7503 19.1384 12.7071 13.2058 13.5685 11.4836L15.0039 10.9093C14.8125 10.9093 13.8557 10.8135 11.1763 10.6221C9.64519 11.9618 8.01834 13.3972 7.06152 14.1629C6.87009 14.2587 6.67865 15.1201 6.67865 15.1201C6.67865 15.1201 6.29578 15.503 5.81755 15.7898C5.24324 16.1726 3.99927 16.4598 3.71212 15.9812C3.6164 15.8855 3.6164 15.7898 3.71212 15.7898C3.90355 15.5987 4.66893 15.2158 4.95609 14.7372C4.57322 14.9287 4.09499 15.2158 3.71212 15.1205C3.52068 15.1205 3.42496 14.7372 3.71212 14.6419C4.28606 14.4508 4.66893 14.259 5.05181 13.8765C5.33896 13.3983 5.72183 13.1111 6.29578 13.1111C6.29578 13.1111 8.78372 9.85743 10.2191 8.32666C10.602 7.94379 11.3674 8.03986 11.3674 8.03986L11.4631 7.56129C11.4631 7.56129 16.439 6.98733 18.8312 7.75271C18.7355 6.3173 19.4052 4.49902 21.6063 4.49902C22.7546 4.49902 24.3814 5.55158 24.6686 6.69984C24.7643 7.08271 24.4771 7.36986 24.3814 7.84809C24.19 8.61347 24.4771 9.37921 24.3814 9.57064C24.2857 9.76172 24.0946 9.76171 23.9032 10.0489C23.7118 10.336 23.4246 10.91 23.4246 10.91L23.1374 11.58L21.6063 11.4843C21.0324 12.7282 19.8841 15.2162 19.5012 17.7038C20.7452 17.7999 26.2951 18.5652 26.2951 18.5652L26.3908 19.0435C26.3908 19.0435 28.6873 19.3306 30.6009 20.1917C30.9838 20.2874 32.132 20.096 32.8017 20.4789L32.9931 20.2874C35.4811 21.0528 37.5865 22.3929 39.9788 22.9672C39.9788 22.9672 41.127 23.254 41.5099 23.3501C42.3713 23.5411 42.9453 23.5411 43.4235 23.6369C44.1889 23.7329 44.6675 23.7329 45.1461 23.7329C45.4329 23.6358 46.0068 23.5401 46.1025 24.1144ZM49.7387 16.5544C48.0162 16.5544 46.6768 17.8941 46.6768 19.6167C46.6768 21.3389 48.0165 22.6786 49.7387 22.6786C51.4609 22.6786 52.801 21.3389 52.801 19.6167C52.801 17.8945 51.3656 16.5544 49.7387 16.5544Z" fill="white"/>
<path d="M5.34586 51.8969C5.34586 52.9491 4.84624 53.5143 3.51779 53.5143H0.440308V47.5704H3.39959C4.78025 47.5704 5.25377 48.1091 5.25377 49.1218C5.25377 49.8846 4.96444 50.2396 4.14902 50.4368L3.9913 50.4764L4.12292 50.5024C5.05653 50.7131 5.34586 51.0554 5.34586 51.8969ZM1.86085 50.0558H3.11026C3.60988 50.0558 3.82017 49.8455 3.82017 49.3324C3.82017 48.7937 3.60988 48.5834 3.11026 48.5834H1.86085V50.0558ZM3.91226 51.7519C3.91226 51.2131 3.68856 50.9763 3.18894 50.9763H1.86049V52.5147H3.18894C3.71503 52.502 3.91226 52.2783 3.91226 51.7519ZM6.31899 51.5811V47.5704H7.80516V51.5285C7.80516 52.1859 8.10754 52.436 8.90991 52.436C9.71227 52.436 10.0143 52.1862 10.0143 51.5285V47.5704H11.5005V51.5677C11.5005 52.9621 10.685 53.6064 8.92296 53.6064C7.12136 53.6198 6.31899 52.9755 6.31899 51.5811ZM18.431 47.5704V53.5143H16.6294L14.1044 49.2142V53.5143H12.7234V47.5704H14.525L17.0499 51.8704V47.5704H18.431ZM19.6539 47.5704H22.2974C24.3753 47.5704 24.9275 48.4249 24.9275 50.5289C24.9275 52.5803 24.3357 53.5009 22.2974 53.5009H19.6539V47.5704ZM22.2575 52.3835C23.1255 52.3835 23.4018 51.9368 23.4018 50.5427C23.4018 49.1613 23.1255 48.7146 22.2575 48.7146H21.1267V52.3835H22.2575ZM26.0057 47.5704H30.1611V48.7008H27.4915V49.9503H29.7137V51.0681H27.4915V52.37H30.2268V53.5009H26.0057V47.5704ZM31.0948 53.2775V52.1206C31.805 52.357 32.4493 52.4491 33.0805 52.4491C33.7643 52.4491 34.0667 52.2645 34.0667 51.8048C34.0667 51.4099 33.9355 51.2787 33.396 51.1736L32.4098 50.9632C31.3841 50.753 31.0422 50.332 31.0422 49.3194C31.0422 48.0174 31.805 47.4521 33.3568 47.4521C34.0537 47.4521 34.711 47.5707 35.2505 47.781V48.938C34.6062 48.7146 34.0276 48.6225 33.4489 48.6225C32.7125 48.6225 32.4758 48.8198 32.4758 49.2799C32.4758 49.6613 32.6465 49.7795 33.1201 49.872L34.0801 50.0822C35.1979 50.3186 35.5003 50.7 35.5003 51.7653C35.5003 53.0411 34.7114 53.6198 33.1201 53.6198C32.3971 53.6198 31.7129 53.5012 31.0948 53.2775ZM36.513 47.5704H37.9991V52.37H40.5505V53.5009H36.526L36.513 47.5704ZM41.4707 47.5704H42.9569V53.5143H41.4707V47.5704ZM49.0985 50.0822V53.3171C48.5463 53.5013 47.8099 53.6198 47.047 53.6198C44.9822 53.6198 44.0091 52.7123 44.0091 50.5427C44.0091 48.3992 44.9822 47.4652 47.047 47.4652C47.7834 47.4652 48.4806 47.5838 49.0064 47.794V48.938C48.4277 48.7407 47.7834 48.6225 47.1652 48.6225C45.9162 48.6225 45.5348 49.1222 45.5348 50.5293C45.5348 51.989 45.9427 52.4755 47.113 52.4755C47.3759 52.4755 47.6387 52.4625 47.8889 52.4229V51.1079H46.7845V50.0822H49.0985ZM53.9377 52.2649H51.6103L51.1894 53.5143H49.7166L51.834 47.5704H53.7277L55.8451 53.5143H54.359L53.9377 52.2649ZM52.7803 48.5036L51.9258 51.1866H53.6349L52.7803 48.5036Z" fill="white"/>
</g>
<defs>
<clipPath id="clip0_220_23360">
<rect width="55.4229" height="52.8534" fill="white" transform="translate(0.440308 0.765625)"/>
</clipPath>
</defs>
</svg>
