<svg xmlns="http://www.w3.org/2000/svg" viewBox="0 0 830.41 1170.037">
    <path fill="#FFF"
        d="M407.72 286.117c-75.9 0-137.64 61.75-137.64 137.65s61.74 137.64 137.64 137.64 137.64-61.75 137.64-137.64-61.74-137.65-137.64-137.65" />
    <path fill="#901480"
        d="M116.74 180.827a4.74 4.74 0 002 6.4l145.84 84.8.34.18a4.67 4.67 0 005-.31 4.528 4.528 0 001.18-1.21c.153-.22.284-.454.39-.7a191.171 191.171 0 01133.39-94.25 2.63 2.63 0 00.57-.1 4.69 4.69 0 003.6-5.35l-.06-.33-30.9-165.85-.08-.29a4.422 4.422 0 00-.84-1.88 4.75 4.75 0 00-4.33-1.91l-.4.08c-107.742 19.489-201.348 85.632-255.7 180.68" />
    <path fill="#004AD0"
        d="M33.46 501.167a4.77 4.77 0 003.94 2.86 4.704 4.704 0 002.31-.4l157.4-60.65.34-.14a4.721 4.721 0 002.88-4.07 4.609 4.609 0 00-.21-1.67 4.058 4.058 0 00-.31-.75 191.171 191.171 0 0110-163c.114-.154.208-.322.28-.5a4.65 4.65 0 00-1.92-6.16l-.29-.15-148.61-79.8-.26-.13a4.365 4.365 0 00-2-.52 4.76 4.76 0 00-4.19 2.21c-.07.12-.13.24-.19.36-52.253 96.215-59.278 210.614-19.19 312.5" />
    <path fill="#0090FF"
        d="M233.5 764.437a4.741 4.741 0 005.788-3.382l.002-.008 50.19-161 .1-.36a4.68 4.68 0 00-1.4-4.77 4.475 4.475 0 00-1.45-.88 4.234 4.234 0 00-.77-.23 191.14 191.14 0 01-121.57-109.12 2.403 2.403 0 00-.22-.52 5.002 5.002 0 00-1.08-1.46 4.711 4.711 0 00-4.93-.86l-.31.13-154.79 67-.27.12a4.412 4.412 0 00-1.65 1.24 4.74 4.74 0 00-.86 4.69c0 .13.11.24.16.37 42.961 100.697 128.257 177.24 233 209.09" />
    <path fill="#0A0"
        d="M562.4 772.277a4.75 4.75 0 001-6.64l-94-140-.22-.31a4.7 4.7 0 00-6.18-1.33 3.546 3.546 0 00-.66.46 191.209 191.209 0 01-161.2 26.35 3.398 3.398 0 00-.55-.17 5.008 5.008 0 00-1.81-.06 4.75 4.75 0 00-3.76 3.3l-.09.33-44.92 162.55v.27a4.595 4.595 0 00-.07 2.06 4.75 4.75 0 003.09 3.59c.13.047.264.084.4.11 105.404 29.646 218.522 11.155 309-50.51" />
    <path fill="#FFE500"
        d="M776.53 521.027a4.76 4.76 0 00-4.6-4.89l-168.16-13.11h-.37a4.69 4.69 0 00-4.35 2.43 4.806 4.806 0 00-.58 2.4 191.091 191.091 0 01-79.31 142.78 2.253 2.253 0 00-.47.34 4.746 4.746 0 00-1.17 1.38 4.69 4.69 0 00.26 5l.19.28 99.73 136 .17.22a4.56 4.56 0 001.58 1.34 4.772 4.772 0 004.74-.2c.111-.074.218-.154.32-.24 88.615-64.297 144.258-164.491 152-273.7" />
    <path fill="#FF7D00"
        d="M712.95 196.547a4.8 4.8 0 00-4.77-.86 4.878 4.878 0 00-1.93 1.35l-116.06 122.4-.26.28a4.72 4.72 0 00-.85 4.91c.228.516.542.99.93 1.4.179.198.377.379.59.54a191.059 191.059 0 0161 151.51 2.81 2.81 0 000 .58c.001.608.113 1.212.33 1.78a4.759 4.759 0 004 2.95h.33l168.47 8.16h.3a4.36 4.36 0 002-.39 4.742 4.742 0 002.83-3.79v-.41c5.839-109.302-36.933-215.595-116.85-290.39" />
    <path fill="red"
        d="M418.06 45.707a4.739 4.739 0 00-3.61 3.22 4.68 4.68 0 00-.13 2.34l24.69 166.87.07.37a4.71 4.71 0 003.34 3.69 4.599 4.599 0 001.67.17c.27-.022.537-.065.8-.13a191.117 191.117 0 01156.82 45.52c.129.142.273.27.43.38.478.382 1.025.67 1.61.85a4.72 4.72 0 004.81-1.38l.22-.24 110.41-127.5.18-.24c.452-.53.777-1.156.95-1.83a4.76 4.76 0 00-1.24-4.57l-.31-.26C636.36 60.88 526.288 28.933 418.09 45.697" />
    <path
        d="M407.72 284.217c-76.95 0-139.55 62.6-139.55 139.55s62.6 139.54 139.55 139.54 139.54-62.6 139.54-139.54-62.6-139.55-139.54-139.55m101.37 218.21c2.13-5.67 2.8-12.29 3.5-17.42a85.734 85.734 0 01-9.08 7.59 79.432 79.432 0 01-29.92 13.62l-27-29.42-.38.28 19.56 34.62a79.451 79.451 0 01-22.4 24.6 86.16 86.16 0 01-10 6.26c5.07.92 11.52 2.33 17.55 2.07a128.408 128.408 0 01-86.4 0c6 .28 12.52-1.14 17.61-2.06a86.962 86.962 0 01-10-6.26 79.672 79.672 0 01-22.41-24.59l19.54-34.69-.37-.27-27 29.43a79.357 79.357 0 01-29.88-13.59 84.426 84.426 0 01-9.1-7.57c.68 5.16 1.35 11.81 3.5 17.5a127.754 127.754 0 01-27-78.74c0-1.41.06-2.8.11-4.19 1.54 6 5 12 7.57 16.7a82.92 82.92 0 012.88-11.47 79.513 79.513 0 0116.58-29l38.6 7.83.15-.44-36.09-16.47a79.698 79.698 0 013.73-32.57 83.31 83.31 0 014.41-11c-4.95 2.37-11.52 5.23-16.36 9.39a128.552 128.552 0 0172.12-52.34c-5.59 3.28-10.44 8.77-14.29 12.82a86.925 86.925 0 0111.78-.8 79.4 79.4 0 0132.49 6.69l4.48 39h.44l4.47-39a79.407 79.407 0 0132.43-6.66c3.95 0 7.896.267 11.81.8-3.87-4-8.71-9.51-14.27-12.8a128.518 128.518 0 0172 52.25c-4.82-4.12-11.35-7-16.27-9.32a87.548 87.548 0 014.41 11 79.383 79.383 0 013.71 32.62l-36 16.46.14.43 38.57-7.92a79.197 79.197 0 0116.54 29 83.35 83.35 0 012.88 11.47c2.52-4.68 6-10.59 7.55-16.58 0 1.35.1 2.71.1 4.07a127.714 127.714 0 01-27 78.66" />
    <path d="M351.36 405.387l21.54 66.32h69.73l21.54-66.32-56.41-40.98z" />
    <g>
        <path
            fill="#fff"
            d="M2.78 930.027v187.2h107.46v-42.5H51.4v-144.7zM199.71 1006.267c-21.64 0-35.51 16.13-35.51 35.92 0 20.79 13.14 37.89 34.06 37.89 20.18 0 36.95-14.9 36.95-36.66 0-22-15.56-37.15-35.5-37.15m-81.45 36.66c0-41.79 30.88-78.69 72.46-78.69 18.21 0 29.65 6.11 43 18.33v-15.38h44.75v150h-45.46v-14.66s-16.3 18.34-44.73 18.34c-41.58 0-70-29.84-70-78M412.71 1117.227H305.24v-187.2h48.63v144.7h58.84zM478.11 1117.217h-45.23v-150h45.23v150zm-49.6-188.19c-.392-15.105 11.536-27.669 26.641-28.06s27.669 11.536 28.061 26.641c.008.306.011.613.008.919.017 15.37-12.429 27.844-27.799 27.86h-.201c-14.83 0-26.74-12-26.74-27.36M573.17 1003.127c-21.15 0-31.62 17.36-31.62 35.93 0 19.3 11.44 35.2 31.38 35.2 22.62 0 34.75-18.09 34.75-35 0-20-11.18-36.18-34.51-36.18m-75.62 36.18c0-40.57 25.78-75 65.18-75 19 0 31.84 6.11 44.71 19.79v-16.82h43.3v132.2c0 46.43-34.79 70.61-76.6 70.61-36.72 0-68.81-18.56-73.65-52.3h50.81c6.29 10.27 12.61 12.21 23.82 12.21 15.8 0 30.37-7.31 30.37-23.68a87.66 87.66 0 00-.23-11.24c-8.76 7.82-25 17.35-42.79 17.35-38.65 0-64.92-32.26-64.92-73.07M751.64 1006.227c-21.65 0-35.5 16.13-35.5 35.92 0 20.79 13.12 37.89 34 37.89 20.18 0 37-14.9 37-36.66 0-22-15.55-37.15-35.49-37.15m-81.46 36.66c0-41.79 30.87-78.69 72.45-78.69 18.23 0 29.67 6.11 43 18.33v-15.38h44.77v150h-45.47v-14.66s-16.29 18.34-44.74 18.34c-41.57 0-70-29.84-70-78" />
    </g>
</svg>
