<svg width="25" height="21" fill="none" xmlns="http://www.w3.org/2000/svg">
    <path fill-rule="evenodd" clip-rule="evenodd"
        d="M5.723.872l-.754.37L.206 7.417l.058 1.232 11.431 12.239h1.392L24.52 8.647l.058-1.23-4.764-6.174-.753-.37H5.723zM.973 7.98h5.638l4.919-6.156H5.723L.973 7.98zm12.258-6.156L18.15 7.98h5.659l-4.75-6.156h-5.828zm9.72 7.108h-4.453l-4.712 9.81 9.164-9.81zm-12 9.762L6.262 8.932h-4.43l9.119 9.762zm1.43-16.408l4.55 5.694H7.83l4.55-5.694zm0 17.185L7.318 8.932h10.123L12.38 19.471z"
        fill="#fff" />
</svg>
