<svg width="148" height="114" viewBox="0 0 148 114" fill="none" xmlns="http://www.w3.org/2000/svg">
  <rect x="48.5436" y="12.9473" width="50" height="88.107" rx="10" fill="white" stroke="#CDCDCD" stroke-width="6" />
  <path
    d="M74 53.6828C77.8942 53.6828 81.0511 50.5259 81.0511 46.6317C81.0511 42.7375 77.8942 39.5806 74 39.5806C70.1058 39.5806 66.9489 42.7375 66.9489 46.6317C66.9489 50.5259 70.1058 53.6828 74 53.6828Z"
    fill="#8F8F8F" />
  <path
    d="M88.1022 65.4346C88.1022 61.5404 84.9453 58.3835 81.0511 58.3835H66.9489C63.0547 58.3835 59.8978 61.5404 59.8978 65.4346L59.8978 74.4212H88.1022L88.1022 65.4346Z"
    fill="#8F8F8F" />
  <path
    d="M62.6588 15.9062H85.5436C85.5436 19.0111 83.0266 21.528 79.9218 21.528H68.2806C65.1758 21.528 62.6588 19.0111 62.6588 15.9062Z"
    fill="#CDCDCD" />
  <path
    d="M81.6192 12.1696L80.104 12.8189V14.4674V23.7837C80.104 30.1171 83.4976 35.9648 88.9965 39.107L95.4472 42.7932L96.6875 43.5019L97.9279 42.7932L104.379 39.107C109.877 35.9648 113.271 30.1171 113.271 23.7837V14.4674V12.8189L111.756 12.1696L97.6723 6.13378L96.6875 5.71172L95.7027 6.13378L81.6192 12.1696Z"
    fill="#294BFF" stroke="white" stroke-width="5" />
  <path fill-rule="evenodd" clip-rule="evenodd"
    d="M104.565 20.7176L94.5627 30.7202L88.8101 24.9676L91.8153 21.9624L94.5627 24.7098L101.56 17.7124L104.565 20.7176Z"
    fill="white" />
</svg>