<svg xmlns="http://www.w3.org/2000/svg" viewBox="60.86 5 88.27 199.67">
    <path
        d="M97.3852 139.629L128.415 5H81.5707C76.0806 5.00551 70.8166 7.18467 66.9343 11.0593C63.0521 14.9339 60.8687 20.1874 60.8633 25.6669V183.972C60.8651 189.455 63.0467 194.714 66.929 198.593C70.8112 202.473 76.077 204.657 81.5707 204.666H128.384C133.883 204.659 139.155 202.477 143.044 198.598C146.934 194.719 149.125 189.46 149.137 183.972V25.6669C149.127 20.1864 146.94 14.9334 143.056 11.0594C139.171 7.18542 133.907 5.00641 128.415 5"
        fill="white"></path>
    <path
        d="M116.797 41.6058L116.846 42.2783C118.274 43.1102 118.996 43.7861 120.437 44.7048C124.258 47.1035 128.964 51.3707 128.37 66.0684C129.44 69.2749 129.912 75.5768 130.902 77.5943C132.893 81.5321 134.222 84.0939 134.802 87.8099C134.802 87.8099 135.376 93.5953 136.123 94.0148C140.075 94.9021 138.932 95.2937 139.509 95.9666C140.124 96.7601 142.402 96.7223 142.402 98.8436C143.158 99.8542 143.771 100.963 144.226 102.14V25.6671C144.223 21.4818 142.557 17.4684 139.593 14.5076C136.629 11.5469 132.609 9.88045 128.415 9.87402H113.279C115.71 10.7337 117.082 11.7528 117.884 13.3682C119.84 13.538 122.163 17.9092 118.544 24.3672C120.145 25.4314 118.891 27.0225 117.746 28.8735C117.398 29.4697 117.05 30.5201 115.97 30.4508C114.581 33.3349 112.935 36.1322 111.681 36.3091C111.303 36.777 111.024 38.018 111.597 38.6004C113.438 39.4254 115.686 40.5555 116.807 41.6093"
        fill="#C8102E"></path>
    <path
        d="M144.226 112.512C143.33 114.759 141.869 116.739 139.986 118.26C138.102 119.782 135.857 120.793 133.468 121.199C131.079 121.604 128.626 121.39 126.344 120.575C124.062 119.761 122.029 118.374 120.439 116.548C118.849 114.723 117.756 112.52 117.266 110.151C116.776 107.783 116.905 105.328 117.64 103.023C118.375 100.718 119.693 98.6411 121.465 96.9918C123.236 95.3417 125.404 94.1747 127.759 93.6026C126.133 89.5399 122.698 82.9537 121.677 80.7768C120.712 78.631 118.384 65.2367 117.884 62.5883C117.77 62.0095 111.795 66.0548 111.785 66.2975C111.438 66.6441 107.301 77.4074 107.127 77.9898C107.063 78.5897 107.032 79.1925 107.034 79.7958C107.034 79.7958 109.066 80.0488 110.236 83.588C111.407 87.1273 114.925 100.026 114.925 100.026C114.925 100.026 113.97 101.01 113.928 100.952C118.384 115.857 116.829 122.256 118.829 126.624C121.344 132.781 122.02 131.973 124.178 137.148C125.723 140.916 127.449 155.749 128.026 156.404C130.433 159.451 131.729 161.829 131.729 163.548C131.729 165.268 129.689 170.384 130.434 173.358C130.885 175.092 131.128 179.033 131.937 179.778C131.937 179.778 132.684 181.252 132.319 181.903C132.212 182.132 132 182.471 132.094 182.742C133.42 187.418 137.706 195.394 130.767 199.571H130.916C134.642 198.993 138.035 197.098 140.479 194.232C142.922 191.365 144.251 187.718 144.226 183.955V112.512Z"
        fill="#C8102E"></path>
    <path
        d="M126.402 180.939C123.859 178.672 125.558 177.716 125.457 176.821C123.779 169.906 118.274 165.729 121.122 163.441C120.427 161.157 118.989 158.29 119.038 158.294C110.462 153.378 103.158 145.395 101.918 144.223C100.414 142.593 97.8506 140.954 97.3678 139.63C95.3087 137.737 85.2112 123.428 82.8432 118.155L78.7411 117.577C76.8928 109.967 70.6416 103.589 70.4921 95.9597C70.4326 93.0758 71.8009 86.8986 72.3116 85.6645C72.8223 84.4305 75.1985 82.361 75.1985 82.361V80.3089C66.2477 80.562 68.8212 79.6502 67.2791 76.1769C66.1955 73.7712 66.9737 73.2443 67.3619 71.577C68.5644 66.6511 72.5512 59.0597 74.205 55.6105C74.7085 53.8773 76.4343 49.6725 76.4343 49.6725C83.1035 36.1153 85.5941 37.1137 93.5162 36.3476L93.9125 35.7998C101.849 35.4532 100.549 34.8604 101.672 27.2274C100.511 27.7231 100.164 24.846 100.164 24.846C99.5323 20.499 101.366 21.324 102.248 21.2374C102.435 14.0965 103.169 11.8468 108.33 9.88135H81.5857C79.5059 9.88089 77.4468 10.2892 75.5264 11.0831C73.6051 11.8769 71.8594 13.0406 70.3885 14.5079C68.9184 15.975 67.752 17.717 66.9566 19.6341C66.1603 21.5513 65.7505 23.6062 65.7505 25.6813V183.973C65.7496 186.048 66.1585 188.104 66.9539 190.022C67.7493 191.94 68.9158 193.684 70.3858 195.152C71.8567 196.621 73.6024 197.785 75.5246 198.58C77.4459 199.374 79.5059 199.783 81.5857 199.783H128.416C123.053 196.892 126.213 191.387 126.402 180.939Z"
        fill="#1D428A"></path>
    <path
        d="M90.439 189.847V161.177H95.9957C99.2195 161.177 101.206 162.91 101.206 166.917V171.17C101.206 173.777 100.41 175.105 99.2925 175.746C100.41 176.509 101.206 177.795 101.206 179.962V184.121C101.206 188.052 99.0943 189.817 95.9957 189.817L90.439 189.847ZM94.2591 177.407V186.235H95.7318C97.0451 186.235 97.4063 185.543 97.4063 184.191V179.337C97.4063 177.951 96.9686 177.413 95.694 177.413L94.2591 177.407ZM94.2591 164.803V174.249H95.694C97.0451 174.249 97.4063 173.763 97.4063 172.2V166.716C97.4063 165.388 97.0037 164.789 95.7318 164.789L94.2591 164.803ZM110.237 184.014H106.763L106.277 189.847H102.418L105.891 161.191H111.382L114.713 189.847H110.699L110.237 184.014ZM108.5 164.387H108.302C108.062 167.853 107.587 173.899 107.426 175.826L106.989 180.762H109.973L109.542 175.826C109.382 173.861 108.826 167.881 108.5 164.387ZM79.0571 189.847H75.7153V161.177H81.009L85.2669 184.648C84.9201 179.029 84.4301 172.245 84.4301 166.463V161.177H87.7746V189.847H82.9123L78.6536 166.886C78.9319 172.186 79.0499 176.404 79.0499 180.817L79.0571 189.847Z"
        fill="white"></path>
</svg>
