<svg width="61" height="14" viewBox="0 0 61 14" fill="none" xmlns="http://www.w3.org/2000/svg">
<g clip-path="url(#clip0_3293_215304)">
<path d="M4.09011 0.875271C4.95444 0.86618 5.80752 1.07163 6.57294 1.47323C6.8996 1.63632 7.21386 1.82314 7.5132 2.03219C7.64787 2.148 7.8039 2.23632 7.9725 2.29217C8.01583 2.29217 8.11983 2.24451 8.34948 1.90653C8.46095 1.74664 8.52741 1.55972 8.54189 1.36534C8.55637 1.17096 8.51835 0.97626 8.4318 0.80161C8.34896 0.609017 8.23637 0.430632 8.09816 0.272981L7.87718 0.034665C7.62586 0.0129999 7.67352 0.0129991 7.37888 0H6.99324C6.08864 0.0141538 5.19596 0.2086 4.36743 0.571959C4.18111 0.654286 3.89513 0.78861 3.76514 0.866605L4.09011 0.875271Z" fill="#F0F1F5"/>
<path d="M4.76172 3.82173L5.77998 3.61374C7.35287 3.28443 7.41353 2.98979 7.41353 2.96379C7.41353 2.93779 7.33987 2.84247 7.22288 2.74714C6.2169 1.96816 4.98112 1.54455 3.7088 1.54256C3.50306 1.54198 3.29752 1.55501 3.09351 1.58156L2.60821 1.66388C1.7848 2.34631 1.13821 3.21734 0.723341 4.20304C0.540692 4.62265 0.395688 5.05766 0.290039 5.50294C1.10031 4.59301 2.69487 4.2377 4.76172 3.82173Z" fill="#F0F1F5"/>
<path d="M9.24627 0.979256C9.3245 1.33629 9.3098 1.70743 9.20359 2.05717C9.09738 2.4069 8.90321 2.72354 8.63965 2.97678L9.33293 3.61807C10.1416 2.97242 11.0009 2.39282 11.9024 1.88486C11.7108 1.67732 11.5037 1.48467 11.2828 1.30857C10.5787 0.793942 9.78095 0.421574 8.93429 0.212311C9.07397 0.451949 9.17901 0.710162 9.24627 0.979256V0.979256Z" fill="#F0F1F5"/>
<path d="M12.4745 2.44815L12.4225 2.47848C11.5486 2.98828 10.7234 3.57715 9.95703 4.23769L10.5767 5.00897C11.0564 4.76425 11.5851 4.63095 12.1235 4.61899C12.475 4.60843 12.8244 4.67737 13.1455 4.82068C13.4666 4.96398 13.7512 5.17794 13.9781 5.4466C13.9082 5.10519 13.8051 4.77141 13.6704 4.45001C13.4117 3.70851 13.0048 3.02741 12.4745 2.44815Z" fill="#F0F1F5"/>
<path d="M6.02255 6.56886C7.1968 5.44227 8.18906 4.53233 8.62237 4.15536L8.01574 3.5574C7.38796 3.96287 6.69446 4.2561 5.96622 4.42401C5.47707 4.56605 4.98102 4.68319 4.48 4.77498C3.44874 4.88331 2.0275 5.16496 1.04391 5.8929C0.757484 6.08707 0.520138 6.34518 0.350625 6.64685L0.146973 7.13648C0.178423 8.65686 0.703063 10.1259 1.64187 11.3222C2.98088 9.63017 4.44524 8.04125 6.02255 6.56886V6.56886Z" fill="#F0F1F5"/>
<path d="M12.1017 11.6775C12.4139 10.4225 12.2599 9.0968 11.6684 7.94677L11.5384 7.71278C11.1354 6.9935 10.6718 6.18323 10.4334 6.18323C10.3771 6.18323 10.0738 6.26556 9.56684 7.91644C9.32171 8.72349 9.12921 9.54561 8.99055 10.3776C8.82955 11.7215 8.27478 12.9879 7.396 14.0173C8.07001 13.9846 8.73701 13.8652 9.38052 13.662C10.3769 13.3396 11.2826 12.7857 12.0237 12.0458L12.1017 11.6775Z" fill="#F0F1F5"/>
<path d="M13.9088 6.50821C13.7624 6.24778 13.563 6.02101 13.3234 5.8426C13.0837 5.6642 12.8093 5.53815 12.5179 5.47262C12.307 5.44046 12.0942 5.42309 11.8809 5.42062C11.3913 5.42062 11.2396 5.54628 11.2006 5.59828C11.1811 5.62377 11.1678 5.65343 11.1616 5.68494C12.1341 6.88492 12.7604 8.32774 12.9728 9.85764V9.85764C13.0172 10.1836 13.0259 10.5134 12.9988 10.8412C13.567 10.0114 13.9335 9.06031 14.0691 8.06377C14.1287 7.67968 14.1548 7.29113 14.1471 6.90252L13.9088 6.50821Z" fill="#F0F1F5"/>
<path d="M6.41672 13.74C7.20966 13.3414 7.71662 12.2408 7.95927 11.3872C8.14406 10.7845 8.27599 10.1669 8.35358 9.54132C8.57484 8.35095 8.96133 7.19732 9.50183 6.1139C9.62473 5.90385 9.77001 5.70772 9.93513 5.52894L9.31118 4.80099C8.5529 5.27763 7.20099 6.36955 4.89582 8.84804C3.52226 10.3213 2.40867 11.6428 2.20068 11.8812C2.99884 12.6973 3.98762 13.3019 5.07781 13.6404C5.41109 13.7598 5.7572 13.8398 6.10907 13.8787L6.41672 13.74Z" fill="#F0F1F5"/>
<path d="M16.2183 0.862273L18.9524 0.85794L23.7577 8.62705L23.7924 8.59239L23.6537 0.853607H26.6912L26.6998 13.2157L23.9484 13.2201L19.208 5.70226L19.1734 5.72393L19.2687 13.2244L16.2313 13.2287L16.2183 0.862273Z" fill="#F0F1F5"/>
<path d="M29.1782 0.84494H33.0043C35.1015 0.84494 36.0764 1.03993 36.982 2.04519C37.4886 2.5993 37.7551 3.33159 37.7229 4.08171C37.7321 4.58902 37.6026 5.0892 37.3483 5.52828C37.094 5.96736 36.7246 6.32866 36.28 6.5732C36.895 6.75232 37.4318 7.13299 37.8043 7.65402C38.1768 8.17505 38.3633 8.80618 38.3339 9.44599C38.3445 9.95096 38.2477 10.4524 38.0497 10.9171C37.8517 11.3817 37.5572 11.799 37.1857 12.1411C36.0461 13.0944 35.2228 13.2114 33.1256 13.2157H29.1782V0.84494ZM32.2113 5.5376H33.3336C33.7669 5.5376 34.6768 5.53761 34.6768 4.55401C34.6768 3.57041 33.8102 3.61808 33.3336 3.61808H32.2113V5.5376ZM32.2113 10.4339H33.7062C34.1092 10.4339 35.2835 10.4339 35.2791 9.24667C35.2791 8.17642 34.2045 8.18075 33.7019 8.18075H32.2113V10.4339Z" fill="#F0F1F5"/>
<path d="M40.21 0.827606H44.27C46.5708 0.827606 47.4288 1.17858 48.1004 1.72888C48.5663 2.13389 48.9371 2.63665 49.1865 3.20136C49.4359 3.76606 49.5578 4.37882 49.5433 4.99597C49.5575 5.59674 49.4495 6.19413 49.2261 6.75198C49.0027 7.30983 48.6684 7.81653 48.2434 8.24141C47.3768 8.96069 46.5492 9.31167 44.621 9.316H43.2561V13.2157H40.223L40.21 0.827606ZM43.2431 6.54287H44.543C45.1453 6.54287 46.5232 6.54287 46.5188 5.05664C46.5145 3.57041 45.1106 3.60074 44.4217 3.60507H43.2517L43.2431 6.54287Z" fill="#F0F1F5"/>
<path d="M52.6373 11.3915L51.9873 13.1811H48.5815L53.5515 0.810272H56.043L60.9913 13.1724H57.5596L56.9529 11.3829L52.6373 11.3915ZM53.5039 8.8827H56.1037L54.8038 4.65367H54.7561L53.5039 8.8827Z" fill="#F0F1F5"/>
</g>
<defs>
<clipPath id="clip0_3293_215304">
<rect width="60.853" height="14" fill="white" transform="translate(0.146973)"/>
</clipPath>
</defs>
</svg>
