<svg fill="none" height="153" viewBox="0 0 1240 153" width="1240" xmlns="http://www.w3.org/2000/svg" xmlns:xlink="http://www.w3.org/1999/xlink"><linearGradient id="a" gradientUnits="userSpaceOnUse" x1="1793" x2="1236" y1="518.117" y2="517.14"><stop offset="0" stop-color="#141414"/><stop offset=".958333" stop-color="#141414" stop-opacity="0"/></linearGradient><clipPath id="b"><rect height="153" rx="32" width="1240"/></clipPath><g clip-path="url(#b)"><rect fill="#141414" height="419" rx="20" width="1240"/><g fill="#fff" fill-opacity=".08"><path d="m913.972-1.05699c-3.785-2.70629-7.903-4.17926-11.646-4.40389-.581-.0349-1.32.04049-1.511-.51006-.291-.59206.483-1.05908.985-1.4881 2.88-2.46435 5.358-6.11326 6.77-10.57326 1.461-4.5607 1.54-9.0309.501-12.7633-.088-.3155-.331-.6322-.215-.9384.065-.17.218-.3114.39-.3695.216-.0729.474.0009.667.1699 3.269 2.3165 7.95 3.7291 13.019 3.7059 4.654-.0339 8.857-1.2574 12.073-3.3345.432-.2786.89-.765 1.352-.5402.036.0175.07.0397.101.0656.432.3581.097 1.0328-.043 1.5759-.966 3.7449-.806 8.1945.721 12.739 1.567 4.6691 4.337 8.50587 7.496 10.90689.183.12328.352.34398.313.6363-.005.03784-.015.07503-.029.11102-.194.4954-.901.39342-1.432.42681-3.885.24421-8.227 1.87444-11.937 4.62943-3.822 2.83908-6.55 6.46796-7.903 10.12435-.101.27206-.14.61342-.361.80143-.158.13467-.365.18357-.56.11037-.052-.0197-.103-.04598-.149-.07766-.267-.17968-.324-.53636-.438-.83678-1.368-3.60472-4.245-7.36496-8.164-10.16725z"/><path d="m1180-1.05906c-3.78-2.70629-7.9-4.17926-11.64-4.4039-.58-.0349-1.32.04049-1.51-.51005-.3-.59206.48-1.05908.98-1.48811 2.88-2.46434 5.36-6.11328 6.77-10.57318 1.46-4.5608 1.54-9.031.5-12.7633-.09-.3155-.33-.6323-.21-.9384.06-.1701.21-.3114.39-.3695.21-.073.47.0008.66.1698 3.27 2.3165 7.95 3.7291 13.02 3.7059 4.66-.0338 8.86-1.2574 12.08-3.3345.43-.2786.89-.7649 1.35-.5402.03.0175.07.0397.1.0656.43.3582.09 1.0328-.05 1.5759-.96 3.7449-.8 8.1945.73 12.739 1.56 4.6691 4.33 8.5059 7.49 10.90691.18.12328.35.34398.32.63631-.01.03784-.02.07503-.03.11102-.2.4954-.9.39342-1.44.4268-3.88.24422-8.22 1.87445-11.93 4.62944-3.82 2.83907-6.55 6.46795-7.91 10.12435-.1.27205-.14.61342-.36.80143-.15.13464-.36.18354-.56.11044-.05-.0197-.1-.04605-.15-.07774-.26-.17968-.32-.53635-.43-.83677-1.37-3.60473-4.25-7.36497-8.17-10.16725z"/><path d="m1047.1-1.05699c-3.78-2.70629-7.9-4.17926-11.65-4.40389-.58-.0349-1.32.04049-1.51-.51006-.29-.59206.49-1.05908.99-1.4881 2.88-2.46435 5.36-6.11326 6.77-10.57326 1.46-4.5607 1.54-9.0309.5-12.7633-.09-.3155-.33-.6322-.22-.9384.07-.17.22-.3114.39-.3695.22-.0729.48.0009.67.1699 3.27 2.3165 7.95 3.7291 13.02 3.7059 4.65-.0339 8.86-1.2574 12.07-3.3345.44-.2786.89-.765 1.36-.5402.03.0175.07.0397.1.0656.43.3581.09 1.0328-.05 1.5759-.96 3.7449-.8 8.1945.72 12.739 1.57 4.6691 4.34 8.50587 7.5 10.90689.18.12328.35.34398.31.6363 0 .03784-.01.07503-.03.11102-.19.4954-.9.39342-1.43.42681-3.88.24421-8.22 1.87444-11.93 4.62943-3.83 2.83908-6.55 6.46796-7.91 10.12435-.1.27206-.14.61342-.36.80143-.16.13467-.36.18357-.56.11037-.05-.0197-.1-.04598-.15-.07766-.26-.17968-.32-.53636-.44-.83678-1.36-3.60472-4.24-7.36496-8.16-10.16725z"/><path d="m869.474-1.05699c-3.785-2.70629-7.903-4.17926-11.646-4.40389-.581-.0349-1.32.04049-1.511-.51006-.291-.59206.483-1.05908.985-1.4881 2.879-2.46435 5.358-6.11326 6.77-10.57326 1.461-4.5607 1.54-9.0309.501-12.7633-.088-.3155-.331-.6322-.215-.9384.065-.17.218-.3114.39-.3695.216-.0729.474.0009.667.1699 3.269 2.3165 7.95 3.7291 13.019 3.7059 4.654-.0339 8.857-1.2574 12.073-3.3345.432-.2786.89-.765 1.352-.5402.036.0175.07.0397.101.0656.432.3581.097 1.0328-.043 1.5759-.966 3.7449-.806 8.1945.721 12.739 1.567 4.6691 4.337 8.50587 7.496 10.90689.183.12328.352.34398.313.6363-.005.03784-.015.07503-.029.11102-.194.4954-.901.39342-1.432.42681-3.885.24421-8.227 1.87444-11.937 4.62943-3.822 2.83908-6.55 6.46796-7.903 10.12435-.101.27206-.14.61342-.361.80143-.158.13467-.365.18357-.56.11037-.052-.0197-.103-.04598-.15-.07766-.266-.17968-.323-.53636-.437-.83678-1.368-3.60472-4.245-7.36496-8.164-10.16725z"/><path d="m1135.5-1.05699c-3.78-2.70629-7.9-4.17926-11.64-4.40389-.58-.0349-1.32.04049-1.51-.51006-.3-.59206.48-1.05908.98-1.4881 2.88-2.46435 5.36-6.11326 6.77-10.57326 1.46-4.5607 1.54-9.0309.5-12.7633-.09-.3155-.33-.6322-.21-.9384.06-.17.21-.3114.39-.3695.21-.0729.47.0009.66.1699 3.27 2.3165 7.95 3.7291 13.02 3.7059 4.66-.0339 8.86-1.2574 12.08-3.3345.43-.2786.89-.765 1.35-.5402.03.0175.07.0397.1.0656.43.3581.09 1.0328-.05 1.5759-.96 3.7449-.8 8.1945.73 12.739 1.56 4.6691 4.33 8.50587 7.49 10.90689.18.12328.35.34398.32.6363-.01.03784-.02.07503-.03.11102-.2.4954-.9.39342-1.44.42681-3.88.24421-8.22 1.87444-11.93 4.62943-3.82 2.83908-6.55 6.46796-7.91 10.12435-.1.27206-.14.61342-.36.80143-.15.13467-.36.18357-.56.11037-.05-.0197-.1-.04598-.15-.07766-.26-.17968-.32-.53636-.43-.83678-1.37-3.60472-4.25-7.36496-8.17-10.16725z"/><path d="m1002.6-1.05699c-3.786-2.70629-7.905-4.17926-11.647-4.40389-.582-.0349-1.321.04049-1.511-.51006-.291-.59206.483-1.05908.984-1.4881 2.88-2.46435 5.359-6.11326 6.771-10.57326 1.46-4.5607 1.539-9.0309.5-12.7633-.088-.3155-.33-.6322-.214-.9384.064-.17.217-.3114.389-.3695.217-.0729.474.0009.668.1699 3.27 2.3165 7.95 3.7291 13.02 3.7059 4.65-.0339 8.86-1.2574 12.07-3.3345.43-.2786.89-.765 1.35-.5402.04.0175.07.0397.1.0656.44.3581.1 1.0328-.04 1.5759-.96 3.7449-.8 8.1945.72 12.739 1.57 4.6691 4.34 8.50587 7.5 10.90689.18.12328.35.34398.31.6363 0 .03784-.01.07503-.03.11102-.19.4954-.9.39342-1.43.42681-3.88.24421-8.23 1.87444-11.94 4.62943-3.82 2.83908-6.55 6.46796-7.9 10.12435-.1.27206-.14.61342-.36.80143-.16.13467-.37.18357-.56.11037-.05-.0197-.1-.04598-.15-.07766-.27-.17968-.32-.53636-.44-.83678-1.37-3.60472-4.24-7.36496-8.16-10.16725z"/><path d="m824.996-1.05699c-3.784-2.70629-7.903-4.17926-11.645-4.40389-.582-.0349-1.321.04049-1.511-.51006-.292-.59206.483-1.05908.984-1.4881 2.88-2.46435 5.359-6.11326 6.77-10.57326 1.461-4.5607 1.54-9.0309.501-12.7633-.088-.3155-.331-.6322-.214-.9384.064-.17.217-.3114.389-.3695.217-.0729.474.0009.668.1699 3.269 2.3165 7.949 3.7291 13.018 3.7059 4.655-.0339 8.857-1.2574 12.074-3.3345.431-.2786.89-.765 1.352-.5402.036.0175.069.0397.101.0656.431.3581.096 1.0328-.044 1.5759-.966 3.7449-.806 8.1945.721 12.739 1.568 4.6691 4.338 8.50587 7.497 10.90689.182.12328.351.34398.313.6363-.005.03784-.015.07503-.029.11102-.194.4954-.902.39342-1.433.42681-3.884.24421-8.227 1.87444-11.936 4.62943-3.823 2.83908-6.55 6.46796-7.903 10.12435-.101.27206-.141.61342-.362.80143-.158.13467-.365.18357-.559.11037-.052-.0197-.103-.04598-.15-.07766-.266-.17968-.323-.53636-.437-.83678-1.369-3.60472-4.246-7.36496-8.165-10.16725z"/><path d="m1091.03-1.05699c-3.79-2.70629-7.9-4.17926-11.65-4.40389-.58-.0349-1.32.04049-1.51-.51006-.29-.59206.49-1.05908.99-1.4881 2.88-2.46435 5.36-6.11326 6.77-10.57326 1.46-4.5607 1.54-9.0309.5-12.7633-.09-.3155-.33-.6322-.22-.9384.07-.17.22-.3114.39-.3695.22-.0729.48.0009.67.1699 3.27 2.3165 7.95 3.7291 13.02 3.7059 4.65-.0339 8.86-1.2574 12.07-3.3345.43-.2786.89-.765 1.35-.5402.04.0175.07.0397.11.0656.43.3581.09 1.0328-.05 1.5759-.96 3.7449-.8 8.1945.72 12.739 1.57 4.6691 4.34 8.50587 7.5 10.90689.18.12328.35.34398.31.6363 0 .03784-.01.07503-.03.11102-.19.4954-.9.39342-1.43.42681-3.88.24421-8.23 1.87444-11.94 4.62943-3.82 2.83908-6.55 6.46796-7.9 10.12435-.1.27206-.14.61342-.36.80143-.16.13467-.36.18357-.56.11037-.05-.0197-.1-.04598-.15-.07766-.27-.17968-.32-.53636-.44-.83678-1.36-3.60472-4.24-7.36496-8.16-10.16725z"/><path d="m958.125-1.05699c-3.785-2.70629-7.903-4.17926-11.646-4.40389-.581-.0349-1.32.04049-1.511-.51006-.291-.59206.483-1.05908.985-1.4881 2.879-2.46435 5.358-6.11326 6.77-10.57326 1.461-4.5607 1.539-9.0309.501-12.7633-.088-.3155-.331-.6322-.215-.9384.064-.17.217-.3114.39-.3695.216-.0729.474.0009.667.1699 3.269 2.3165 7.95 3.7291 13.018 3.7059 4.655-.0339 8.857-1.2574 12.074-3.3345.432-.2786.89-.765 1.352-.5402.036.0175.07.0397.101.0656.432.3581.097 1.0328-.044 1.5759-.966 3.7449-.806 8.1945.722 12.739 1.567 4.6691 4.337 8.50587 7.496 10.90689.182.12328.352.34398.313.6363-.005.03784-.015.07503-.029.11102-.194.4954-.901.39342-1.432.42681-3.885.24421-8.228 1.87444-11.937 4.62943-3.822 2.83908-6.55 6.46796-7.903 10.12435-.101.27206-.14.61342-.361.80143-.158.13467-.365.18357-.56.11037-.052-.0197-.103-.04598-.15-.07766-.266-.17968-.323-.53636-.437-.83678-1.368-3.60472-4.245-7.36496-8.164-10.16725z"/><path d="m1224.16-1.05906c-3.79-2.70629-7.91-4.17926-11.65-4.4039-.58-.0349-1.32.04049-1.51-.51005-.29-.59206.48-1.05908.98-1.48811 2.88-2.46434 5.36-6.11328 6.77-10.57318 1.46-4.5608 1.54-9.031.5-12.7633-.08-.3155-.33-.6323-.21-.9384.06-.1701.22-.3114.39-.3695.22-.073.47.0008.67.1698 3.27 2.3165 7.95 3.7291 13.02 3.7059 4.65-.0338 8.85-1.2574 12.07-3.3345.43-.2786.89-.7649 1.35-.5402.04.0175.07.0397.1.0656.43.3582.1 1.0328-.04 1.5759-.97 3.7449-.81 8.1945.72 12.739 1.57 4.6691 4.34 8.5059 7.5 10.90691.18.12328.35.34398.31.63631-.01.03784-.02.07503-.03.11102-.19.4954-.9.39342-1.43.4268-3.89.24422-8.23 1.87445-11.94 4.62944-3.82 2.83907-6.55 6.46795-7.9 10.12435-.1.27205-.14.61342-.36.80143-.16.13464-.37.18354-.56.11044-.06-.0197-.11-.04605-.15-.07774-.27-.17968-.33-.53635-.44-.83677-1.37-3.60473-4.25-7.36497-8.16-10.16725z"/><path d="m913.972 140.499c-3.785-2.707-7.903-4.18-11.646-4.404-.581-.035-1.32.04-1.511-.51-.291-.592.483-1.059.985-1.488 2.88-2.465 5.358-6.114 6.77-10.574 1.461-4.56 1.54-9.031.501-12.763-.088-.315-.331-.632-.215-.938.065-.17.218-.312.39-.37.216-.073.474.001.667.17 3.269 2.316 7.95 3.729 13.019 3.706 4.654-.034 8.857-1.258 12.073-3.335.432-.278.89-.765 1.352-.54.036.018.07.04.101.066.432.358.097 1.033-.043 1.576-.966 3.745-.806 8.194.721 12.739 1.567 4.669 4.337 8.506 7.496 10.907.183.123.352.344.313.636-.005.038-.015.075-.029.111-.194.495-.901.393-1.432.427-3.885.244-8.227 1.874-11.937 4.629-3.822 2.839-6.55 6.468-7.903 10.125-.101.272-.14.613-.361.801-.158.135-.365.184-.56.11-.052-.019-.103-.046-.149-.077-.267-.18-.324-.537-.438-.837-1.368-3.605-4.245-7.365-8.164-10.167z"/><path d="m1180 140.497c-3.78-2.707-7.9-4.18-11.64-4.404-.58-.035-1.32.04-1.51-.51-.3-.592.48-1.059.98-1.488 2.88-2.465 5.36-6.114 6.77-10.574 1.46-4.56 1.54-9.031.5-12.763-.09-.315-.33-.632-.21-.938.06-.17.21-.312.39-.37.21-.073.47.001.66.17 3.27 2.317 7.95 3.729 13.02 3.706 4.66-.034 8.86-1.257 12.08-3.335.43-.278.89-.765 1.35-.54.03.018.07.04.1.066.43.358.09 1.033-.05 1.576-.96 3.745-.8 8.194.73 12.739 1.56 4.669 4.33 8.506 7.49 10.907.18.123.35.344.32.636-.01.038-.02.075-.03.111-.2.495-.9.393-1.44.427-3.88.244-8.22 1.874-11.93 4.629-3.82 2.839-6.55 6.468-7.91 10.125-.1.272-.14.613-.36.801-.15.135-.36.184-.56.11-.05-.019-.1-.046-.15-.077-.26-.18-.32-.537-.43-.837-1.37-3.605-4.25-7.365-8.17-10.167z"/><path d="m1047.1 140.499c-3.78-2.707-7.9-4.18-11.65-4.404-.58-.035-1.32.04-1.51-.51-.29-.592.49-1.059.99-1.488 2.88-2.465 5.36-6.114 6.77-10.574 1.46-4.56 1.54-9.031.5-12.763-.09-.315-.33-.632-.22-.938.07-.17.22-.312.39-.37.22-.073.48.001.67.17 3.27 2.316 7.95 3.729 13.02 3.706 4.65-.034 8.86-1.258 12.07-3.335.44-.278.89-.765 1.36-.54.03.018.07.04.1.066.43.358.09 1.033-.05 1.576-.96 3.745-.8 8.194.72 12.739 1.57 4.669 4.34 8.506 7.5 10.907.18.123.35.344.31.636 0 .038-.01.075-.03.111-.19.495-.9.393-1.43.427-3.88.244-8.22 1.874-11.93 4.629-3.83 2.839-6.55 6.468-7.91 10.125-.1.272-.14.613-.36.801-.16.135-.36.184-.56.11-.05-.019-.1-.046-.15-.077-.26-.18-.32-.537-.44-.837-1.36-3.605-4.24-7.365-8.16-10.167z"/><path d="m869.474 140.499c-3.785-2.707-7.903-4.18-11.646-4.404-.581-.035-1.32.04-1.511-.51-.291-.592.483-1.059.985-1.488 2.879-2.465 5.358-6.114 6.77-10.574 1.461-4.56 1.54-9.031.501-12.763-.088-.315-.331-.632-.215-.938.065-.17.218-.312.39-.37.216-.073.474.001.667.17 3.269 2.316 7.95 3.729 13.019 3.706 4.654-.034 8.857-1.258 12.073-3.335.432-.278.89-.765 1.352-.54.036.018.07.04.101.066.432.358.097 1.033-.043 1.576-.966 3.745-.806 8.194.721 12.739 1.567 4.669 4.337 8.506 7.496 10.907.183.123.352.344.313.636-.005.038-.015.075-.029.111-.194.495-.901.393-1.432.427-3.885.244-8.227 1.874-11.937 4.629-3.822 2.839-6.55 6.468-7.903 10.125-.101.272-.14.613-.361.801-.158.135-.365.184-.56.11-.052-.019-.103-.046-.15-.077-.266-.18-.323-.537-.437-.837-1.368-3.605-4.245-7.365-8.164-10.167z"/><path d="m1135.5 140.499c-3.78-2.707-7.9-4.18-11.64-4.404-.58-.035-1.32.04-1.51-.51-.3-.592.48-1.059.98-1.488 2.88-2.465 5.36-6.114 6.77-10.574 1.46-4.56 1.54-9.031.5-12.763-.09-.315-.33-.632-.21-.938.06-.17.21-.312.39-.37.21-.073.47.001.66.17 3.27 2.316 7.95 3.729 13.02 3.706 4.66-.034 8.86-1.258 12.08-3.335.43-.278.89-.765 1.35-.54.03.018.07.04.1.066.43.358.09 1.033-.05 1.576-.96 3.745-.8 8.194.73 12.739 1.56 4.669 4.33 8.506 7.49 10.907.18.123.35.344.32.636-.01.038-.02.075-.03.111-.2.495-.9.393-1.44.427-3.88.244-8.22 1.874-11.93 4.629-3.82 2.839-6.55 6.468-7.91 10.125-.1.272-.14.613-.36.801-.15.135-.36.184-.56.11-.05-.019-.1-.046-.15-.077-.26-.18-.32-.537-.43-.837-1.37-3.605-4.25-7.365-8.17-10.167z"/><path d="m1002.6 140.499c-3.786-2.707-7.905-4.18-11.647-4.404-.582-.035-1.321.04-1.511-.51-.291-.592.483-1.059.984-1.488 2.88-2.465 5.359-6.114 6.771-10.574 1.46-4.56 1.539-9.031.5-12.763-.088-.315-.33-.632-.214-.938.064-.17.217-.312.389-.37.217-.073.474.001.668.17 3.27 2.316 7.95 3.729 13.02 3.706 4.65-.034 8.86-1.258 12.07-3.335.43-.278.89-.765 1.35-.54.04.018.07.04.1.066.44.358.1 1.033-.04 1.576-.96 3.745-.8 8.194.72 12.739 1.57 4.669 4.34 8.506 7.5 10.907.18.123.35.344.31.636 0 .038-.01.075-.03.111-.19.495-.9.393-1.43.427-3.88.244-8.23 1.874-11.94 4.629-3.82 2.839-6.55 6.468-7.9 10.125-.1.272-.14.613-.36.801-.16.135-.37.184-.56.11-.05-.019-.1-.046-.15-.077-.27-.18-.32-.537-.44-.837-1.37-3.605-4.24-7.365-8.16-10.167z"/><path d="m824.996 140.499c-3.784-2.707-7.903-4.18-11.645-4.404-.582-.035-1.321.04-1.511-.51-.292-.592.483-1.059.984-1.488 2.88-2.465 5.359-6.114 6.77-10.574 1.461-4.56 1.54-9.031.501-12.763-.088-.315-.331-.632-.214-.938.064-.17.217-.312.389-.37.217-.073.474.001.668.17 3.269 2.316 7.949 3.729 13.018 3.706 4.655-.034 8.857-1.258 12.074-3.335.431-.278.89-.765 1.352-.54.036.018.069.04.101.066.431.358.096 1.033-.044 1.576-.966 3.745-.806 8.194.721 12.739 1.568 4.669 4.338 8.506 7.497 10.907.182.123.351.344.313.636-.005.038-.015.075-.029.111-.194.495-.902.393-1.433.427-3.884.244-8.227 1.874-11.936 4.629-3.823 2.839-6.55 6.468-7.903 10.125-.101.272-.141.613-.362.801-.158.135-.365.184-.559.11-.052-.019-.103-.046-.15-.077-.266-.18-.323-.537-.437-.837-1.369-3.605-4.246-7.365-8.165-10.167z"/><path d="m1091.03 140.499c-3.79-2.707-7.9-4.18-11.65-4.404-.58-.035-1.32.04-1.51-.51-.29-.592.49-1.059.99-1.488 2.88-2.465 5.36-6.114 6.77-10.574 1.46-4.56 1.54-9.031.5-12.763-.09-.315-.33-.632-.22-.938.07-.17.22-.312.39-.37.22-.073.48.001.67.17 3.27 2.316 7.95 3.729 13.02 3.706 4.65-.034 8.86-1.258 12.07-3.335.43-.278.89-.765 1.35-.54.04.018.07.04.11.066.43.358.09 1.033-.05 1.576-.96 3.745-.8 8.194.72 12.739 1.57 4.669 4.34 8.506 7.5 10.907.18.123.35.344.31.636 0 .038-.01.075-.03.111-.19.495-.9.393-1.43.427-3.88.244-8.23 1.874-11.94 4.629-3.82 2.839-6.55 6.468-7.9 10.125-.1.272-.14.613-.36.801-.16.135-.36.184-.56.11-.05-.019-.1-.046-.15-.077-.27-.18-.32-.537-.44-.837-1.36-3.605-4.24-7.365-8.16-10.167z"/><path d="m958.125 140.499c-3.785-2.707-7.903-4.18-11.646-4.404-.581-.035-1.32.04-1.511-.51-.291-.592.483-1.059.985-1.488 2.879-2.465 5.358-6.114 6.77-10.574 1.461-4.56 1.539-9.031.501-12.763-.088-.315-.331-.632-.215-.938.064-.17.217-.312.39-.37.216-.073.474.001.667.17 3.269 2.316 7.95 3.729 13.018 3.706 4.655-.034 8.857-1.258 12.074-3.335.432-.278.89-.765 1.352-.54.036.018.07.04.101.066.432.358.097 1.033-.044 1.576-.966 3.745-.806 8.194.722 12.739 1.567 4.669 4.337 8.506 7.496 10.907.182.123.352.344.313.636-.005.038-.015.075-.029.111-.194.495-.901.393-1.432.427-3.885.244-8.228 1.874-11.937 4.629-3.822 2.839-6.55 6.468-7.903 10.125-.101.272-.14.613-.361.801-.158.135-.365.184-.56.11-.052-.019-.103-.046-.15-.077-.266-.18-.323-.537-.437-.837-1.368-3.605-4.245-7.365-8.164-10.167z"/><path d="m1224.16 140.497c-3.79-2.707-7.91-4.18-11.65-4.404-.58-.035-1.32.04-1.51-.51-.29-.592.48-1.059.98-1.488 2.88-2.465 5.36-6.114 6.77-10.574 1.46-4.56 1.54-9.031.5-12.763-.08-.315-.33-.632-.21-.938.06-.17.22-.312.39-.37.22-.073.47.001.67.17 3.27 2.317 7.95 3.729 13.02 3.706 4.65-.034 8.85-1.257 12.07-3.335.43-.278.89-.765 1.35-.54.04.018.07.04.1.066.43.358.1 1.033-.04 1.576-.97 3.745-.81 8.194.72 12.739 1.57 4.669 4.34 8.506 7.5 10.907.18.123.35.344.31.636-.01.038-.02.075-.03.111-.19.495-.9.393-1.43.427-3.89.244-8.23 1.874-11.94 4.629-3.82 2.839-6.55 6.468-7.9 10.125-.1.272-.14.613-.36.801-.16.135-.37.184-.56.11-.06-.019-.11-.046-.15-.077-.27-.18-.33-.537-.44-.837-1.37-3.605-4.25-7.365-8.16-10.167z"/><path d="m913.972 68.277c-3.785-2.7063-7.903-4.1793-11.646-4.4039-.581-.0349-1.32.0405-1.511-.5101-.291-.592.483-1.059.985-1.4881 2.88-2.4643 5.358-6.1132 6.77-10.5732 1.461-4.5607 1.54-9.0309.501-12.7633-.088-.3155-.331-.6322-.215-.9384.065-.17.218-.3114.39-.3695.216-.0729.474.0009.667.1699 3.269 2.3165 7.95 3.729 13.019 3.7058 4.654-.0338 8.857-1.2574 12.073-3.3344.432-.2787.89-.765 1.352-.5403.036.0176.07.0397.101.0656.432.3582.097 1.0329-.043 1.576-.966 3.7449-.806 8.1945.721 12.7389 1.567 4.6691 4.337 8.506 7.496 10.907.183.1233.352.344.313.6363-.005.0378-.015.075-.029.111-.194.4954-.901.3934-1.432.4268-3.885.2442-8.227 1.8744-11.937 4.6294-3.822 2.8391-6.55 6.468-7.903 10.1244-.101.272-.14.6134-.361.8014-.158.1347-.365.1836-.56.1104-.052-.0197-.103-.046-.149-.0777-.267-.1797-.324-.5363-.438-.8368-1.368-3.6047-4.245-7.3649-8.164-10.1672z"/><path d="m1180 68.2749c-3.78-2.7063-7.9-4.1792-11.64-4.4039-.58-.0349-1.32.0405-1.51-.51-.3-.5921.48-1.0591.98-1.4881 2.88-2.4644 5.36-6.1133 6.77-10.5732 1.46-4.5608 1.54-9.031.5-12.7634-.09-.3154-.33-.6322-.21-.9384.06-.17.21-.3113.39-.3695.21-.0729.47.0009.66.1699 3.27 2.3165 7.95 3.7291 13.02 3.7059 4.66-.0339 8.86-1.2574 12.08-3.3345.43-.2786.89-.765 1.35-.5402.03.0175.07.0397.1.0656.43.3582.09 1.0328-.05 1.5759-.96 3.7449-.8 8.1945.73 12.739 1.56 4.6691 4.33 8.5059 7.49 10.9069.18.1233.35.344.32.6363-.01.0378-.02.075-.03.111-.2.4954-.9.3934-1.44.4268-3.88.2442-8.22 1.8745-11.93 4.6295-3.82 2.839-6.55 6.4679-7.91 10.1243-.1.2721-.14.6134-.36.8014-.15.1347-.36.1836-.56.1105-.05-.0198-.1-.0461-.15-.0778-.26-.1796-.32-.5363-.43-.8367-1.37-3.6048-4.25-7.365-8.17-10.1673z"/><path d="m1047.1 68.277c-3.78-2.7063-7.9-4.1793-11.65-4.4039-.58-.0349-1.32.0405-1.51-.5101-.29-.592.49-1.059.99-1.4881 2.88-2.4643 5.36-6.1132 6.77-10.5732 1.46-4.5607 1.54-9.0309.5-12.7633-.09-.3155-.33-.6322-.22-.9384.07-.17.22-.3114.39-.3695.22-.0729.48.0009.67.1699 3.27 2.3165 7.95 3.729 13.02 3.7058 4.65-.0338 8.86-1.2574 12.07-3.3344.44-.2787.89-.765 1.36-.5403.03.0176.07.0397.1.0656.43.3582.09 1.0329-.05 1.576-.96 3.7449-.8 8.1945.72 12.7389 1.57 4.6691 4.34 8.506 7.5 10.907.18.1233.35.344.31.6363 0 .0378-.01.075-.03.111-.19.4954-.9.3934-1.43.4268-3.88.2442-8.22 1.8744-11.93 4.6294-3.83 2.8391-6.55 6.468-7.91 10.1244-.1.272-.14.6134-.36.8014-.16.1347-.36.1836-.56.1104-.05-.0197-.1-.046-.15-.0777-.26-.1797-.32-.5363-.44-.8368-1.36-3.6047-4.24-7.3649-8.16-10.1672z"/><path d="m869.474 68.277c-3.785-2.7063-7.903-4.1793-11.646-4.4039-.581-.0349-1.32.0405-1.511-.5101-.291-.592.483-1.059.985-1.4881 2.879-2.4643 5.358-6.1132 6.77-10.5732 1.461-4.5607 1.54-9.0309.501-12.7633-.088-.3155-.331-.6322-.215-.9384.065-.17.218-.3114.39-.3695.216-.0729.474.0009.667.1699 3.269 2.3165 7.95 3.729 13.019 3.7058 4.654-.0338 8.857-1.2574 12.073-3.3344.432-.2787.89-.765 1.352-.5403.036.0176.07.0397.101.0656.432.3582.097 1.0329-.043 1.576-.966 3.7449-.806 8.1945.721 12.7389 1.567 4.6691 4.337 8.506 7.496 10.907.183.1233.352.344.313.6363-.005.0378-.015.075-.029.111-.194.4954-.901.3934-1.432.4268-3.885.2442-8.227 1.8744-11.937 4.6294-3.822 2.8391-6.55 6.468-7.903 10.1244-.101.272-.14.6134-.361.8014-.158.1347-.365.1836-.56.1104-.052-.0197-.103-.046-.15-.0777-.266-.1797-.323-.5363-.437-.8368-1.368-3.6047-4.245-7.3649-8.164-10.1672z"/><path d="m1135.5 68.277c-3.78-2.7063-7.9-4.1793-11.64-4.4039-.58-.0349-1.32.0405-1.51-.5101-.3-.592.48-1.059.98-1.4881 2.88-2.4643 5.36-6.1132 6.77-10.5732 1.46-4.5607 1.54-9.0309.5-12.7633-.09-.3155-.33-.6322-.21-.9384.06-.17.21-.3114.39-.3695.21-.0729.47.0009.66.1699 3.27 2.3165 7.95 3.729 13.02 3.7058 4.66-.0338 8.86-1.2574 12.08-3.3344.43-.2787.89-.765 1.35-.5403.03.0176.07.0397.1.0656.43.3582.09 1.0329-.05 1.576-.96 3.7449-.8 8.1945.73 12.7389 1.56 4.6691 4.33 8.506 7.49 10.907.18.1233.35.344.32.6363-.01.0378-.02.075-.03.111-.2.4954-.9.3934-1.44.4268-3.88.2442-8.22 1.8744-11.93 4.6294-3.82 2.8391-6.55 6.468-7.91 10.1244-.1.272-.14.6134-.36.8014-.15.1347-.36.1836-.56.1104-.05-.0197-.1-.046-.15-.0777-.26-.1797-.32-.5363-.43-.8368-1.37-3.6047-4.25-7.3649-8.17-10.1672z"/><path d="m1002.6 68.277c-3.786-2.7063-7.905-4.1793-11.647-4.4039-.582-.0349-1.321.0405-1.511-.5101-.291-.592.483-1.059.984-1.4881 2.88-2.4643 5.359-6.1132 6.771-10.5732 1.46-4.5607 1.539-9.0309.5-12.7633-.088-.3155-.33-.6322-.214-.9384.064-.17.217-.3114.389-.3695.217-.0729.474.0009.668.1699 3.27 2.3165 7.95 3.729 13.02 3.7058 4.65-.0338 8.86-1.2574 12.07-3.3344.43-.2787.89-.765 1.35-.5403.04.0176.07.0397.1.0656.44.3582.1 1.0329-.04 1.576-.96 3.7449-.8 8.1945.72 12.7389 1.57 4.6691 4.34 8.506 7.5 10.907.18.1233.35.344.31.6363 0 .0378-.01.075-.03.111-.19.4954-.9.3934-1.43.4268-3.88.2442-8.23 1.8744-11.94 4.6294-3.82 2.8391-6.55 6.468-7.9 10.1244-.1.272-.14.6134-.36.8014-.16.1347-.37.1836-.56.1104-.05-.0197-.1-.046-.15-.0777-.27-.1797-.32-.5363-.44-.8368-1.37-3.6047-4.24-7.3649-8.16-10.1672z"/><path d="m824.996 68.277c-3.784-2.7063-7.903-4.1793-11.645-4.4039-.582-.0349-1.321.0405-1.511-.5101-.292-.592.483-1.059.984-1.4881 2.88-2.4643 5.359-6.1132 6.77-10.5732 1.461-4.5607 1.54-9.0309.501-12.7633-.088-.3155-.331-.6322-.214-.9384.064-.17.217-.3114.389-.3695.217-.0729.474.0009.668.1699 3.269 2.3165 7.949 3.729 13.018 3.7058 4.655-.0338 8.857-1.2574 12.074-3.3344.431-.2787.89-.765 1.352-.5403.036.0176.069.0397.101.0656.431.3582.096 1.0329-.044 1.576-.966 3.7449-.806 8.1945.721 12.7389 1.568 4.6691 4.338 8.506 7.497 10.907.182.1233.351.344.313.6363-.005.0378-.015.075-.029.111-.194.4954-.902.3934-1.433.4268-3.884.2442-8.227 1.8744-11.936 4.6294-3.823 2.8391-6.55 6.468-7.903 10.1244-.101.272-.141.6134-.362.8014-.158.1347-.365.1836-.559.1104-.052-.0197-.103-.046-.15-.0777-.266-.1797-.323-.5363-.437-.8368-1.369-3.6047-4.246-7.3649-8.165-10.1672z"/><path d="m1091.03 68.277c-3.79-2.7063-7.9-4.1793-11.65-4.4039-.58-.0349-1.32.0405-1.51-.5101-.29-.592.49-1.059.99-1.4881 2.88-2.4643 5.36-6.1132 6.77-10.5732 1.46-4.5607 1.54-9.0309.5-12.7633-.09-.3155-.33-.6322-.22-.9384.07-.17.22-.3114.39-.3695.22-.0729.48.0009.67.1699 3.27 2.3165 7.95 3.729 13.02 3.7058 4.65-.0338 8.86-1.2574 12.07-3.3344.43-.2787.89-.765 1.35-.5403.04.0176.07.0397.11.0656.43.3582.09 1.0329-.05 1.576-.96 3.7449-.8 8.1945.72 12.7389 1.57 4.6691 4.34 8.506 7.5 10.907.18.1233.35.344.31.6363 0 .0378-.01.075-.03.111-.19.4954-.9.3934-1.43.4268-3.88.2442-8.23 1.8744-11.94 4.6294-3.82 2.8391-6.55 6.468-7.9 10.1244-.1.272-.14.6134-.36.8014-.16.1347-.36.1836-.56.1104-.05-.0197-.1-.046-.15-.0777-.27-.1797-.32-.5363-.44-.8368-1.36-3.6047-4.24-7.3649-8.16-10.1672z"/><path d="m958.125 68.277c-3.785-2.7063-7.903-4.1793-11.646-4.4039-.581-.0349-1.32.0405-1.511-.5101-.291-.592.483-1.059.985-1.4881 2.879-2.4643 5.358-6.1132 6.77-10.5732 1.461-4.5607 1.539-9.0309.501-12.7633-.088-.3155-.331-.6322-.215-.9384.064-.17.217-.3114.39-.3695.216-.0729.474.0009.667.1699 3.269 2.3165 7.95 3.729 13.018 3.7058 4.655-.0338 8.857-1.2574 12.074-3.3344.432-.2787.89-.765 1.352-.5403.036.0176.07.0397.101.0656.432.3582.097 1.0329-.044 1.576-.966 3.7449-.806 8.1945.722 12.7389 1.567 4.6691 4.337 8.506 7.496 10.907.182.1233.352.344.313.6363-.005.0378-.015.075-.029.111-.194.4954-.901.3934-1.432.4268-3.885.2442-8.228 1.8744-11.937 4.6294-3.822 2.8391-6.55 6.468-7.903 10.1244-.101.272-.14.6134-.361.8014-.158.1347-.365.1836-.56.1104-.052-.0197-.103-.046-.15-.0777-.266-.1797-.323-.5363-.437-.8368-1.368-3.6047-4.245-7.3649-8.164-10.1672z"/><path d="m1224.16 68.2749c-3.79-2.7063-7.91-4.1792-11.65-4.4039-.58-.0349-1.32.0405-1.51-.51-.29-.5921.48-1.0591.98-1.4881 2.88-2.4644 5.36-6.1133 6.77-10.5732 1.46-4.5608 1.54-9.031.5-12.7634-.08-.3154-.33-.6322-.21-.9384.06-.17.22-.3113.39-.3695.22-.0729.47.0009.67.1699 3.27 2.3165 7.95 3.7291 13.02 3.7059 4.65-.0339 8.85-1.2574 12.07-3.3345.43-.2786.89-.765 1.35-.5402.04.0175.07.0397.1.0656.43.3582.1 1.0328-.04 1.5759-.97 3.7449-.81 8.1945.72 12.739 1.57 4.6691 4.34 8.5059 7.5 10.9069.18.1233.35.344.31.6363-.01.0378-.02.075-.03.111-.19.4954-.9.3934-1.43.4268-3.89.2442-8.23 1.8745-11.94 4.6295-3.82 2.839-6.55 6.4679-7.9 10.1243-.1.2721-.14.6134-.36.8014-.16.1347-.37.1836-.56.1105-.06-.0198-.11-.0461-.15-.0778-.27-.1796-.33-.5363-.44-.8367-1.37-3.6048-4.25-7.365-8.16-10.1673z"/><path d="m905.359 6.81505c3.785 2.70629 7.903 4.17925 11.646 4.40385.581.0349 1.32-.0404 1.511.5101.291.5921-.483 1.0591-.985 1.4881-2.879 2.4643-5.358 6.1132-6.77 10.5732-1.461 4.5608-1.54 9.0309-.501 12.7633.088.3155.331.6322.215.9384-.065.1701-.218.3114-.39.3695-.216.073-.474-.0008-.667-.1698-3.269-2.3165-7.95-3.7291-13.019-3.7059-4.654.0338-8.857 1.2574-12.073 3.3344-.432.2787-.89.765-1.352.5403-.036-.0175-.07-.0397-.101-.0656-.432-.3582-.097-1.0328.043-1.5759.966-3.7449.806-8.1945-.721-12.739-1.567-4.6691-4.337-8.5059-7.496-10.9069-.183-.1233-.352-.344-.313-.6363.005-.0379.015-.0751.029-.1111.194-.4954.901-.3934 1.432-.4268 3.885-.2442 8.227-1.8744 11.937-4.62939 3.822-2.83908 6.55-6.467959 7.903-10.12435.101-.27206.14-.61342.361-.80143.158-.13469.365-.18358.56-.11042.052.01971.103.04603.15.07771.266.17968.323.53635.437.83678 1.368 3.604719 4.245 7.36496 8.164 10.16725z"/><path d="m949.859 6.81505c3.784 2.70629 7.903 4.17925 11.645 4.40385.582.0349 1.321-.0404 1.511.5101.292.5921-.483 1.0591-.984 1.4881-2.88 2.4643-5.359 6.1132-6.771 10.5732-1.46 4.5608-1.539 9.0309-.5 12.7633.088.3155.33.6322.214.9384-.064.1701-.217.3114-.389.3695-.217.073-.474-.0008-.668-.1698-3.269-2.3165-7.949-3.7291-13.018-3.7059-4.655.0338-8.857 1.2574-12.074 3.3344-.431.2787-.89.765-1.352.5403-.036-.0175-.07-.0397-.101-.0656-.431-.3582-.096-1.0328.044-1.5759.966-3.7449.806-8.1945-.721-12.739-1.568-4.6691-4.338-8.5059-7.497-10.9069-.182-.1233-.351-.344-.313-.6363.005-.0379.015-.0751.029-.1111.194-.4954.902-.3934 1.433-.4268 3.884-.2442 8.227-1.8744 11.936-4.62939 3.823-2.83908 6.55-6.467959 7.903-10.12435.101-.27206.141-.61342.362-.80143.158-.13469.365-.18358.559-.11042.052.01971.103.04603.15.07771.266.17968.323.53635.437.83678 1.369 3.604719 4.246 7.36496 8.165 10.16725z"/><path d="m994.332 6.81505c3.785 2.70629 7.908 4.17925 11.648 4.40385.58.0349 1.32-.0404 1.51.5101.29.5921-.48 1.0591-.99 1.4881-2.88 2.4643-5.35 6.1132-6.766 10.5732-1.461 4.5608-1.539 9.0309-.501 12.7633.088.3155.331.6322.215.9384-.064.1701-.217.3114-.39.3695-.216.073-.474-.0008-.667-.1698-3.269-2.3165-7.949-3.7291-13.018-3.7059-4.655.0338-8.857 1.2574-12.074 3.3344-.432.2787-.89.765-1.352.5403-.036-.0175-.07-.0397-.101-.0656-.432-.3582-.097-1.0328.044-1.5759.966-3.7449.806-8.1945-.722-12.739-1.567-4.6691-4.337-8.5059-7.496-10.9069-.182-.1233-.352-.344-.313-.6363.005-.0379.015-.0751.029-.1111.194-.4954.901-.3934 1.432-.4268 3.885-.2442 8.228-1.8744 11.937-4.62939 3.822-2.83908 6.55-6.467959 7.903-10.12435.101-.27206.14-.61342.361-.80143.158-.13469.365-.18358.56-.11042.052.01971.103.04603.15.07771.266.17968.323.53635.437.83678 1.368 3.604719 4.245 7.36496 8.164 10.16725z"/><path d="m861.206 6.81297c3.784 2.70629 7.903 4.17923 11.645 4.40393.582.0349 1.321-.0405 1.511.51.292.5921-.483 1.0591-.984 1.4881-2.88 2.4644-5.359 6.1133-6.77 10.5732-1.461 4.5608-1.54 9.031-.501 12.7634.088.3154.331.6322.215.9384-.065.17-.218.3113-.39.3694-.217.073-.474-.0008-.667-.1698-3.27-2.3165-7.95-3.7291-13.019-3.7059-4.654.0339-8.857 1.2574-12.074 3.3345-.431.2786-.89.7649-1.352.5402-.036-.0175-.069-.0397-.101-.0656-.431-.3582-.096-1.0328.044-1.5759.966-3.7449.806-8.1945-.721-12.739-1.568-4.6691-4.338-8.5059-7.497-10.9069-.182-.1233-.351-.344-.313-.6363.005-.0379.015-.075.029-.111.195-.4954.902-.3935 1.433-.4268 3.884-.2442 8.227-1.87448 11.936-4.62947 3.823-2.83907 6.55-6.467954 7.904-10.12435.1-.27206.14-.61342.361-.80143.158-.13468.365-.18358.559-.11041.053.0197.103.04602.15.07771.267.17968.323.53635.437.83677 1.369 3.604723 4.246 7.36497 8.165 10.16725z"/><path d="m1176.66 6.81505c3.79 2.70629 7.91 4.17925 11.65 4.40385.58.0349 1.32-.0404 1.51.5101.29.5921-.48 1.0591-.98 1.4881-2.88 2.4643-5.36 6.1132-6.77 10.5732-1.47 4.5608-1.54 9.0309-.51 12.7633.09.3155.34.6322.22.9384-.07.1701-.22.3114-.39.3695-.22.073-.47-.0008-.67-.1698-3.27-2.3165-7.95-3.7291-13.02-3.7059-4.65.0338-8.85 1.2574-12.07 3.3344-.43.2787-.89.765-1.35.5403-.04-.0175-.07-.0397-.1-.0656-.43-.3582-.1-1.0328.04-1.5759.97-3.7449.81-8.1945-.72-12.739-1.57-4.6691-4.34-8.5059-7.5-10.9069-.18-.1233-.35-.344-.31-.6363 0-.0379.01-.0751.03-.1111.19-.4954.9-.3934 1.43-.4268 3.89-.2442 8.23-1.8744 11.94-4.62939 3.82-2.83908 6.55-6.467959 7.9-10.12435.1-.27206.14-.61342.36-.80143.16-.13469.37-.18358.56-.11042.05.01971.1.04603.15.07771.27.17968.32.53635.44.83678 1.37 3.604719 4.24 7.36496 8.16 10.16725z"/><path d="m1043.53 6.81505c3.79 2.70629 7.91 4.17925 11.65 4.40385.58.0349 1.32-.0404 1.51.5101.29.5921-.48 1.0591-.98 1.4881-2.88 2.4643-5.36 6.1132-6.77 10.5732-1.46 4.5608-1.54 9.0309-.5 12.7633.08.3155.33.6322.21.9384-.06.1701-.22.3114-.39.3695-.22.073-.47-.0008-.67-.1698-3.27-2.3165-7.95-3.7291-13.01-3.7059-4.66.0338-8.86 1.2574-12.08 3.3344-.43.2787-.89.765-1.35.5403-.04-.0175-.07-.0397-.1-.0656-.43-.3582-.1-1.0328.04-1.5759.97-3.7449.81-8.1945-.72-12.739-1.57-4.6691-4.34-8.5059-7.5-10.9069-.18-.1233-.35-.344-.31-.6363.01-.0379.02-.0751.03-.1111.19-.4954.9-.3934 1.43-.4268 3.89-.2442 8.23-1.8744 11.94-4.62939 3.82-2.83908 6.55-6.467959 7.9-10.12435.1-.27206.14-.61342.36-.80143.16-.13469.37-.18358.56-.11042.06.01971.11.04603.15.07771.27.17968.33.53635.44.83678 1.37 3.604719 4.25 7.36496 8.16 10.16725z"/><path d="m1221.16 6.81505c3.79 2.70629 7.9 4.17925 11.65 4.40385.58.0349 1.32-.0404 1.51.5101.29.5921-.49 1.0591-.99 1.4881-2.88 2.4643-5.36 6.1132-6.77 10.5732-1.46 4.5608-1.54 9.0309-.5 12.7633.09.3155.33.6322.22.9384-.07.1701-.22.3114-.39.3695-.22.073-.48-.0008-.67-.1698-3.27-2.3165-7.95-3.7291-13.02-3.7059-4.65.0338-8.86 1.2574-12.07 3.3344-.43.2787-.89.765-1.35.5403-.04-.0175-.07-.0397-.11-.0656-.43-.3582-.09-1.0328.05-1.5759.96-3.7449.8-8.1945-.72-12.739-1.57-4.6691-4.34-8.5059-7.5-10.9069-.18-.1233-.35-.344-.31-.6363 0-.0379.01-.0751.03-.1111.19-.4954.9-.3934 1.43-.4268 3.88-.2442 8.23-1.8744 11.94-4.62939 3.82-2.83908 6.55-6.467959 7.9-10.12435.1-.27206.14-.61342.36-.80143.16-.13469.37-.18358.56-.11042.05.01971.1.04603.15.07771.27.17968.32.53635.44.83678 1.37 3.604719 4.24 7.36496 8.16 10.16725z"/><path d="m1088.03 6.81505c3.79 2.70629 7.91 4.17925 11.65 4.40385.58.0349 1.32-.0404 1.51.5101.29.5921-.48 1.0591-.98 1.4881-2.88 2.4643-5.36 6.1132-6.77 10.5732-1.46 4.5608-1.54 9.0309-.5 12.7633.08.3155.33.6322.21.9384-.06.1701-.22.3114-.39.3695-.22.073-.47-.0008-.67-.1698-3.27-2.3165-7.95-3.7291-13.01-3.7059-4.66.0338-8.86 1.2574-12.08 3.3344-.43.2787-.89.765-1.35.5403-.04-.0175-.07-.0397-.1-.0656-.43-.3582-.1-1.0328.04-1.5759.97-3.7449.81-8.1945-.72-12.739-1.57-4.6691-4.34-8.5059-7.5-10.9069-.18-.1233-.35-.344-.31-.6363.01-.0379.02-.0751.03-.1111.19-.4954.9-.3934 1.43-.4268 3.89-.2442 8.23-1.8744 11.94-4.62939 3.82-2.83908 6.55-6.467959 7.9-10.12435.1-.27206.14-.61342.36-.80143.16-.13469.37-.18358.56-.11042.06.01971.11.04603.15.07771.27.17968.33.53635.44.83678 1.37 3.604719 4.25 7.36496 8.16 10.16725z"/><path d="m1265.64 6.81297c3.78 2.70629 7.9 4.17923 11.64 4.40393.58.0349 1.32-.0405 1.51.51.29.5921-.48 1.0591-.98 1.4881-2.88 2.4644-5.36 6.1133-6.77 10.5732-1.46 4.5608-1.54 9.031-.5 12.7634.09.3154.33.6322.21.9384-.06.17-.22.3113-.39.3694-.21.073-.47-.0008-.66-.1698-3.27-2.3165-7.95-3.7291-13.02-3.7059-4.66.0339-8.86 1.2574-12.08 3.3345-.43.2786-.89.7649-1.35.5402-.03-.0175-.07-.0397-.1-.0656-.43-.3582-.1-1.0328.04-1.5759.97-3.7449.81-8.1945-.72-12.739-1.56-4.6691-4.34-8.5059-7.49-10.9069-.19-.1233-.36-.344-.32-.6363.01-.0379.02-.075.03-.111.2-.4954.9-.3935 1.43-.4268 3.89-.2442 8.23-1.87448 11.94-4.62947 3.82-2.83907 6.55-6.467954 7.9-10.12435.1-.27206.14-.61342.37-.80143.15-.13468.36-.18358.55-.11041.06.0197.11.04602.15.07771.27.17968.33.53635.44.83677 1.37 3.604723 4.25 7.36497 8.17 10.16725z"/><path d="m1132.51 6.81505c3.78 2.70629 7.9 4.17925 11.64 4.40385.59.0349 1.32-.0404 1.51.5101.3.5921-.48 1.0591-.98 1.4881-2.88 2.4643-5.36 6.1132-6.77 10.5732-1.46 4.5608-1.54 9.0309-.5 12.7633.09.3155.33.6322.21.9384-.06.1701-.21.3114-.39.3695-.21.073-.47-.0008-.66-.1698-3.27-2.3165-7.95-3.7291-13.02-3.7059-4.66.0338-8.86 1.2574-12.08 3.3344-.43.2787-.89.765-1.35.5403-.03-.0175-.07-.0397-.1-.0656-.43-.3582-.09-1.0328.05-1.5759.96-3.7449.8-8.1945-.73-12.739-1.56-4.6691-4.33-8.5059-7.49-10.9069-.18-.1233-.35-.344-.32-.6363.01-.0379.02-.0751.03-.1111.2-.4954.91-.3934 1.44-.4268 3.88-.2442 8.22-1.8744 11.93-4.62939 3.83-2.83908 6.55-6.467959 7.91-10.12435.1-.27206.14-.61342.36-.80143.16-.13469.36-.18358.56-.11042.05.01971.1.04603.15.07771.26.17968.32.53635.43.83678 1.37 3.604719 4.25 7.36496 8.17 10.16725z"/><path d="m905.359 148.371c3.785 2.706 7.903 4.179 11.646 4.404.581.034 1.32-.041 1.511.51.291.592-.483 1.059-.985 1.488-2.879 2.464-5.358 6.113-6.77 10.573-1.461 4.561-1.54 9.031-.501 12.763.088.316.331.632.215.939-.065.17-.218.311-.39.369-.216.073-.474-.001-.667-.17-3.269-2.316-7.95-3.729-13.019-3.706-4.654.034-8.857 1.258-12.073 3.335-.432.278-.89.765-1.352.54-.036-.017-.07-.04-.101-.065-.432-.359-.097-1.033.043-1.576.966-3.745.806-8.195-.721-12.739-1.567-4.67-4.337-8.506-7.496-10.907-.183-.124-.352-.344-.313-.637.005-.037.015-.075.029-.111.194-.495.901-.393 1.432-.426 3.885-.245 8.227-1.875 11.937-4.63 3.822-2.839 6.55-6.468 7.903-10.124.101-.272.14-.614.361-.802.158-.134.365-.183.56-.11.052.02.103.046.15.078.266.179.323.536.437.836 1.368 3.605 4.245 7.365 8.164 10.168z"/><path d="m949.859 148.371c3.784 2.706 7.903 4.179 11.645 4.404.582.034 1.321-.041 1.511.51.292.592-.483 1.059-.984 1.488-2.88 2.464-5.359 6.113-6.771 10.573-1.46 4.561-1.539 9.031-.5 12.763.088.316.33.632.214.939-.064.17-.217.311-.389.369-.217.073-.474-.001-.668-.17-3.269-2.316-7.949-3.729-13.018-3.706-4.655.034-8.857 1.258-12.074 3.335-.431.278-.89.765-1.352.54-.036-.017-.07-.04-.101-.065-.431-.359-.096-1.033.044-1.576.966-3.745.806-8.195-.721-12.739-1.568-4.67-4.338-8.506-7.497-10.907-.182-.124-.351-.344-.313-.637.005-.037.015-.075.029-.111.194-.495.902-.393 1.433-.426 3.884-.245 8.227-1.875 11.936-4.63 3.823-2.839 6.55-6.468 7.903-10.124.101-.272.141-.614.362-.802.158-.134.365-.183.559-.11.052.02.103.046.15.078.266.179.323.536.437.836 1.369 3.605 4.246 7.365 8.165 10.168z"/><path d="m994.332 148.371c3.785 2.706 7.908 4.179 11.648 4.404.58.034 1.32-.041 1.51.51.29.592-.48 1.059-.99 1.488-2.88 2.464-5.35 6.113-6.766 10.573-1.461 4.561-1.539 9.031-.501 12.763.088.316.331.632.215.939-.064.17-.217.311-.39.369-.216.073-.474-.001-.667-.17-3.269-2.316-7.949-3.729-13.018-3.706-4.655.034-8.857 1.258-12.074 3.335-.432.278-.89.765-1.352.54-.036-.017-.07-.04-.101-.065-.432-.359-.097-1.033.044-1.576.966-3.745.806-8.195-.722-12.739-1.567-4.67-4.337-8.506-7.496-10.907-.182-.124-.352-.344-.313-.637.005-.037.015-.075.029-.111.194-.495.901-.393 1.432-.426 3.885-.245 8.228-1.875 11.937-4.63 3.822-2.839 6.55-6.468 7.903-10.124.101-.272.14-.614.361-.802.158-.134.365-.183.56-.11.052.02.103.046.15.078.266.179.323.536.437.836 1.368 3.605 4.245 7.365 8.164 10.168z"/><path d="m861.206 148.369c3.784 2.706 7.903 4.179 11.645 4.404.582.034 1.321-.041 1.511.51.292.592-.483 1.059-.984 1.488-2.88 2.464-5.359 6.113-6.77 10.573-1.461 4.561-1.54 9.031-.501 12.763.088.316.331.632.215.939-.065.17-.218.311-.39.369-.217.073-.474-.001-.667-.17-3.27-2.316-7.95-3.729-13.019-3.706-4.654.034-8.857 1.258-12.074 3.335-.431.279-.89.765-1.352.54-.036-.017-.069-.04-.101-.065-.431-.359-.096-1.033.044-1.576.966-3.745.806-8.195-.721-12.739-1.568-4.669-4.338-8.506-7.497-10.907-.182-.124-.351-.344-.313-.637.005-.037.015-.075.029-.111.195-.495.902-.393 1.433-.426 3.884-.245 8.227-1.875 11.936-4.63 3.823-2.839 6.55-6.468 7.904-10.124.1-.272.14-.614.361-.802.158-.134.365-.183.559-.11.053.02.103.046.15.078.267.179.323.536.437.836 1.369 3.605 4.246 7.365 8.165 10.168z"/><path d="m1176.66 148.371c3.79 2.706 7.91 4.179 11.65 4.404.58.034 1.32-.041 1.51.51.29.592-.48 1.059-.98 1.488-2.88 2.464-5.36 6.113-6.77 10.573-1.47 4.561-1.54 9.031-.51 12.763.09.316.34.632.22.939-.07.17-.22.311-.39.369-.22.073-.47-.001-.67-.17-3.27-2.316-7.95-3.729-13.02-3.706-4.65.034-8.85 1.258-12.07 3.335-.43.278-.89.765-1.35.54-.04-.017-.07-.04-.1-.065-.43-.359-.1-1.033.04-1.576.97-3.745.81-8.195-.72-12.739-1.57-4.67-4.34-8.506-7.5-10.907-.18-.124-.35-.344-.31-.637 0-.037.01-.075.03-.111.19-.495.9-.393 1.43-.426 3.89-.245 8.23-1.875 11.94-4.63 3.82-2.839 6.55-6.468 7.9-10.124.1-.272.14-.614.36-.802.16-.134.37-.183.56-.11.05.02.1.046.15.078.27.179.32.536.44.836 1.37 3.605 4.24 7.365 8.16 10.168z"/><path d="m1043.53 148.371c3.79 2.706 7.91 4.179 11.65 4.404.58.034 1.32-.041 1.51.51.29.592-.48 1.059-.98 1.488-2.88 2.464-5.36 6.113-6.77 10.573-1.46 4.561-1.54 9.031-.5 12.763.08.316.33.632.21.939-.06.17-.22.311-.39.369-.22.073-.47-.001-.67-.17-3.27-2.316-7.95-3.729-13.01-3.706-4.66.034-8.86 1.258-12.08 3.335-.43.278-.89.765-1.35.54-.04-.017-.07-.04-.1-.065-.43-.359-.1-1.033.04-1.576.97-3.745.81-8.195-.72-12.739-1.57-4.67-4.34-8.506-7.5-10.907-.18-.124-.35-.344-.31-.637.01-.037.02-.075.03-.111.19-.495.9-.393 1.43-.426 3.89-.245 8.23-1.875 11.94-4.63 3.82-2.839 6.55-6.468 7.9-10.124.1-.272.14-.614.36-.802.16-.134.37-.183.56-.11.06.02.11.046.15.078.27.179.33.536.44.836 1.37 3.605 4.25 7.365 8.16 10.168z"/><path d="m1221.16 148.371c3.79 2.706 7.9 4.179 11.65 4.404.58.034 1.32-.041 1.51.51.29.592-.49 1.059-.99 1.488-2.88 2.464-5.36 6.113-6.77 10.573-1.46 4.561-1.54 9.031-.5 12.763.09.316.33.632.22.939-.07.17-.22.311-.39.369-.22.073-.48-.001-.67-.17-3.27-2.316-7.95-3.729-13.02-3.706-4.65.034-8.86 1.258-12.07 3.335-.43.278-.89.765-1.35.54-.04-.017-.07-.04-.11-.065-.43-.359-.09-1.033.05-1.576.96-3.745.8-8.195-.72-12.739-1.57-4.67-4.34-8.506-7.5-10.907-.18-.124-.35-.344-.31-.637 0-.037.01-.075.03-.111.19-.495.9-.393 1.43-.426 3.88-.245 8.23-1.875 11.94-4.63 3.82-2.839 6.55-6.468 7.9-10.124.1-.272.14-.614.36-.802.16-.134.37-.183.56-.11.05.02.1.046.15.078.27.179.32.536.44.836 1.37 3.605 4.24 7.365 8.16 10.168z"/><path d="m1088.03 148.371c3.79 2.706 7.91 4.179 11.65 4.404.58.034 1.32-.041 1.51.51.29.592-.48 1.059-.98 1.488-2.88 2.464-5.36 6.113-6.77 10.573-1.46 4.561-1.54 9.031-.5 12.763.08.316.33.632.21.939-.06.17-.22.311-.39.369-.22.073-.47-.001-.67-.17-3.27-2.316-7.95-3.729-13.01-3.706-4.66.034-8.86 1.258-12.08 3.335-.43.278-.89.765-1.35.54-.04-.017-.07-.04-.1-.065-.43-.359-.1-1.033.04-1.576.97-3.745.81-8.195-.72-12.739-1.57-4.67-4.34-8.506-7.5-10.907-.18-.124-.35-.344-.31-.637.01-.037.02-.075.03-.111.19-.495.9-.393 1.43-.426 3.89-.245 8.23-1.875 11.94-4.63 3.82-2.839 6.55-6.468 7.9-10.124.1-.272.14-.614.36-.802.16-.134.37-.183.56-.11.06.02.11.046.15.078.27.179.33.536.44.836 1.37 3.605 4.25 7.365 8.16 10.168z"/><path d="m1265.64 148.369c3.78 2.706 7.9 4.179 11.64 4.404.58.034 1.32-.041 1.51.51.29.592-.48 1.059-.98 1.488-2.88 2.464-5.36 6.113-6.77 10.573-1.46 4.561-1.54 9.031-.5 12.763.09.316.33.632.21.939-.06.17-.22.311-.39.369-.21.073-.47-.001-.66-.17-3.27-2.316-7.95-3.729-13.02-3.706-4.66.034-8.86 1.258-12.08 3.335-.43.279-.89.765-1.35.54-.03-.017-.07-.04-.1-.065-.43-.359-.1-1.033.04-1.576.97-3.745.81-8.195-.72-12.739-1.56-4.669-4.34-8.506-7.49-10.907-.19-.124-.36-.344-.32-.637.01-.037.02-.075.03-.111.2-.495.9-.393 1.43-.426 3.89-.245 8.23-1.875 11.94-4.63 3.82-2.839 6.55-6.468 7.9-10.124.1-.272.14-.614.37-.802.15-.134.36-.183.55-.11.06.02.11.046.15.078.27.179.33.536.44.836 1.37 3.605 4.25 7.365 8.17 10.168z"/><path d="m1132.51 148.371c3.78 2.706 7.9 4.179 11.64 4.404.59.034 1.32-.041 1.51.51.3.592-.48 1.059-.98 1.488-2.88 2.464-5.36 6.113-6.77 10.573-1.46 4.561-1.54 9.031-.5 12.763.09.316.33.632.21.939-.06.17-.21.311-.39.369-.21.073-.47-.001-.66-.17-3.27-2.316-7.95-3.729-13.02-3.706-4.66.034-8.86 1.258-12.08 3.335-.43.278-.89.765-1.35.54-.03-.017-.07-.04-.1-.065-.43-.359-.09-1.033.05-1.576.96-3.745.8-8.195-.73-12.739-1.56-4.67-4.33-8.506-7.49-10.907-.18-.124-.35-.344-.32-.637.01-.037.02-.075.03-.111.2-.495.91-.393 1.44-.426 3.88-.245 8.22-1.875 11.93-4.63 3.83-2.839 6.55-6.468 7.91-10.124.1-.272.14-.614.36-.802.16-.134.36-.183.56-.11.05.02.1.046.15.078.26.179.32.536.43.836 1.37 3.605 4.25 7.365 8.17 10.168z"/><path d="m905.359 76.149c3.785 2.7063 7.903 4.1793 11.646 4.4039.581.0349 1.32-.0405 1.511.5101.291.592-.483 1.0591-.985 1.4881-2.879 2.4643-5.358 6.1132-6.77 10.5732-1.461 4.5608-1.54 9.0307-.501 12.7637.088.315.331.632.215.938-.065.17-.218.311-.39.37-.216.072-.474-.001-.667-.17-3.269-2.317-7.95-3.729-13.019-3.706-4.654.034-8.857 1.257-12.073 3.334-.432.279-.89.765-1.352.54-.036-.017-.07-.039-.101-.065-.432-.358-.097-1.033.043-1.576.966-3.745.806-8.1945-.721-12.739-1.567-4.6691-4.337-8.5059-7.496-10.9069-.183-.1233-.352-.344-.313-.6364.005-.0378.015-.075.029-.111.194-.4954.901-.3934 1.432-.4268 3.885-.2442 8.227-1.8744 11.937-4.6294 3.822-2.8391 6.55-6.468 7.903-10.1244.101-.272.14-.6134.361-.8014.158-.1347.365-.1836.56-.1104.052.0197.103.046.15.0777.266.1797.323.5364.437.8368 1.368 3.6047 4.245 7.3649 8.164 10.1672z"/><path d="m949.859 76.149c3.784 2.7063 7.903 4.1793 11.645 4.4039.582.0349 1.321-.0405 1.511.5101.292.592-.483 1.0591-.984 1.4881-2.88 2.4643-5.359 6.1132-6.771 10.5732-1.46 4.5608-1.539 9.0307-.5 12.7637.088.315.33.632.214.938-.064.17-.217.311-.389.37-.217.072-.474-.001-.668-.17-3.269-2.317-7.949-3.729-13.018-3.706-4.655.034-8.857 1.257-12.074 3.334-.431.279-.89.765-1.352.54-.036-.017-.07-.039-.101-.065-.431-.358-.096-1.033.044-1.576.966-3.745.806-8.1945-.721-12.739-1.568-4.6691-4.338-8.5059-7.497-10.9069-.182-.1233-.351-.344-.313-.6364.005-.0378.015-.075.029-.111.194-.4954.902-.3934 1.433-.4268 3.884-.2442 8.227-1.8744 11.936-4.6294 3.823-2.8391 6.55-6.468 7.903-10.1244.101-.272.141-.6134.362-.8014.158-.1347.365-.1836.559-.1104.052.0197.103.046.15.0777.266.1797.323.5364.437.8368 1.369 3.6047 4.246 7.3649 8.165 10.1672z"/><path d="m994.332 76.149c3.785 2.7063 7.908 4.1793 11.648 4.4039.58.0349 1.32-.0405 1.51.5101.29.592-.48 1.0591-.99 1.4881-2.88 2.4643-5.35 6.1132-6.766 10.5732-1.461 4.5608-1.539 9.0307-.501 12.7637.088.315.331.632.215.938-.064.17-.217.311-.39.37-.216.072-.474-.001-.667-.17-3.269-2.317-7.949-3.729-13.018-3.706-4.655.034-8.857 1.257-12.074 3.334-.432.279-.89.765-1.352.54-.036-.017-.07-.039-.101-.065-.432-.358-.097-1.033.044-1.576.966-3.745.806-8.1945-.722-12.739-1.567-4.6691-4.337-8.5059-7.496-10.9069-.182-.1233-.352-.344-.313-.6364.005-.0378.015-.075.029-.111.194-.4954.901-.3934 1.432-.4268 3.885-.2442 8.228-1.8744 11.937-4.6294 3.822-2.8391 6.55-6.468 7.903-10.1244.101-.272.14-.6134.361-.8014.158-.1347.365-.1836.56-.1104.052.0197.103.046.15.0777.266.1797.323.5364.437.8368 1.368 3.6047 4.245 7.3649 8.164 10.1672z"/><path d="m861.206 76.147c3.784 2.7062 7.903 4.1792 11.645 4.4039.582.0349 1.321-.0405 1.511.51.292.5921-.483 1.0591-.984 1.4881-2.88 2.4644-5.359 6.1133-6.77 10.5732-1.461 4.5608-1.54 9.0308-.501 12.7638.088.315.331.632.215.938-.065.17-.218.311-.39.369-.217.073-.474 0-.667-.169-3.27-2.317-7.95-3.729-13.019-3.706-4.654.034-8.857 1.257-12.074 3.334-.431.279-.89.765-1.352.54-.036-.017-.069-.039-.101-.065-.431-.358-.096-1.033.044-1.576.966-3.745.806-8.1946-.721-12.7391-1.568-4.6691-4.338-8.5059-7.497-10.9069-.182-.1233-.351-.344-.313-.6363.005-.0379.015-.0751.029-.111.195-.4954.902-.3935 1.433-.4269 3.884-.2442 8.227-1.8744 11.936-4.6294 3.823-2.8391 6.55-6.4679 7.904-10.1243.1-.2721.14-.6135.361-.8015.158-.1346.365-.1835.559-.1104.053.0197.103.046.15.0777.267.1797.323.5364.437.8368 1.369 3.6047 4.246 7.365 8.165 10.1673z"/><path d="m1176.66 76.149c3.79 2.7063 7.91 4.1793 11.65 4.4039.58.0349 1.32-.0405 1.51.5101.29.592-.48 1.0591-.98 1.4881-2.88 2.4643-5.36 6.1132-6.77 10.5732-1.47 4.5608-1.54 9.0307-.51 12.7637.09.315.34.632.22.938-.07.17-.22.311-.39.37-.22.072-.47-.001-.67-.17-3.27-2.317-7.95-3.729-13.02-3.706-4.65.034-8.85 1.257-12.07 3.334-.43.279-.89.765-1.35.54-.04-.017-.07-.039-.1-.065-.43-.358-.1-1.033.04-1.576.97-3.745.81-8.1945-.72-12.739-1.57-4.6691-4.34-8.5059-7.5-10.9069-.18-.1233-.35-.344-.31-.6364 0-.0378.01-.075.03-.111.19-.4954.9-.3934 1.43-.4268 3.89-.2442 8.23-1.8744 11.94-4.6294 3.82-2.8391 6.55-6.468 7.9-10.1244.1-.272.14-.6134.36-.8014.16-.1347.37-.1836.56-.1104.05.0197.1.046.15.0777.27.1797.32.5364.44.8368 1.37 3.6047 4.24 7.3649 8.16 10.1672z"/><path d="m1043.53 76.149c3.79 2.7063 7.91 4.1793 11.65 4.4039.58.0349 1.32-.0405 1.51.5101.29.592-.48 1.0591-.98 1.4881-2.88 2.4643-5.36 6.1132-6.77 10.5732-1.46 4.5608-1.54 9.0307-.5 12.7637.08.315.33.632.21.938-.06.17-.22.311-.39.37-.22.072-.47-.001-.67-.17-3.27-2.317-7.95-3.729-13.01-3.706-4.66.034-8.86 1.257-12.08 3.334-.43.279-.89.765-1.35.54-.04-.017-.07-.039-.1-.065-.43-.358-.1-1.033.04-1.576.97-3.745.81-8.1945-.72-12.739-1.57-4.6691-4.34-8.5059-7.5-10.9069-.18-.1233-.35-.344-.31-.6364.01-.0378.02-.075.03-.111.19-.4954.9-.3934 1.43-.4268 3.89-.2442 8.23-1.8744 11.94-4.6294 3.82-2.8391 6.55-6.468 7.9-10.1244.1-.272.14-.6134.36-.8014.16-.1347.37-.1836.56-.1104.06.0197.11.046.15.0777.27.1797.33.5364.44.8368 1.37 3.6047 4.25 7.3649 8.16 10.1672z"/><path d="m1221.16 76.149c3.79 2.7063 7.9 4.1793 11.65 4.4039.58.0349 1.32-.0405 1.51.5101.29.592-.49 1.0591-.99 1.4881-2.88 2.4643-5.36 6.1132-6.77 10.5732-1.46 4.5608-1.54 9.0307-.5 12.7637.09.315.33.632.22.938-.07.17-.22.311-.39.37-.22.072-.48-.001-.67-.17-3.27-2.317-7.95-3.729-13.02-3.706-4.65.034-8.86 1.257-12.07 3.334-.43.279-.89.765-1.35.54-.04-.017-.07-.039-.11-.065-.43-.358-.09-1.033.05-1.576.96-3.745.8-8.1945-.72-12.739-1.57-4.6691-4.34-8.5059-7.5-10.9069-.18-.1233-.35-.344-.31-.6364 0-.0378.01-.075.03-.111.19-.4954.9-.3934 1.43-.4268 3.88-.2442 8.23-1.8744 11.94-4.6294 3.82-2.8391 6.55-6.468 7.9-10.1244.1-.272.14-.6134.36-.8014.16-.1347.37-.1836.56-.1104.05.0197.1.046.15.0777.27.1797.32.5364.44.8368 1.37 3.6047 4.24 7.3649 8.16 10.1672z"/><path d="m1088.03 76.149c3.79 2.7063 7.91 4.1793 11.65 4.4039.58.0349 1.32-.0405 1.51.5101.29.592-.48 1.0591-.98 1.4881-2.88 2.4643-5.36 6.1132-6.77 10.5732-1.46 4.5608-1.54 9.0307-.5 12.7637.08.315.33.632.21.938-.06.17-.22.311-.39.37-.22.072-.47-.001-.67-.17-3.27-2.317-7.95-3.729-13.01-3.706-4.66.034-8.86 1.257-12.08 3.334-.43.279-.89.765-1.35.54-.04-.017-.07-.039-.1-.065-.43-.358-.1-1.033.04-1.576.97-3.745.81-8.1945-.72-12.739-1.57-4.6691-4.34-8.5059-7.5-10.9069-.18-.1233-.35-.344-.31-.6364.01-.0378.02-.075.03-.111.19-.4954.9-.3934 1.43-.4268 3.89-.2442 8.23-1.8744 11.94-4.6294 3.82-2.8391 6.55-6.468 7.9-10.1244.1-.272.14-.6134.36-.8014.16-.1347.37-.1836.56-.1104.06.0197.11.046.15.0777.27.1797.33.5364.44.8368 1.37 3.6047 4.25 7.3649 8.16 10.1672z"/><path d="m1265.64 76.147c3.78 2.7062 7.9 4.1792 11.64 4.4039.58.0349 1.32-.0405 1.51.51.29.5921-.48 1.0591-.98 1.4881-2.88 2.4644-5.36 6.1133-6.77 10.5732-1.46 4.5608-1.54 9.0308-.5 12.7638.09.315.33.632.21.938-.06.17-.22.311-.39.369-.21.073-.47 0-.66-.169-3.27-2.317-7.95-3.729-13.02-3.706-4.66.034-8.86 1.257-12.08 3.334-.43.279-.89.765-1.35.54-.03-.017-.07-.039-.1-.065-.43-.358-.1-1.033.04-1.576.97-3.745.81-8.1946-.72-12.7391-1.56-4.6691-4.34-8.5059-7.49-10.9069-.19-.1233-.36-.344-.32-.6363.01-.0379.02-.0751.03-.111.2-.4954.9-.3935 1.43-.4269 3.89-.2442 8.23-1.8744 11.94-4.6294 3.82-2.8391 6.55-6.4679 7.9-10.1243.1-.2721.14-.6135.37-.8015.15-.1346.36-.1835.55-.1104.06.0197.11.046.15.0777.27.1797.33.5364.44.8368 1.37 3.6047 4.25 7.365 8.17 10.1673z"/><path d="m1132.51 76.149c3.78 2.7063 7.9 4.1793 11.64 4.4039.59.0349 1.32-.0405 1.51.5101.3.592-.48 1.0591-.98 1.4881-2.88 2.4643-5.36 6.1132-6.77 10.5732-1.46 4.5608-1.54 9.0307-.5 12.7637.09.315.33.632.21.938-.06.17-.21.311-.39.37-.21.072-.47-.001-.66-.17-3.27-2.317-7.95-3.729-13.02-3.706-4.66.034-8.86 1.257-12.08 3.334-.43.279-.89.765-1.35.54-.03-.017-.07-.039-.1-.065-.43-.358-.09-1.033.05-1.576.96-3.745.8-8.1945-.73-12.739-1.56-4.6691-4.33-8.5059-7.49-10.9069-.18-.1233-.35-.344-.32-.6364.01-.0378.02-.075.03-.111.2-.4954.91-.3934 1.44-.4268 3.88-.2442 8.22-1.8744 11.93-4.6294 3.83-2.8391 6.55-6.468 7.91-10.1244.1-.272.14-.6134.36-.8014.16-.1347.36-.1836.56-.1104.05.0197.1.046.15.0777.26.1797.32.5364.43.8368 1.37 3.6047 4.25 7.3649 8.17 10.1672z"/></g><path d="m1236 332h892v429h-892z" fill="url(#a)" transform="matrix(-1 0 0 -1 2472 664)"/></g></svg>