<svg
  width="13"
  height="12"
  viewBox="0 0 13 12"
  fill="none"
  xmlns="http://www.w3.org/2000/svg"
>
  <path
    fillRule="evenodd"
    clipRule="evenodd"
    d="M12.1841 1.52325C12.2979 1.56127 12.3862 1.63729 12.4494 1.73869L12.4496 1.7387C12.5 1.85273 12.5126 1.96677 12.4873 2.0809C12.4873 2.10624 11.7042 4.60286 11.4138 5.51533C11.3885 5.60409 11.3633 5.68012 11.338 5.75614C11.3305 5.77888 11.3229 5.80159 11.3154 5.82424C11.1724 6.25616 11.0356 6.66916 10.8076 6.92207C10.5676 7.18814 10.3908 7.46698 10.2771 7.74579C10.2581 7.7394 10.2391 7.73622 10.2201 7.73303L10.2201 7.73303C10.2012 7.72987 10.1823 7.72671 10.1635 7.72041L7.61226 7.27674C7.57437 7.2641 7.54909 7.2641 7.51121 7.2641C7.48592 7.07405 7.44804 6.89662 7.38487 6.7192C7.46064 6.50377 7.51121 6.35164 7.52381 6.30098C7.62486 6.06019 7.61217 5.79401 7.49852 5.56594C7.38488 5.32512 7.19536 5.16044 6.94279 5.07168C6.84174 5.03367 6.75338 5.02103 6.65233 5.02103C6.61445 5.02103 6.57648 5.02103 6.526 5.03367C6.23554 4.38736 5.99555 3.77899 5.99555 3.76635C5.93247 3.63969 5.93247 3.50027 5.98295 3.37351C6.03351 3.24675 6.13447 3.14535 6.2608 3.0947C6.50077 3.00603 6.71547 3.0947 6.90497 3.36088C7.08178 3.60169 7.35964 4.10857 7.35964 4.10857C7.41011 4.19724 7.48588 4.23525 7.54905 4.22261C7.61221 4.20988 7.66278 4.14659 7.67538 4.05783L7.67795 4.03464L7.68001 4.01609C7.71533 3.69759 7.73907 3.48354 7.75114 3.09469C7.76374 2.70186 7.76374 0.864539 7.76374 0.838874V0.838868C7.76374 0.71219 7.81422 0.585425 7.91527 0.496669C8.01633 0.408002 8.14257 0.36999 8.2689 0.382631C8.49629 0.408 8.6731 0.623422 8.6731 0.864235L8.6605 3.12006C8.6605 3.1708 8.68579 3.20882 8.73627 3.22146L8.77406 3.2341C8.81188 3.24678 8.83702 3.2342 8.8622 3.22161L8.86251 3.22146C8.86673 3.21297 8.87236 3.20449 8.878 3.19601C8.8892 3.17916 8.90039 3.16231 8.90039 3.14543L9.24142 0.395352C9.2541 0.268593 9.31718 0.167198 9.40563 0.0911729C9.494 0.0277889 9.60765 -0.0102236 9.73398 0.00241766C9.98655 0.0277866 10.1508 0.243231 10.1255 0.496672L9.79713 3.34814C9.78445 3.39879 9.82242 3.44953 9.8729 3.46218C9.92338 3.47491 9.97395 3.4368 9.98654 3.38615L10.5296 0.978246C10.5549 0.851564 10.6306 0.750169 10.7317 0.686785C10.8327 0.62349 10.9591 0.61076 11.0727 0.636131C11.1863 0.661502 11.2874 0.737525 11.3506 0.838922C11.4137 0.940308 11.439 1.06708 11.4137 1.18112L10.8707 3.58903C10.858 3.65241 10.896 3.70315 10.9465 3.71579H10.9591C11.0095 3.71579 11.0601 3.69042 11.0727 3.63977L11.6284 1.81481C11.6537 1.70068 11.7421 1.61201 11.8431 1.54862C11.9442 1.49788 12.0705 1.48524 12.1841 1.52325ZM7.53645 7.70773L10.0877 8.16397C10.2393 8.18933 10.3276 8.32874 10.3024 8.48079L10.176 9.1651C10.1507 9.30451 10.0118 9.40591 9.86028 9.38053L7.30907 8.9243C7.17014 8.89893 7.06909 8.75952 7.09438 8.60747L7.22071 7.92316C7.24599 7.78376 7.38492 7.68236 7.53645 7.70773ZM5.70514 9.73544C5.74302 9.7228 5.76831 9.7228 5.80619 9.7228C5.81879 9.34258 5.93252 8.9751 6.12193 8.64553C6.12823 8.63285 6.1377 8.617 6.14717 8.60116C6.15664 8.58531 6.16612 8.56946 6.17241 8.55678C6.57661 7.82173 7.10704 6.14887 7.10704 6.1362C7.15752 6.00943 7.15752 5.87002 7.09444 5.74335C7.03127 5.61659 6.93022 5.52792 6.80398 5.47717C6.56399 5.40115 6.34931 5.50254 6.17249 5.794C6.02096 6.04744 5.76829 6.56707 5.76829 6.56707C5.71781 6.65582 5.64196 6.70648 5.57888 6.69383C5.51572 6.68119 5.46524 6.61781 5.45255 6.52906C5.39361 6.20975 5.36765 6.0008 5.32343 5.64483L5.32343 5.64482C5.32026 5.61931 5.317 5.59304 5.31362 5.56592C5.27574 5.17307 5.16209 3.33546 5.16209 3.31009C5.14949 3.18332 5.09892 3.06928 4.99788 2.98061C4.89683 2.90459 4.77059 2.86657 4.64425 2.89186C4.41695 2.92987 4.25275 3.1453 4.27803 3.38611L4.42956 5.64194C4.42956 5.69259 4.40427 5.73069 4.35379 5.74333L4.31591 5.75597C4.29063 5.76862 4.25274 5.75597 4.22746 5.74333C4.20218 5.73069 4.18958 5.70532 4.17698 5.67995L3.69703 2.96789C3.67174 2.85385 3.60858 2.75246 3.50762 2.67643C3.40657 2.61304 3.29292 2.57503 3.16659 2.6004C2.91402 2.65106 2.7624 2.87921 2.80037 3.12002L3.29293 5.94614C3.30553 5.9968 3.26765 6.04754 3.21717 6.06018C3.16669 6.07282 3.10352 6.03481 3.09084 5.98416L2.40888 3.61427C2.37099 3.50023 2.29523 3.39884 2.19418 3.34809C2.09313 3.28471 1.96689 3.27206 1.85316 3.31008C1.73951 3.34809 1.63846 3.42412 1.58789 3.52551C1.52472 3.62691 1.51212 3.75358 1.55 3.86771L2.23196 6.23759C2.24456 6.28825 2.21937 6.35163 2.1688 6.36436H2.1562C2.10572 6.377 2.05515 6.35172 2.02987 6.30098L1.37319 4.56477C1.33531 4.45074 1.24686 4.36198 1.1332 4.31133C1.01955 4.26068 0.905911 4.26068 0.792176 4.29869C0.678529 4.3367 0.59008 4.42546 0.539604 4.5395C0.489124 4.65354 0.489124 4.76758 0.527006 4.8817C0.534512 4.89682 0.869317 5.77116 1.21087 6.66314C1.44259 7.26827 1.67742 7.88152 1.81526 8.2401C1.8279 8.27811 1.8437 8.31613 1.85949 8.35414C1.87528 8.39215 1.89107 8.43016 1.90371 8.46817C2.08052 8.9244 2.24474 9.34264 2.49731 9.60871C2.74988 9.86215 2.93939 10.1156 3.07832 10.3944C3.1162 10.3818 3.15409 10.3691 3.17937 10.3564L5.70514 9.73544ZM5.81883 10.179C5.95777 10.141 6.1093 10.2297 6.14718 10.3818L6.3114 11.0535C6.34929 11.1929 6.26083 11.3449 6.1093 11.3829L3.59598 11.9912C3.45704 12.0292 3.30552 11.9405 3.26763 11.7884L3.10342 11.1168C3.06553 10.9773 3.15399 10.8253 3.30552 10.7873L5.81883 10.179Z"
    fill="#000"
  />
</svg>
