<svg
    width="12"
    height="12"
    viewBox="0 0 9 8"
    fill="none"
    xmlns="http://www.w3.org/2000/svg"
>
    <path
    fillRule="evenodd"
    clipRule="evenodd"
    d="M1.38084 1.56669C1.41426 1.53479 1.45018 1.5066 1.47498 1.48901L2.16114 0.931973C2.31261 0.809635 2.51888 0.779726 2.70027 0.853668C2.88017 0.926759 3.00901 1.0943 3.03144 1.28817C3.0511 1.45352 3.25844 1.73718 3.43459 1.84544L3.60667 1.94478L4.31202 1.76922C4.32874 1.765 4.34575 1.76214 4.36289 1.76049C4.60933 1.73836 4.84469 1.84346 4.9934 2.04058C5.1241 2.21498 5.23726 2.42967 5.36799 2.67796C5.36989 2.68138 5.37221 2.6854 5.37388 2.6891L4.45851 2.93437C4.28047 2.98208 4.17512 3.16456 4.2228 3.34263C4.2466 3.43143 4.30421 3.50238 4.3781 3.54505C4.45204 3.58773 4.54225 3.60213 4.63105 3.57833L5.71269 3.28851C5.76234 3.36914 5.81517 3.44971 5.87163 3.53195L5.15798 3.72314C4.97992 3.77088 4.87457 3.95336 4.92227 4.13139C4.94607 4.2202 5.00366 4.29118 5.07755 4.33385C5.15149 4.37653 5.24172 4.39089 5.33053 4.3671L6.33379 4.09827C6.37766 4.14437 6.41364 4.19134 6.4611 4.23647C6.5572 4.3281 6.64773 4.41465 6.74041 4.46816L7.61121 4.97092C7.91147 5.14427 8.07023 5.45268 8.02546 5.77562C7.97331 6.15662 7.65601 6.44884 7.2509 6.47175C7.13586 6.47767 7.02181 6.47653 6.90832 6.47102C6.90126 6.492 6.89876 6.51365 6.88726 6.53357L6.55388 7.11099C6.46186 7.27038 6.25811 7.3252 6.09845 7.23302C5.93879 7.14084 5.88439 6.93698 5.97642 6.77759L6.21444 6.36532C6.10432 6.33675 5.99513 6.30377 5.88791 6.26419L5.68772 6.61092C5.5957 6.77031 5.39195 6.82513 5.23229 6.73295C5.07263 6.64077 5.01823 6.43691 5.11026 6.27752L5.28678 5.97177C5.21823 5.92987 5.14985 5.88693 5.08306 5.83992C5.05926 5.82309 5.03334 5.80467 5.00843 5.78719L4.82157 6.11083C4.72955 6.27023 4.5258 6.32505 4.36614 6.23287C4.20648 6.14069 4.15208 5.93683 4.24411 5.77744L4.4653 5.39432C4.1575 5.16732 3.83818 4.92367 3.57537 4.70342C3.51889 4.65658 3.46027 4.61273 3.40062 4.57138L3.08926 5.11068C2.99723 5.27007 2.79349 5.32489 2.63383 5.23271C2.47417 5.14053 2.41977 4.93667 2.51179 4.77728L2.80065 4.27696C2.79264 4.27423 2.78491 4.27091 2.77683 4.26821L2.47445 4.17524L2.2231 4.61059C2.13107 4.76999 1.92733 4.82481 1.76767 4.73263C1.60801 4.64045 1.55361 4.43659 1.64563 4.2772L1.82066 3.97404C1.74954 3.94453 1.67964 3.91226 1.61352 3.87409C1.58321 3.85659 1.55729 3.83353 1.52795 3.81432L1.35694 4.11052C1.26492 4.26991 1.06117 4.32473 0.901512 4.23255C0.741851 4.14037 0.687453 3.93651 0.779479 3.77712L1.04334 3.32011C0.980137 3.21623 0.925667 3.10858 0.893842 2.99431C0.815136 2.71253 0.773819 2.15202 1.38086 1.56666"
    fill="currentColor"
    />
</svg>
