<svg xmlns:xlink="http://www.w3.org/1999/xlink" width="40" height="40" viewBox="0 0 40 40" fill="none" xmlns="http://www.w3.org/2000/svg" aria-labelledby="europe-limited" class="sc-eeMvmM ceeiFp" style="color: transparent;"><defs><linearGradient id="svg-limited-gradient" x1="1" x2="0.6" y1="1" y2="0"><stop offset="0" stop-color="#ae5e13"></stop><stop offset="1" stop-color="#dfad46"></stop></linearGradient></defs><title id="europe-limited">europe-limited</title><rect x="10" y="8" width="20" height="20" fill="#000000" fill-opacity="0"></rect><path fill-rule="evenodd" clip-rule="evenodd" d="M6.65036 29.3118L19.9999 39L33.3494 29.3118C37.3143 26.4343 38.9734 21.3297 37.458 16.671L32.3605 1L7.63917 1L2.5417 16.671C1.0263 21.3297 2.68545 26.4343 6.65036 29.3118ZM23.9998 39H27.192C31.7807 39 35.7805 35.877 36.8935 31.4254L37.4998 29L23.9998 39ZM13.3076 39H16.4998L2.99981 29L3.60614 31.4254C4.71906 35.877 8.71889 39 13.3076 39ZM23.9999 9H20.9999V15C20.9999 16.1046 21.8953 17 22.9999 17H26.9999C28.1045 17 28.9999 16.1046 28.9999 15V9H25.9999V15H23.9999V9ZM13.9999 27H10.9999V19H16.9999C18.1045 19 18.9999 19.8954 18.9999 21V23C18.9999 24.1046 18.1045 25 16.9999 25C18.1045 25 18.9999 25.8954 18.9999 27H15.9999V25H13.9999V27ZM15.9999 23H13.9999V21H15.9999V23ZM22.9999 27C21.8953 27 20.9999 26.1046 20.9999 25V21C20.9999 19.8954 21.8953 19 22.9999 19H26.9999C28.1045 19 28.9999 19.8954 28.9999 21V25C28.9999 26.1046 28.1045 27 26.9999 27H22.9999ZM23.9999 21H25.9999V25H23.9999V21ZM12.9999 9C11.8953 9 10.9999 9.89543 10.9999 11V15C10.9999 16.1046 11.8953 17 12.9999 17H18.9999V15H13.9999V14H16.9999V12H13.9999V11H18.9999V9H12.9999Z" fill="url(#svg-limited-gradient)"></path></svg>