<svg xmlns:xlink="http://www.w3.org/1999/xlink" fill="none" height="40" width="40" viewBox="0 0 40 40" xmlns="http://www.w3.org/2000/svg" aria-labelledby="asia-limited" class="sc-eeMvmM ceeiFp" style="color: transparent;"><defs><linearGradient id="svg-limited-gradient" x1="1" x2="0.6" y1="1" y2="0"><stop offset="0" stop-color="#ae5e13"></stop><stop offset="1" stop-color="#dfad46"></stop></linearGradient><linearGradient id="svg-limited-gradient" x1="1" x2="0.6" y1="1" y2="0"><stop offset="0" stop-color="#ae5e13"></stop><stop offset="1" stop-color="#dfad46"></stop></linearGradient><linearGradient id="svg-limited-gradient" x1="1" x2="0.6" y1="1" y2="0"><stop offset="0" stop-color="#ae5e13"></stop><stop offset="1" stop-color="#dfad46"></stop></linearGradient></defs><title id="asia-limited">asia-limited</title><rect x="10" y="8" width="20" height="20" fill="#000000" fill-opacity="0"></rect><g fill="url(#svg-limited-gradient)"><path d="M24 20h2v2h-2zM14 10h2v2h-2z" fill="url(#svg-limited-gradient)"></path><path clip-rule="evenodd" d="M6.65 29.312 20 39l13.35-9.688a11.3 11.3 0 0 0 4.108-12.641L32.361 1H7.639L2.542 16.671a11.3 11.3 0 0 0 4.109 12.64zM23 8h6v2h-5v1h3a2 2 0 0 1 2 2v1a2 2 0 0 1-2 2h-6v-2h5v-1h-3a2 2 0 0 1-2-2v-1a2 2 0 0 1 2-2zm-4 10v2h-2v4h2v2h-8v-2h2v-4h-2v-2zm10 2a2 2 0 0 0-2-2h-4a2 2 0 0 0-2 2v6h3v-2h2v2h3zM19 10a2 2 0 0 0-2-2h-4a2 2 0 0 0-2 2v6h3v-2h2v2h3z" fill-rule="evenodd" fill="url(#svg-limited-gradient)"></path></g></svg>