<svg width="40" height="41" viewBox="0 0 40 41" fill="none" xmlns="http://www.w3.org/2000/svg">
<path d="M1.21561 22.076C0.505321 20.8359 0.510544 19.3111 1.22931 18.076L8.75029 5.15168C9.46906 3.91653 10.7922 3.15866 12.2212 3.16356L27.1745 3.21477C28.6035 3.21967 29.9214 3.98658 30.6317 5.22662L38.064 18.2021C38.7743 19.4422 38.7691 20.967 38.0503 22.2021L30.5293 35.1264C29.8105 36.3616 28.4874 37.1194 27.0584 37.1145L12.1051 37.0633C10.6761 37.0584 9.35818 36.2915 8.64789 35.0515L1.21561 22.076Z" fill="url(#paint0_radial_1003_277)"/>
<path d="M26.176 3.70236C28.032 3.70236 29.768 4.70236 30.696 6.31036L37.152 17.4864C38.08 19.0944 38.08 21.0944 37.152 22.7024L30.696 33.8784C29.768 35.4864 28.04 36.4864 26.176 36.4864H13.272C11.416 36.4864 9.68 35.4864 8.752 33.8784L2.296 22.7024C1.368 21.0944 1.368 19.0944 2.296 17.4864L8.752 6.31036C9.68 4.70236 11.408 3.70236 13.272 3.70236H26.176ZM26.176 2.10236H13.272C10.84 2.10236 8.584 3.39836 7.368 5.51036L0.912 16.6864C-0.304 18.7984 -0.304 21.3904 0.912 23.5024L7.368 34.6784C8.584 36.7904 10.832 38.0864 13.272 38.0864H26.176C28.608 38.0864 30.864 36.7904 32.08 34.6784L38.536 23.5024C39.752 21.3904 39.752 18.7984 38.536 16.6864L32.08 5.51036C30.864 3.39836 28.616 2.10236 26.176 2.10236Z" fill="url(#paint1_linear_1003_277)"/>
<path d="M9.50666 18.2959L15.1337 10.1641H20.5751L13.5728 20.1335H18.1183L11.0474 23.7366L9.62371 21.9215C9.1184 21.2561 8.88881 20.7505 8.88881 20.0614C8.88656 19.441 9.11614 18.8465 9.50666 18.2959ZM14.1208 26.7035C14.1208 26.1293 14.3459 25.5089 14.7646 24.9121L25.1183 10.1619H31.1112L19.4935 26.7035H24.7301L16.6024 30.8381L14.8569 28.6098C14.3763 27.9894 14.1208 27.3701 14.1208 26.7035Z" fill="white"/>
<defs>
<radialGradient id="paint0_radial_1003_277" cx="0" cy="0" r="1" gradientUnits="userSpaceOnUse" gradientTransform="translate(19.6398 20.139) rotate(0.196235) scale(19.5721)">
<stop stop-color="#898989"/>
<stop offset="0.651042" stop-color="#4D4C4C"/>
<stop offset="0.859375" stop-color="#272727"/>
</radialGradient>
<linearGradient id="paint1_linear_1003_277" x1="20" y1="44.1024" x2="20" y2="0.102355" gradientUnits="userSpaceOnUse">
<stop offset="0.0885417" stop-color="#7B7B7B"/>
<stop offset="0.79" stop-color="#EDEDED"/>
</linearGradient>
</defs>
</svg>
