<svg width="50" height="45" viewBox="0 0 50 45" fill="none" xmlns="http://www.w3.org/2000/svg">
<g clip-path="url(#clip0_41_1394)">
<path d="M1.23261 24.4661C0.522323 23.2261 0.527546 21.7013 1.24631 20.4662L11.2283 3.31278C11.9471 2.07763 13.2702 1.31976 14.6992 1.32466L34.5455 1.39263C35.9746 1.39753 37.2925 2.16444 38.0027 3.40448L47.867 20.6258C48.5773 21.8659 48.5721 23.3907 47.8533 24.6258L37.8713 41.7792C37.1525 43.0144 35.8294 43.7722 34.4004 43.7673L14.5541 43.6994C13.1251 43.6945 11.8072 42.9275 11.0969 41.6875L1.23261 24.4661Z" fill="url(#paint0_radial_41_1394)"/>
<path d="M1.23261 24.4661C0.522323 23.2261 0.527546 21.7013 1.24631 20.4662L11.2283 3.31278C11.9471 2.07763 13.2702 1.31976 14.6992 1.32466L34.5455 1.39263C35.9746 1.39753 37.2925 2.16444 38.0027 3.40448L47.867 20.6258C48.5773 21.8659 48.5721 23.3907 47.8533 24.6258L37.8713 41.7792C37.1525 43.0144 35.8294 43.7722 34.4004 43.7673L14.5541 43.6994C13.1251 43.6945 11.8072 42.9275 11.0969 41.6875L1.23261 24.4661Z" fill="url(#paint1_radial_41_1394)" fill-opacity="0.6"/>
<path d="M1.23261 24.4661C0.522323 23.2261 0.527546 21.7013 1.24631 20.4662L11.2283 3.31278C11.9471 2.07763 13.2702 1.31976 14.6992 1.32466L34.5455 1.39263C35.9746 1.39753 37.2925 2.16444 38.0027 3.40448L47.867 20.6258C48.5773 21.8659 48.5721 23.3907 47.8533 24.6258L37.8713 41.7792C37.1525 43.0144 35.8294 43.7722 34.4004 43.7673L14.5541 43.6994C13.1251 43.6945 11.8072 42.9275 11.0969 41.6875L1.23261 24.4661Z" fill="url(#paint2_radial_41_1394)" fill-opacity="0.6"/>
<path d="M32.72 2C35.04 2 37.21 3.25 38.37 5.26L46.44 19.23C47.6 21.24 47.6 23.74 46.44 25.75L38.37 39.72C37.21 41.73 35.05 42.98 32.72 42.98H16.59C14.27 42.98 12.1 41.73 10.94 39.72L2.87 25.75C1.71 23.74 1.71 21.24 2.87 19.23L10.94 5.26C12.1 3.25 14.26 2 16.59 2H32.72ZM32.72 0H16.59C13.55 0 10.73 1.62 9.21 4.26L1.14 18.23C-0.38 20.87 -0.38 24.11 1.14 26.75L9.21 40.72C10.73 43.36 13.54 44.98 16.59 44.98H32.72C35.76 44.98 38.58 43.36 40.1 40.72L48.17 26.75C49.69 24.11 49.69 20.87 48.17 18.23L40.1 4.26C38.58 1.62 35.77 0 32.72 0Z" fill="url(#paint3_linear_41_1394)"/>
<path d="M15.1255 34.2537C15.1255 34.712 14.9117 34.9561 14.3323 34.9561H13V32.3795H14.2845C14.8827 32.3795 15.0889 32.6161 15.0889 33.0518C15.0889 33.3842 14.9633 33.5363 14.6089 33.6246L14.5423 33.6434L14.6013 33.6546C14.9999 33.7429 15.1255 33.8913 15.1255 34.2537ZM13.6123 33.4555H14.1513C14.3651 33.4555 14.4617 33.3635 14.4617 33.141C14.4617 32.9081 14.3736 32.8161 14.1513 32.8161H13.6123V33.4555ZM14.502 34.1909C14.502 33.9542 14.4064 33.8546 14.1879 33.8546H13.6123V34.5204H14.1879C14.4167 34.5204 14.502 34.4237 14.502 34.1909ZM15.5445 34.1166V32.3795H16.1868V34.0978C16.1868 34.3824 16.3162 34.4894 16.6631 34.4894C17.01 34.4894 17.1394 34.3824 17.1394 34.0978V32.3795H17.7816V34.1166C17.7816 34.7233 17.431 35.0002 16.6631 35.0002C15.8952 35.0002 15.5445 34.7233 15.5445 34.1166ZM20.7922 32.3795V34.9561H20.0103L18.918 33.0931V34.9561H18.3198V32.3795H19.1018L20.194 34.2425V32.3795H20.7922ZM21.321 32.3795H22.4686C23.3687 32.3795 23.605 32.7494 23.605 33.666C23.605 34.5824 23.3462 34.9561 22.4686 34.9561H21.321V32.3795ZM22.4499 34.4641C22.8258 34.4641 22.9477 34.2678 22.9477 33.666C22.9477 33.0641 22.8258 32.8715 22.4499 32.8715H21.9623V34.465L22.4499 34.4641ZM24.0729 32.3795H25.8739V32.8715H24.715V33.4151H25.6779V33.8997H24.715V34.465H25.9002V34.957H24.0738L24.0729 32.3795ZM26.2798 34.8557V34.3533C26.5902 34.4566 26.8668 34.4941 27.1397 34.4941C27.435 34.4941 27.5644 34.4162 27.5644 34.2172C27.5644 34.0434 27.509 33.9918 27.2728 33.9438L26.8444 33.8556C26.3979 33.7636 26.2498 33.5823 26.2498 33.1419C26.2498 32.5766 26.5818 32.3325 27.2502 32.3325C27.5532 32.3325 27.8372 32.3842 28.0697 32.4734V32.9758C27.7932 32.8799 27.5381 32.8386 27.2878 32.8386C26.97 32.8386 26.863 32.9241 26.863 33.1231C26.863 33.2894 26.9372 33.3373 27.1434 33.3823L27.5606 33.4706C28.0444 33.5739 28.1766 33.7363 28.1766 34.1984C28.1766 34.7496 27.8372 35.0002 27.1434 35.0002C26.8405 35.0002 26.549 34.9524 26.2798 34.8557ZM28.6276 32.3795H29.2698V34.4641H30.3733V34.9561H28.6276V32.3795ZM30.7746 32.3795H31.4169V34.9561H30.7746V32.3795ZM34.0759 33.4659V34.8669C33.8359 34.9486 33.5189 35.0002 33.1861 35.0002C32.2925 35.0002 31.8725 34.6049 31.8725 33.666C31.8725 32.7269 32.2935 32.3315 33.1861 32.3315C33.5039 32.3315 33.8059 32.3833 34.0345 32.4762V32.9747C33.7833 32.8894 33.5029 32.8377 33.2376 32.8377C32.6985 32.8377 32.5288 33.0555 32.5288 33.666C32.5288 34.2762 32.706 34.512 33.2152 34.512C33.3296 34.512 33.4439 34.5045 33.5508 34.4894V33.9129H33.0745V33.4659H34.0759ZM36.1732 34.4162H35.1653L34.9844 34.9561H34.3459L35.2647 32.3795H36.0841L36.9992 34.9561H36.3532L36.1732 34.4162ZM35.6753 32.7861L35.3021 33.9505H36.0439L35.6753 32.7861Z" fill="white"/>
<path d="M36.9195 11H13V30.1652H36.9195V11Z" fill="#D20515"/>
<path d="M32.7165 21.0884C32.7295 21.1363 32.6874 21.1691 32.6011 21.232L32.5486 21.2612L32.5665 21.2959C32.5786 21.3184 32.5579 21.3523 32.5214 21.3702L32.4427 21.4095C32.407 21.4283 32.3677 21.4246 32.3565 21.402L32.3395 21.3702L32.2402 21.419L32.2561 21.4527C32.2674 21.4752 32.2458 21.5091 32.2083 21.526L32.1286 21.5635C32.0921 21.5804 32.0535 21.5758 32.0423 21.5523L32.0282 21.5222C31.7217 21.6668 31.3785 21.8199 31.025 21.9842L31.0447 22.0292C31.057 22.0518 31.0345 22.0847 30.9989 22.1016L30.9182 22.1391C30.8816 22.156 30.8422 22.1504 30.8328 22.1279L30.8112 22.0828L30.6978 22.1382L30.7194 22.1842C30.7296 22.2078 30.7091 22.2396 30.6715 22.2575L30.5919 22.294C30.5543 22.311 30.5168 22.3063 30.5056 22.2838L30.485 22.2396C30.3247 22.3035 30.1494 22.3307 30.0218 22.0922C29.9675 21.9814 29.9646 21.727 29.9224 21.5918C29.9008 21.5212 29.8194 21.5091 29.8194 21.5091C28.2611 21.2095 27.7332 21.5428 26.7347 21.2959C26.4206 21.219 26.25 20.9298 25.8627 20.925C25.0227 20.8996 24.7704 20.9119 23.8553 20.8771C23.816 21.0095 23.8113 21.0387 23.8113 21.0387L20.5955 21.0236L21.0867 21.265L21.2443 22.6856C21.2443 22.6856 21.1139 22.7232 21.0764 22.7279C21.1073 23.0134 21.1373 23.3946 21.1533 23.7402C21.1673 24.05 21.1833 24.3731 21.1805 24.5787C21.1796 24.6445 21.1785 24.7947 21.0895 24.9627C21.0315 25.0726 20.9292 25.1627 20.8485 25.2247C20.8195 25.2463 20.6948 25.3309 20.5513 25.4154C20.4032 25.5027 20.2354 25.591 20.1482 25.6323C20.1576 25.6726 20.1829 25.7111 20.1941 25.7431C18.2384 26.6886 15.8148 27.0117 15.03 28.5159C14.939 28.6906 14.6202 28.5995 14.6109 28.4117C14.6071 28.3254 14.609 28.1854 14.6127 28.1075H14.5846C14.5593 28.1057 14.5395 28.0718 14.5423 28.0305L14.5462 27.9422C14.5481 27.9018 14.5705 27.8699 14.5949 27.8709L14.6286 27.8727C14.639 27.7854 14.6549 27.6981 14.6783 27.6154L14.6483 27.6051C14.6249 27.5967 14.6174 27.5582 14.6305 27.5197L14.6595 27.437C14.6737 27.3986 14.7027 27.3751 14.7281 27.3826L14.7571 27.3929C14.8967 27.0671 15.166 26.9206 15.2916 26.6135L15.2718 26.6061C15.2465 26.5966 15.239 26.5591 15.2532 26.5206L15.2822 26.437C15.2962 26.3985 15.3262 26.375 15.3506 26.3835L15.3722 26.391C15.3909 26.3459 15.4125 26.2962 15.4369 26.2473L15.4106 26.2295C15.3881 26.2154 15.3881 26.1769 15.4106 26.1422L15.4584 26.0679C15.479 26.0342 15.5137 26.0173 15.5353 26.0314L15.5465 26.0379L15.5578 26.0407C15.5644 26.0407 15.5672 26.037 15.5737 26.0333C15.5869 26.0191 15.6 26.0061 15.6122 25.9947C15.7416 25.8942 15.8981 25.9111 16.0266 25.9891C16.1494 26.0633 16.6294 26.3375 17.0917 25.9215C17.854 25.2361 18.7456 24.3055 19.416 24.2735C19.2341 23.881 18.9181 23.0584 18.8825 22.7551L18.6574 22.7072C18.5402 22.4547 18.2552 21.2875 18.1746 20.4104C18.1746 20.4104 18.0789 19.4648 18.1708 19.1324C18.1193 19.1268 18.0246 19.2048 17.9984 19.2058C17.8754 18.9043 18.274 16.3568 18.6686 15.6149L19.2734 15.3736C19.2106 15.3661 18.7737 15.3464 17.6242 15.2525C16.9838 15.8205 16.2422 16.4337 15.8662 16.768C15.8025 16.8149 15.6957 17.1793 15.6957 17.1793C15.6957 17.1793 15.5053 17.3464 15.329 17.4695C15.0965 17.6328 14.5274 17.7587 14.4037 17.5652C14.3755 17.5173 14.3802 17.4967 14.4074 17.4685C14.4955 17.3765 14.8283 17.2168 14.9409 17.0056C14.759 17.0967 14.5565 17.1943 14.3981 17.1775C14.3286 17.1737 14.293 17.0037 14.3821 16.9727C14.6239 16.8704 14.8153 16.8263 14.9578 16.6253C15.0946 16.4328 15.2616 16.3032 15.4809 16.2985C15.4809 16.2985 16.5498 14.9004 17.1798 14.2364C17.3542 14.0543 17.6777 14.1144 17.6777 14.1144L17.7321 13.9021C17.7321 13.9021 19.8922 13.644 20.8973 13.9773C20.8739 13.366 21.1476 12.5537 22.1031 12.5537C22.5944 12.5537 23.3172 12.9885 23.4137 13.5163C23.4437 13.6787 23.35 13.7867 23.3003 13.9923C23.2151 14.3032 23.3341 14.6487 23.2975 14.7576C23.2693 14.8468 23.1691 14.8393 23.0819 14.9604C22.9881 15.0919 22.884 15.3332 22.884 15.3332L22.7537 15.6261L22.0805 15.5773C21.8349 16.1097 21.3277 17.1943 21.1524 18.2695C21.6812 18.3145 24.0776 18.662 24.0776 18.662L24.1357 18.8574C24.1357 18.8574 25.1455 18.9784 25.9715 19.3728C26.1562 19.4179 26.6203 19.3484 26.925 19.4883C26.9456 19.4762 26.9963 19.4244 27.015 19.4104C28.0923 19.7428 28.983 20.308 30.0218 20.5598C30.0218 20.5598 30.5075 20.678 30.6706 20.71C31.055 20.7851 31.3007 20.8011 31.5042 20.8171C31.837 20.8434 32.0217 20.8387 32.2645 20.8527C32.437 20.8631 32.647 20.8339 32.7155 21.0856M34.2578 17.8047C33.5237 17.8047 32.9293 18.4009 32.9293 19.1352C32.9293 19.8696 33.5246 20.4659 34.2578 20.4659C34.991 20.4659 35.5863 19.8696 35.5863 19.1352C35.5863 18.4009 34.991 17.8047 34.2578 17.8047Z" fill="white"/>
</g>
<defs>
<radialGradient id="paint0_radial_41_1394" cx="0" cy="0" r="1" gradientUnits="userSpaceOnUse" gradientTransform="translate(24.5498 22.546) rotate(0.196235) scale(24.4652)">
<stop stop-color="#898989"/>
<stop offset="0.651042" stop-color="#4D4C4C"/>
<stop offset="0.859375" stop-color="#272727"/>
</radialGradient>
<radialGradient id="paint1_radial_41_1394" cx="0" cy="0" r="1" gradientUnits="userSpaceOnUse" gradientTransform="translate(-31.5 23) scale(54.5 125.986)">
<stop offset="0.521599"/>
<stop offset="0.811569" stop-opacity="0"/>
</radialGradient>
<radialGradient id="paint2_radial_41_1394" cx="0" cy="0" r="1" gradientUnits="userSpaceOnUse" gradientTransform="translate(79 23) rotate(180) scale(56 129.454)">
<stop offset="0.477866"/>
<stop offset="0.759042" stop-opacity="0"/>
</radialGradient>
<linearGradient id="paint3_linear_41_1394" x1="25" y1="52.5" x2="25" y2="-2.5" gradientUnits="userSpaceOnUse">
<stop offset="0.0885417" stop-color="#7B7B7B"/>
<stop offset="0.79" stop-color="#EDEDED"/>
</linearGradient>
<clipPath id="clip0_41_1394">
<rect width="49.3" height="44.98" fill="white"/>
</clipPath>
</defs>
</svg>
