<svg width="50" height="45" viewBox="0 0 50 45" fill="none" xmlns="http://www.w3.org/2000/svg">
<g clip-path="url(#clip0_247_64500)">
<path d="M1.23261 24.4661C0.522323 23.2261 0.527546 21.7013 1.24631 20.4662L11.2283 3.31278C11.9471 2.07763 13.2702 1.31976 14.6992 1.32466L34.5455 1.39263C35.9746 1.39753 37.2925 2.16444 38.0027 3.40448L47.867 20.6258C48.5773 21.8659 48.5721 23.3907 47.8533 24.6258L37.8713 41.7792C37.1525 43.0144 35.8294 43.7722 34.4004 43.7673L14.5541 43.6994C13.1251 43.6945 11.8072 42.9275 11.0969 41.6875L1.23261 24.4661Z" fill="url(#paint0_radial_247_64500)"/>
<path d="M1.23261 24.4661C0.522323 23.2261 0.527546 21.7013 1.24631 20.4662L11.2283 3.31278C11.9471 2.07763 13.2702 1.31976 14.6992 1.32466L34.5455 1.39263C35.9746 1.39753 37.2925 2.16444 38.0027 3.40448L47.867 20.6258C48.5773 21.8659 48.5721 23.3907 47.8533 24.6258L37.8713 41.7792C37.1525 43.0144 35.8294 43.7722 34.4004 43.7673L14.5541 43.6994C13.1251 43.6945 11.8072 42.9275 11.0969 41.6875L1.23261 24.4661Z" fill="url(#paint1_radial_247_64500)" fill-opacity="0.6"/>
<path d="M1.23261 24.4661C0.522323 23.2261 0.527546 21.7013 1.24631 20.4662L11.2283 3.31278C11.9471 2.07763 13.2702 1.31976 14.6992 1.32466L34.5455 1.39263C35.9746 1.39753 37.2925 2.16444 38.0027 3.40448L47.867 20.6258C48.5773 21.8659 48.5721 23.3907 47.8533 24.6258L37.8713 41.7792C37.1525 43.0144 35.8294 43.7722 34.4004 43.7673L14.5541 43.6994C13.1251 43.6945 11.8072 42.9275 11.0969 41.6875L1.23261 24.4661Z" fill="url(#paint2_radial_247_64500)" fill-opacity="0.6"/>
<path d="M32.72 2C35.04 2 37.21 3.25 38.37 5.26L46.44 19.23C47.6 21.24 47.6 23.74 46.44 25.75L38.37 39.72C37.21 41.73 35.05 42.98 32.72 42.98H16.59C14.27 42.98 12.1 41.73 10.94 39.72L2.87 25.75C1.71 23.74 1.71 21.24 2.87 19.23L10.94 5.26C12.1 3.25 14.26 2 16.59 2H32.72ZM32.72 0H16.59C13.55 0 10.73 1.62 9.21 4.26L1.14 18.23C-0.38 20.87 -0.38 24.11 1.14 26.75L9.21 40.72C10.73 43.36 13.54 44.98 16.59 44.98H32.72C35.76 44.98 38.58 43.36 40.1 40.72L48.17 26.75C49.69 24.11 49.69 20.87 48.17 18.23L40.1 4.26C38.58 1.62 35.77 0 32.72 0Z" fill="url(#paint3_linear_247_64500)"/>
<path d="M36.9984 12.458V11H13.1271V12.458C13.1271 12.458 13.1271 20.6343 13.1271 20.6837C13.1271 22.4504 13.4183 24.1869 13.991 25.8438C14.4687 27.2254 15.1331 28.5289 15.9729 29.7306L13 32.6704L15.0832 34.7316L17.8663 31.9781C18.5323 32.6338 19.2562 33.2339 20.0316 33.7687C21.444 34.7428 22.9964 35.4829 24.6421 35.9684L25.0619 36.0925L25.4818 35.9684C27.1275 35.4829 28.6783 34.7444 30.0923 33.7687C31.4854 32.8073 32.7112 31.6422 33.7376 30.3036C34.7752 28.9491 35.5827 27.4498 36.1361 25.847C36.7088 24.1901 37 22.4536 37 20.6868C37 20.6375 37 12.458 37 12.458" fill="white"/>
<mask id="mask0_247_64500" style="mask-type:luminance" maskUnits="userSpaceOnUse" x="14" y="12" width="22" height="18">
<path d="M14.6006 12.4341C14.6006 12.4341 14.6006 20.6232 14.6006 20.6725C14.6006 24.163 15.8473 27.3638 17.9241 29.8659L35.5248 12.45V12.4341H14.6006Z" fill="white"/>
</mask>
<g mask="url(#mask0_247_64500)">
<path d="M35.5264 12.4341H14.6006V29.8659H35.5264V12.4341Z" fill="url(#paint4_linear_247_64500)"/>
</g>
<path d="M25.0632 34.5642C31.1135 32.7831 35.5261 27.2362 35.5261 20.6706C35.5261 20.6229 35.5261 12.8444 35.5261 12.4497L17.9238 29.864C19.7545 32.0685 22.2287 33.7286 25.0632 34.5626" fill="white"/>
<path d="M18.0187 27.4941L17.89 27.6215L18.2455 27.9732L18.1635 28.0544L17.8079 27.7026L17.6792 27.83L17.6133 27.7647L17.9527 27.4289L18.0187 27.4941ZM18.5721 27.4066L18.3871 26.9975L18.5045 26.8813L18.926 27.2984L18.8488 27.3748L18.519 27.0485H18.5174L18.7217 27.5021L18.6638 27.5594L18.2069 27.3573H18.2053L18.5351 27.6851L18.4578 27.7615L18.0364 27.3445L18.1554 27.2267L18.5705 27.4082L18.5721 27.4066Z" fill="white"/>
<path d="M22.5202 20.6594L22.7872 21.4728L22.0875 20.9698L21.3893 21.4728L21.6563 20.6594L20.9565 20.1565H21.8204L22.0875 19.3447L22.3545 20.1565H23.2184L22.5202 20.6594Z" fill="white"/>
<path d="M18.4971 20.6594L19.1969 20.1565H18.333L18.066 19.3447L17.7989 20.1565H16.9351L17.6332 20.6594L17.3662 21.4728L18.066 20.9698L18.7641 21.4728L18.4971 20.6594Z" fill="white"/>
<path d="M20.3437 22.8055L20.0767 21.9922L19.8097 22.8055H18.9458L19.644 23.3069L19.3785 24.1202L20.0767 23.6189L20.7749 24.1202L20.5094 23.3069L21.2076 22.8055H20.3437Z" fill="white"/>
<path d="M17.7296 17.4765L16.9365 15.6906H16.9107V18.0733C16.9107 18.1115 16.885 18.1354 16.848 18.1354H16.137C16.0983 18.1354 16.0742 18.1099 16.0742 18.0733V13.9669C16.0742 13.9287 16.1 13.9048 16.137 13.9048H16.885C16.9349 13.9048 16.967 13.9239 16.9847 13.9669L18.0674 16.3814H18.0931L19.1565 13.9669C19.1758 13.9239 19.2063 13.9048 19.2578 13.9048H19.993C20.0316 13.9048 20.0557 13.9303 20.0557 13.9669V18.0733C20.0557 18.1115 20.0316 18.1354 19.993 18.1354H19.2819C19.2449 18.1354 19.2192 18.1099 19.2192 18.0733V15.6906H19.1935L18.4004 17.4765C18.3746 17.5322 18.3376 17.5576 18.2797 17.5576H17.8454C17.7891 17.5576 17.7521 17.5322 17.7263 17.4765" fill="white"/>
<path d="M20.6942 18.137H23.4805C23.5191 18.137 23.5432 18.1115 23.5432 18.0749V17.3842C23.5432 17.3475 23.5175 17.3221 23.4805 17.3221H21.5935C21.5677 17.3221 21.5549 17.3093 21.5549 17.2839V13.9669C21.5549 13.9287 21.5307 13.9048 21.4921 13.9048H20.6926C20.6556 13.9048 20.6299 13.9287 20.6299 13.9669V18.0733C20.6299 18.1115 20.6556 18.1354 20.6926 18.1354" fill="white"/>
<path d="M25.8641 15.5902L25.6372 15.5584C25.1466 15.4899 24.9712 15.3339 24.9712 15.092C24.9712 14.8246 25.1659 14.632 25.5439 14.632C25.8962 14.632 26.2099 14.7434 26.5381 14.9551C26.5703 14.9742 26.6008 14.9679 26.6266 14.936L27.0111 14.3694C27.0432 14.3264 27.0368 14.301 26.9982 14.2755C26.6395 14.0017 26.1118 13.833 25.5455 13.833C24.6206 13.833 24.0302 14.3487 24.0302 15.127C24.0302 15.9053 24.5144 16.2778 25.3831 16.3972L25.6099 16.4274C26.1199 16.4959 26.2695 16.6518 26.2695 16.9001C26.2695 17.1994 26.0185 17.4047 25.5713 17.4047C25.1241 17.4047 24.7348 17.193 24.4516 16.9686C24.4195 16.9431 24.3825 16.9431 24.3567 16.9749L23.8789 17.5161C23.8468 17.5543 23.8596 17.5973 23.8854 17.6227C24.2184 17.9395 24.8667 18.2005 25.5327 18.2005C26.6395 18.2005 27.2121 17.6339 27.2121 16.8683C27.2121 16.1027 26.7472 15.7048 25.8657 15.587" fill="white"/>
<mask id="mask1_247_64500" style="mask-type:luminance" maskUnits="userSpaceOnUse" x="14" y="11" width="23" height="25">
<path d="M21.1559 32.1656C20.2068 31.5114 19.3477 30.7475 18.5884 29.888L35.0341 13.618C35.0341 15.8893 35.0341 20.6341 35.0341 20.6707C35.0341 22.2241 34.7799 23.7489 34.2764 25.2037C33.7905 26.6107 33.0827 27.927 32.1706 29.1176C31.2697 30.2954 30.1919 31.3204 28.9677 32.1656C27.7676 32.9949 26.4533 33.6299 25.0618 34.0549C23.6687 33.6299 22.356 32.9933 21.1559 32.1656ZM17.953 29.1176C17.0425 27.927 16.3331 26.6107 15.8472 25.2037C15.3453 23.7489 15.0896 22.2241 15.0896 20.6707C15.0896 20.6293 15.0896 14.6797 15.0896 12.9193H34.3488L17.9643 29.1319C17.9643 29.1319 17.9562 29.1224 17.953 29.1176ZM14.1099 11.9468V12.4322C14.1099 12.4322 14.1099 20.6213 14.1099 20.6707C14.1099 22.3308 14.3817 23.9606 14.9206 25.5173C15.4402 27.0214 16.1979 28.43 17.1728 29.7033C17.2034 29.7431 17.2355 29.7829 17.2661 29.8227L14.3914 32.667L15.0863 33.3546L17.8951 30.5756C18.6962 31.4732 19.6003 32.2739 20.5961 32.9614C21.9233 33.8782 23.3791 34.5722 24.9251 35.0274L25.065 35.0688L25.205 35.0274C26.7509 34.5722 28.2068 33.8767 29.534 32.9614C30.8418 32.059 31.9936 30.9623 32.9572 29.7033C33.9321 28.43 34.6898 27.0214 35.2094 25.5173C35.7467 23.9606 36.0202 22.3292 36.0202 20.6707C36.0202 20.6213 36.0202 12.4322 36.0202 12.4322V11.9468H14.1099Z" fill="white"/>
</mask>
<g mask="url(#mask1_247_64500)">
<path d="M36.0171 11.9468H14.1084V35.0704H36.0171V11.9468Z" fill="url(#paint5_radial_247_64500)"/>
</g>
</g>
<defs>
<radialGradient id="paint0_radial_247_64500" cx="0" cy="0" r="1" gradientUnits="userSpaceOnUse" gradientTransform="translate(24.5498 22.546) rotate(0.196235) scale(24.4652)">
<stop stop-color="#898989"/>
<stop offset="0.651042" stop-color="#4D4C4C"/>
<stop offset="0.859375" stop-color="#272727"/>
</radialGradient>
<radialGradient id="paint1_radial_247_64500" cx="0" cy="0" r="1" gradientUnits="userSpaceOnUse" gradientTransform="translate(-31.5 23) scale(54.5 125.986)">
<stop offset="0.521599"/>
<stop offset="0.811569" stop-opacity="0"/>
</radialGradient>
<radialGradient id="paint2_radial_247_64500" cx="0" cy="0" r="1" gradientUnits="userSpaceOnUse" gradientTransform="translate(79 23) rotate(180) scale(56 129.454)">
<stop offset="0.477866"/>
<stop offset="0.759042" stop-opacity="0"/>
</radialGradient>
<linearGradient id="paint3_linear_247_64500" x1="25" y1="52.5" x2="25" y2="-2.5" gradientUnits="userSpaceOnUse">
<stop offset="0.0885417" stop-color="#7B7B7B"/>
<stop offset="0.79" stop-color="#EDEDED"/>
</linearGradient>
<linearGradient id="paint4_linear_247_64500" x1="14.63" y1="20.9759" x2="35.5558" y2="20.9759" gradientUnits="userSpaceOnUse">
<stop stop-color="#DC1915"/>
<stop offset="0.18" stop-color="#D61916"/>
<stop offset="0.41" stop-color="#C61B1A"/>
<stop offset="0.67" stop-color="#AC1F20"/>
<stop offset="0.94" stop-color="#872328"/>
<stop offset="1" stop-color="#7F252B"/>
</linearGradient>
<radialGradient id="paint5_radial_247_64500" cx="0" cy="0" r="1" gradientUnits="userSpaceOnUse" gradientTransform="translate(25.246 23.8779) scale(11.3252 11.2053)">
<stop stop-color="#2198D5"/>
<stop offset="0.14" stop-color="#2192CE"/>
<stop offset="0.34" stop-color="#2182BC"/>
<stop offset="0.57" stop-color="#21689F"/>
<stop offset="0.82" stop-color="#214476"/>
<stop offset="1" stop-color="#222754"/>
</radialGradient>
<clipPath id="clip0_247_64500">
<rect width="49.3" height="44.98" fill="white"/>
</clipPath>
</defs>
</svg>
