<svg width="55" height="46" viewBox="0 0 55 46" fill="none" xmlns="http://www.w3.org/2000/svg">
<g clip-path="url(#clip0_41_1384)">
<path d="M3.03002 44.3601H51.89L53.21 39.9301L29.76 1.39014H24.65L1.52002 39.9301L3.03002 44.3601Z" fill="#291B0E"/>
<path d="M3.03002 44.3601H51.89L53.21 39.9301L29.76 1.39014H24.65L1.52002 39.9301L3.03002 44.3601Z" fill="url(#paint0_radial_41_1384)" fill-opacity="0.3"/>
<path d="M3.03002 44.3601H51.89L53.21 39.9301L29.76 1.39014H24.65L1.52002 39.9301L3.03002 44.3601Z" fill="#291B0E"/>
<path d="M3.03002 44.3601H51.89L53.21 39.9301L29.76 1.39014H24.65L1.52002 39.9301L3.03002 44.3601Z" fill="url(#paint1_radial_41_1384)" fill-opacity="0.3"/>
<mask id="mask0_41_1384" style="mask-type:alpha" maskUnits="userSpaceOnUse" x="1" y="1" width="53" height="44">
<path d="M2.56825 43.0054C2.84438 43.8155 3.60541 44.3601 4.4613 44.3601H50.3991C51.2837 44.3601 52.0632 43.779 52.3158 42.9313L52.9563 40.7817C53.1178 40.2396 53.0422 39.6543 52.7481 39.171L30.3444 2.35054C29.9815 1.75415 29.3339 1.39014 28.6358 1.39014H25.7822C25.0798 1.39014 24.4289 1.75865 24.0674 2.36095L1.99767 39.1343C1.69475 39.639 1.62957 40.2515 1.81949 40.8087L2.56825 43.0054Z" fill="#D9D9D9"/>
</mask>
<g mask="url(#mask0_41_1384)">
<g filter="url(#filter0_f_41_1384)">
<path d="M27 48C38.0457 48 47 39.2696 47 28.5C47 17.7304 38.0457 9 27 9C15.9543 9 7 17.7304 7 28.5C7 39.2696 15.9543 48 27 48Z" fill="url(#paint2_linear_41_1384)"/>
</g>
</g>
<path d="M2.56825 43.0054C2.84438 43.8155 3.60541 44.3601 4.4613 44.3601H50.3991C51.2837 44.3601 52.0632 43.779 52.3158 42.9313L52.9563 40.7817C53.1178 40.2396 53.0422 39.6543 52.7481 39.171L30.3444 2.35054C29.9815 1.75415 29.3339 1.39014 28.6358 1.39014H25.7822C25.0798 1.39014 24.4289 1.75865 24.0674 2.36095L1.99767 39.1343C1.69475 39.639 1.62957 40.2515 1.81949 40.8087L2.56825 43.0054Z" stroke="url(#paint3_linear_41_1384)" stroke-width="2" stroke-miterlimit="10"/>
<path d="M18.7712 37.3781C18.7712 37.76 18.5931 37.9635 18.1102 37.9635H17V35.8164H18.0704C18.5689 35.8164 18.7408 36.0135 18.7408 36.3766C18.7408 36.6536 18.6361 36.7804 18.3408 36.8539L18.2852 36.8696L18.3344 36.8789C18.6666 36.9525 18.7712 37.0761 18.7712 37.3781ZM17.5102 36.713H17.9594C18.1376 36.713 18.2181 36.6364 18.2181 36.4509C18.2181 36.2568 18.1447 36.1801 17.9594 36.1801H17.5102V36.713ZM18.2517 37.3258C18.2517 37.1286 18.172 37.0456 17.9899 37.0456H17.5102V37.6004H17.9899C18.1806 37.6004 18.2517 37.5198 18.2517 37.3258ZM19.1204 37.2639V35.8164H19.6557V37.2483C19.6557 37.4854 19.7634 37.5746 20.0526 37.5746C20.3417 37.5746 20.4494 37.4854 20.4494 37.2483V35.8164H20.9847V37.2639C20.9847 37.7695 20.6924 38.0003 20.0526 38.0003C19.4127 38.0003 19.1204 37.7695 19.1204 37.2639ZM23.4934 35.8164V37.9635H22.8419L21.9317 36.411V37.9635H21.4331V35.8164H22.0848L22.995 37.3688V35.8164H23.4934ZM23.9341 35.8164H24.8904C25.6406 35.8164 25.8374 36.1246 25.8374 36.8884C25.8374 37.652 25.6218 37.9635 24.8904 37.9635H23.9341V35.8164ZM24.8749 37.5535C25.1881 37.5535 25.2897 37.3899 25.2897 36.8884C25.2897 36.3868 25.1881 36.2264 24.8749 36.2264H24.4686V37.5543L24.8749 37.5535ZM26.2273 35.8164H27.7282V36.2264H26.7624V36.6794H27.5649V37.0831H26.7624V37.5543H27.7501V37.9643H26.2281L26.2273 35.8164ZM28.0664 37.8798V37.4611C28.3251 37.5473 28.5556 37.5785 28.783 37.5785C29.0291 37.5785 29.1369 37.5136 29.1369 37.3477C29.1369 37.2029 29.0908 37.1599 28.8939 37.1199L28.5369 37.0464C28.1649 36.9697 28.0414 36.8187 28.0414 36.4517C28.0414 35.9806 28.3181 35.7771 28.8751 35.7771C29.1276 35.7771 29.3642 35.8203 29.558 35.8946V36.3133C29.3276 36.2334 29.115 36.1989 28.9064 36.1989C28.6416 36.1989 28.5524 36.2701 28.5524 36.436C28.5524 36.5746 28.6142 36.6145 28.7861 36.652L29.1338 36.7256C29.5369 36.8117 29.6471 36.947 29.6471 37.332C29.6471 37.7914 29.3642 38.0003 28.7861 38.0003C28.5337 38.0003 28.2908 37.9604 28.0664 37.8798ZM30.0229 35.8164H30.5581V37.5535H31.4777V37.9635H30.0229V35.8164ZM31.8121 35.8164H32.3473V37.9635H31.8121V35.8164ZM34.5631 36.7217V37.8891C34.3631 37.9573 34.099 38.0003 33.8217 38.0003C33.077 38.0003 32.727 37.6708 32.727 36.8884C32.727 36.1058 33.0778 35.7764 33.8217 35.7764C34.0864 35.7764 34.3381 35.8195 34.5287 35.8969V36.3124C34.3193 36.2413 34.0857 36.1981 33.8646 36.1981C33.4153 36.1981 33.2739 36.3797 33.2739 36.8884C33.2739 37.3969 33.4216 37.5934 33.8459 37.5934C33.9412 37.5934 34.0364 37.5871 34.1256 37.5746V37.0941H33.7287V36.7217H34.5631ZM36.3109 37.5136H35.471L35.3202 37.9635H34.7881L35.5538 35.8164H36.2367L36.9992 37.9635H36.4609L36.3109 37.5136ZM35.896 36.1551L35.585 37.1255H36.2031L35.896 36.1551Z" fill="white"/>
<path d="M36.9328 18H17V33.9709H36.9328V18Z" fill="#D20515"/>
<path d="M33.4301 26.4071C33.441 26.447 33.4059 26.4744 33.334 26.5268L33.2902 26.5511L33.3051 26.58C33.3152 26.5988 33.298 26.627 33.2676 26.6419L33.202 26.6747C33.1722 26.6904 33.1395 26.6873 33.1301 26.6685L33.116 26.6419L33.0332 26.6826L33.0465 26.7107C33.0559 26.7295 33.0379 26.7577 33.0067 26.7718L32.9402 26.803C32.9098 26.8171 32.8777 26.8133 32.8684 26.7937L32.8566 26.7686C32.6011 26.8891 32.3151 27.0167 32.0206 27.1536L32.037 27.1911C32.0472 27.2099 32.0285 27.2374 31.9988 27.2515L31.9316 27.2827C31.9011 27.2968 31.8682 27.2921 31.8605 27.2734L31.8425 27.2358L31.7479 27.2819L31.7659 27.3203C31.7745 27.3399 31.7573 27.3665 31.726 27.3814L31.6597 27.4118C31.6283 27.4259 31.5971 27.422 31.5878 27.4033L31.5706 27.3665C31.437 27.4197 31.2909 27.4424 31.1846 27.2436C31.1393 27.1513 31.1369 26.9393 31.1018 26.8266C31.0838 26.7678 31.0159 26.7577 31.0159 26.7577C29.7173 26.508 29.2775 26.7858 28.4453 26.58C28.1836 26.5159 28.0415 26.2749 27.7187 26.2709C27.0187 26.2498 26.8085 26.26 26.0459 26.231C26.0131 26.3414 26.0092 26.3657 26.0092 26.3657L23.3293 26.3531L23.7387 26.5543L23.87 27.7381C23.87 27.7381 23.7613 27.7695 23.7301 27.7734C23.7559 28.0113 23.7809 28.3289 23.7942 28.6169C23.8059 28.8751 23.8192 29.1444 23.8169 29.3157C23.8161 29.3705 23.8152 29.4957 23.741 29.6357C23.6927 29.7273 23.6075 29.8024 23.5402 29.854C23.516 29.872 23.4121 29.9425 23.2926 30.0129C23.1691 30.0857 23.0293 30.1593 22.9567 30.1937C22.9645 30.2273 22.9856 30.2594 22.9949 30.286C21.3651 31.0739 19.3455 31.3431 18.6915 32.5967C18.6157 32.7423 18.35 32.6664 18.3422 32.5098C18.3391 32.4379 18.3407 32.3213 18.3438 32.2564H18.3203C18.2992 32.2548 18.2828 32.2266 18.2851 32.1921L18.2883 32.1186C18.2899 32.0849 18.3086 32.0584 18.3289 32.0591L18.357 32.0607C18.3657 31.9879 18.3789 31.9151 18.3985 31.8463L18.3735 31.8377C18.3539 31.8307 18.3477 31.7986 18.3586 31.7665L18.3828 31.6976C18.3946 31.6656 18.4188 31.646 18.4399 31.6523L18.4641 31.6608C18.5805 31.3894 18.8048 31.2673 18.9095 31.0114L18.893 31.0051C18.8719 30.9973 18.8657 30.966 18.8775 30.9339L18.9017 30.8643C18.9133 30.8321 18.9383 30.8126 18.9587 30.8197L18.9767 30.8259C18.9922 30.7884 19.0102 30.7469 19.0306 30.7061L19.0087 30.6914C18.9899 30.6796 18.9899 30.6475 19.0087 30.6186L19.0485 30.5567C19.0657 30.5286 19.0946 30.5145 19.1126 30.5263L19.1219 30.5317L19.1313 30.534C19.1368 30.534 19.1391 30.5309 19.1446 30.5278C19.1556 30.516 19.1665 30.5051 19.1767 30.4957C19.2845 30.4119 19.4149 30.426 19.522 30.491C19.6243 30.5528 20.0243 30.7814 20.4096 30.4347C21.0448 29.8635 21.7878 29.088 22.3465 29.0614C22.1949 28.7343 21.9316 28.0488 21.9019 27.796L21.7143 27.7561C21.6167 27.5457 21.3791 26.573 21.312 25.8421C21.312 25.8421 21.2322 25.0541 21.3088 24.7771C21.2659 24.7725 21.187 24.8375 21.1651 24.8383C21.0627 24.587 21.3948 22.4641 21.7237 21.8459L22.2277 21.6448C22.1753 21.6386 21.8112 21.6221 20.8533 21.5439C20.3197 22.0173 19.7017 22.5283 19.3883 22.8068C19.3352 22.8459 19.2462 23.1496 19.2462 23.1496C19.2462 23.1496 19.0876 23.2888 18.9407 23.3914C18.7469 23.5275 18.2727 23.6324 18.1696 23.4711C18.1461 23.4313 18.15 23.414 18.1727 23.3906C18.2461 23.3139 18.5235 23.1808 18.6172 23.0048C18.4657 23.0807 18.2969 23.162 18.1649 23.148C18.107 23.1449 18.0773 23.0033 18.1516 22.9774C18.3531 22.8921 18.5126 22.8554 18.6313 22.6879C18.7453 22.5275 18.8845 22.4195 19.0672 22.4156C19.0672 22.4156 19.958 21.2505 20.483 20.6971C20.6283 20.5454 20.8979 20.5955 20.8979 20.5955L20.9432 20.4186C20.9432 20.4186 22.7433 20.2035 23.5809 20.4813C23.5613 19.9718 23.7895 19.2949 24.5857 19.2949C24.9951 19.2949 25.5975 19.6573 25.6779 20.097C25.7029 20.2324 25.6248 20.3224 25.5833 20.4937C25.5123 20.7528 25.6116 21.0407 25.581 21.1315C25.5576 21.2058 25.474 21.1996 25.4013 21.3005C25.3232 21.41 25.2365 21.6111 25.2365 21.6111L25.1279 21.8553L24.5669 21.8146C24.3622 22.2583 23.9396 23.162 23.7935 24.058C24.2341 24.0956 26.2311 24.3851 26.2311 24.3851L26.2796 24.5479C26.2796 24.5479 27.121 24.6488 27.8093 24.9775C27.9632 25.015 28.35 24.9571 28.6039 25.0737C28.6211 25.0636 28.6633 25.0205 28.6789 25.0088C29.5767 25.2858 30.3189 25.7568 31.1846 25.9666C31.1846 25.9666 31.5893 26.0651 31.7252 26.0918C32.0456 26.1544 32.2503 26.1677 32.4199 26.181C32.6972 26.2029 32.8511 26.199 33.0535 26.2107C33.1972 26.2194 33.3722 26.195 33.4294 26.4048M34.7146 23.6707C34.1028 23.6707 33.6075 24.1676 33.6075 24.7795C33.6075 25.3915 34.1036 25.8884 34.7146 25.8884C35.3256 25.8884 35.8217 25.3915 35.8217 24.7795C35.8217 24.1676 35.3256 23.6707 34.7146 23.6707Z" fill="white"/>
</g>
<defs>
<filter id="filter0_f_41_1384" x="-2" y="0" width="58" height="57" filterUnits="userSpaceOnUse" color-interpolation-filters="sRGB">
<feFlood flood-opacity="0" result="BackgroundImageFix"/>
<feBlend mode="normal" in="SourceGraphic" in2="BackgroundImageFix" result="shape"/>
<feGaussianBlur stdDeviation="4.5" result="effect1_foregroundBlur_41_1384"/>
</filter>
<radialGradient id="paint0_radial_41_1384" cx="0" cy="0" r="1" gradientUnits="userSpaceOnUse" gradientTransform="translate(27.365 26) rotate(90) scale(26.5 31.8777)">
<stop offset="0.505208" stop-color="#B97F01" stop-opacity="0"/>
<stop offset="0.947917" stop-color="#B97F01"/>
</radialGradient>
<radialGradient id="paint1_radial_41_1384" cx="0" cy="0" r="1" gradientUnits="userSpaceOnUse" gradientTransform="translate(27.365 26) rotate(90) scale(26.5 31.8777)">
<stop offset="0.505208" stop-color="#B97F01" stop-opacity="0"/>
<stop offset="0.947917" stop-color="#B97F01"/>
</radialGradient>
<linearGradient id="paint2_linear_41_1384" x1="27" y1="19.6935" x2="27" y2="48" gradientUnits="userSpaceOnUse">
<stop stop-color="#91660A"/>
<stop offset="1" stop-color="#46300D"/>
</linearGradient>
<linearGradient id="paint3_linear_41_1384" x1="22" y1="-1.5" x2="46.5" y2="56" gradientUnits="userSpaceOnUse">
<stop stop-color="#FFEA00"/>
<stop offset="0.87" stop-color="#B87E00"/>
</linearGradient>
<clipPath id="clip0_41_1384">
<rect width="54.72" height="45.75" fill="white"/>
</clipPath>
</defs>
</svg>
