<svg width="54" height="54" viewBox="0 0 54 54" fill="none" xmlns="http://www.w3.org/2000/svg">
<path d="M2.51 48.97H51.37L52.69 44.54L29.24 6H24.13L1 44.54L2.51 48.97Z" fill="#291B0E"/>
<path d="M2.51 48.97H51.37L52.69 44.54L29.24 6H24.13L1 44.54L2.51 48.97Z" fill="url(#paint0_radial_41_1167)" fill-opacity="0.3"/>
<path d="M2.51 48.97H51.37L52.69 44.54L29.24 6H24.13L1 44.54L2.51 48.97Z" fill="#291B0E"/>
<path d="M2.51 48.97H51.37L52.69 44.54L29.24 6H24.13L1 44.54L2.51 48.97Z" fill="url(#paint1_radial_41_1167)" fill-opacity="0.3"/>
<mask id="mask0_41_1167" style="mask-type:alpha" maskUnits="userSpaceOnUse" x="1" y="6" width="52" height="43">
<path d="M2.04823 47.6153C2.32436 48.4254 3.08539 48.97 3.94128 48.97H49.879C50.7636 48.97 51.5432 48.3889 51.7958 47.5411L52.4362 45.3916C52.5978 44.8494 52.5222 44.2642 52.2281 43.7809L29.8244 6.9604C29.4615 6.36401 28.8139 6 28.1158 6H25.2622C24.5598 6 23.9088 6.36851 23.5474 6.97081L1.47765 43.7441C1.17473 44.2489 1.10955 44.8614 1.29947 45.4186L2.04823 47.6153Z" fill="#D9D9D9"/>
</mask>
<g mask="url(#mask0_41_1167)">
<g filter="url(#filter0_f_41_1167)">
<path d="M26.48 52.6099C37.5257 52.6099 46.48 43.8794 46.48 33.1099C46.48 22.3403 37.5257 13.6099 26.48 13.6099C15.4343 13.6099 6.47998 22.3403 6.47998 33.1099C6.47998 43.8794 15.4343 52.6099 26.48 52.6099Z" fill="url(#paint2_linear_41_1167)"/>
</g>
</g>
<path d="M2.04823 47.6153C2.32436 48.4254 3.08539 48.97 3.94128 48.97H49.879C50.7636 48.97 51.5432 48.3889 51.7958 47.5411L52.4362 45.3916C52.5978 44.8494 52.5222 44.2642 52.2281 43.7809L29.8244 6.9604C29.4615 6.36401 28.8139 6 28.1158 6H25.2622C24.5598 6 23.9088 6.36851 23.5474 6.97081L1.47765 43.7441C1.17473 44.2489 1.10955 44.8614 1.29947 45.4186L2.04823 47.6153Z" stroke="url(#paint3_linear_41_1167)" stroke-width="2" stroke-miterlimit="10"/>
<mask id="mask1_41_1167" style="mask-type:alpha" maskUnits="userSpaceOnUse" x="14" y="19" width="26" height="26">
<circle cx="26.98" cy="32.1099" r="12.5" fill="#D9D9D9"/>
</mask>
<g mask="url(#mask1_41_1167)">
<rect x="21.48" y="19.6099" width="11" height="25" fill="white"/>
<rect x="12.48" y="16.6099" width="10" height="29" fill="#2301FF"/>
<rect x="31.48" y="15.6099" width="10" height="33" fill="#FF0101"/>
</g>
<circle cx="26.98" cy="32.1099" r="12.5" fill="url(#paint4_linear_41_1167)"/>
<defs>
<filter id="filter0_f_41_1167" x="-2.52002" y="4.60986" width="58" height="57" filterUnits="userSpaceOnUse" color-interpolation-filters="sRGB">
<feFlood flood-opacity="0" result="BackgroundImageFix"/>
<feBlend mode="normal" in="SourceGraphic" in2="BackgroundImageFix" result="shape"/>
<feGaussianBlur stdDeviation="4.5" result="effect1_foregroundBlur_41_1167"/>
</filter>
<radialGradient id="paint0_radial_41_1167" cx="0" cy="0" r="1" gradientUnits="userSpaceOnUse" gradientTransform="translate(26.845 30.6099) rotate(90) scale(26.5 31.8777)">
<stop offset="0.505208" stop-color="#B97F01" stop-opacity="0"/>
<stop offset="0.947917" stop-color="#B97F01"/>
</radialGradient>
<radialGradient id="paint1_radial_41_1167" cx="0" cy="0" r="1" gradientUnits="userSpaceOnUse" gradientTransform="translate(26.845 30.6099) rotate(90) scale(26.5 31.8777)">
<stop offset="0.505208" stop-color="#B97F01" stop-opacity="0"/>
<stop offset="0.947917" stop-color="#B97F01"/>
</radialGradient>
<linearGradient id="paint2_linear_41_1167" x1="26.48" y1="24.3034" x2="26.48" y2="52.6099" gradientUnits="userSpaceOnUse">
<stop stop-color="#91660A"/>
<stop offset="1" stop-color="#46300D"/>
</linearGradient>
<linearGradient id="paint3_linear_41_1167" x1="21.48" y1="3.10986" x2="45.98" y2="60.6099" gradientUnits="userSpaceOnUse">
<stop stop-color="#FFEA00"/>
<stop offset="0.87" stop-color="#B87E00"/>
</linearGradient>
<linearGradient id="paint4_linear_41_1167" x1="26.98" y1="57.1099" x2="26.98" y2="8.10986" gradientUnits="userSpaceOnUse">
<stop offset="0.074248" stop-color="#FFEA00"/>
<stop offset="0.640804" stop-color="#FFEA00" stop-opacity="0"/>
</linearGradient>
</defs>
</svg>
