<svg width="50" height="50" viewBox="0 0 50 50" fill="none" xmlns="http://www.w3.org/2000/svg">
<path d="M1.23261 26.4691C0.522323 25.229 0.527546 23.7042 1.24631 22.4691L11.2283 5.31571C11.9471 4.08056 13.2702 3.32269 14.6992 3.32759L34.5455 3.39556C35.9746 3.40045 37.2925 4.16737 38.0027 5.40741L47.867 22.6288C48.5773 23.8688 48.5721 25.3936 47.8533 26.6287L37.8713 43.7821C37.1525 45.0173 35.8294 45.7752 34.4004 45.7703L14.5541 45.7023C13.1251 45.6974 11.8072 44.9305 11.0969 43.6904L1.23261 26.4691Z" fill="url(#paint0_radial_41_1335)"/>
<path d="M1.23261 26.4691C0.522323 25.229 0.527546 23.7042 1.24631 22.4691L11.2283 5.31571C11.9471 4.08056 13.2702 3.32269 14.6992 3.32759L34.5455 3.39556C35.9746 3.40045 37.2925 4.16737 38.0027 5.40741L47.867 22.6288C48.5773 23.8688 48.5721 25.3936 47.8533 26.6287L37.8713 43.7821C37.1525 45.0173 35.8294 45.7752 34.4004 45.7703L14.5541 45.7023C13.1251 45.6974 11.8072 44.9305 11.0969 43.6904L1.23261 26.4691Z" fill="url(#paint1_radial_41_1335)" fill-opacity="0.6"/>
<path d="M1.23261 26.4691C0.522323 25.229 0.527546 23.7042 1.24631 22.4691L11.2283 5.31571C11.9471 4.08056 13.2702 3.32269 14.6992 3.32759L34.5455 3.39556C35.9746 3.40045 37.2925 4.16737 38.0027 5.40741L47.867 22.6288C48.5773 23.8688 48.5721 25.3936 47.8533 26.6287L37.8713 43.7821C37.1525 45.0173 35.8294 45.7752 34.4004 45.7703L14.5541 45.7023C13.1251 45.6974 11.8072 44.9305 11.0969 43.6904L1.23261 26.4691Z" fill="url(#paint2_radial_41_1335)" fill-opacity="0.6"/>
<path d="M32.72 4.00293C35.04 4.00293 37.21 5.25293 38.37 7.26293L46.44 21.2329C47.6 23.2429 47.6 25.7429 46.44 27.7529L38.37 41.7229C37.21 43.7329 35.05 44.9829 32.72 44.9829H16.59C14.27 44.9829 12.1 43.7329 10.94 41.7229L2.87 27.7529C1.71 25.7429 1.71 23.2429 2.87 21.2329L10.94 7.26293C12.1 5.25293 14.26 4.00293 16.59 4.00293H32.72ZM32.72 2.00293H16.59C13.55 2.00293 10.73 3.62293 9.21 6.26293L1.14 20.2329C-0.38 22.8729 -0.38 26.1129 1.14 28.7529L9.21 42.7229C10.73 45.3629 13.54 46.9829 16.59 46.9829H32.72C35.76 46.9829 38.58 45.3629 40.1 42.7229L48.17 28.7529C49.69 26.1129 49.69 22.8729 48.17 20.2329L40.1 6.26293C38.58 3.62293 35.77 2.00293 32.72 2.00293Z" fill="url(#paint3_linear_41_1335)"/>
<path d="M17.9954 11.4636C19.3056 12.0608 20.1466 12.8149 20.299 12.9293C20.2295 12.5915 19.9714 10.9728 19.823 9.96458C20.5864 10.4926 22.3593 11.7163 22.9408 12.114C23.1788 11.3851 24.0024 9.00692 24.0024 9.00692C24.0024 9.00692 25.4891 11.4024 25.7431 11.7921C26.0533 11.4689 27.8315 9.50171 28.2914 9.00293C28.3689 10.1348 28.4746 11.7549 28.4986 11.9983C28.5895 11.8772 29.2701 10.9289 30.4105 10.0537C29.9158 11.022 29.6805 12.3601 29.5749 13.4348C28.4532 13.1222 27.2699 12.9546 26.048 12.9546C23.7042 12.9546 21.5036 13.5691 19.6011 14.6438C19.2548 13.6077 18.7133 12.3162 17.9954 11.4636ZM31.6552 24.9453L31.6525 23.2787C31.6525 23.2787 30.9052 23.0393 30.1043 22.4221C28.5 22.6642 26.5547 24.2696 26.5547 24.2696C26.5547 24.2696 27.2125 25.5092 27.9291 26.846C29.1925 27.0189 31.0522 25.4348 31.6525 24.944L31.6552 24.9453ZM33.2703 27.9686C33.2703 27.9686 33.1419 27.2796 32.5924 26.6345L31.341 26.6651C31.341 26.6651 29.6524 28.1096 28.6216 28.1428C28.6216 28.1428 29.1898 29.1936 29.4746 29.7416C30.0428 29.6192 31.0402 29.1723 31.4413 28.7094C31.4413 28.7094 31.7073 29.562 31.6565 30.5662C32.2207 30.239 32.9989 29.3585 33.2716 27.9672L33.2703 27.9686ZM33.785 22.49C33.154 23.0193 32.6178 23.312 32.6178 23.312L32.6232 24.9865C33.0764 25.488 33.5216 25.903 33.8559 26.6598C34.4882 25.5279 34.3679 23.8599 33.785 22.49ZM33.9227 20.9976L34.0216 20.2368C34.0551 19.8178 33.9468 19.1235 33.3572 18.4026C32.6258 17.5859 30.7862 16.2718 29.9091 15.9566C29.9091 15.9566 29.8369 16.7985 29.5348 17.2042C27.7874 15.9486 26.929 15.6347 26.929 15.6347C25.0091 15.9074 23.7764 16.6443 23.1066 17.2228L23.6909 17.7176C22.5344 18.0714 21.783 19.061 21.783 19.061C21.791 19.0783 22.8165 19.2233 22.8165 19.2233C22.8165 19.2233 22.7122 20.4217 24.2203 21.1732C25.5105 21.8156 27.3689 21.0189 29.1176 21.7159C27.9665 20.3951 27.175 19.8045 27.175 19.8045C27.175 19.8045 26.7178 19.7101 26.3956 19.7114C25.9945 19.7141 25.3968 19.7939 24.7391 19.5385C24.4262 19.4175 24.0599 19.202 23.7738 19.0224C23.7738 19.0224 24.5813 18.1978 25.7592 18.0156C25.7592 18.0156 26.8221 18.3135 27.6657 18.9333C28.2259 18.3906 28.8101 18.4079 28.8101 18.4079C28.8101 18.4079 28.2312 18.9466 28.4064 19.5984C29.2487 20.3459 30.1618 21.4139 30.1618 21.4139C31.0923 20.9058 33.1138 21.0229 33.5296 21.5017C33.0029 20.8234 32.2448 20.2568 31.6579 19.7713C31.587 19.5172 30.9466 18.6287 30.8383 18.5476C30.8383 18.5476 31.448 18.7351 31.9908 19.2193C32.1485 18.9985 32.44 18.7724 32.8384 18.6726C33.2489 19.0145 33.3197 19.5385 33.309 19.6263C33.1232 19.8444 32.944 19.9349 32.944 19.9349L33.9281 20.9949L34.027 20.2341M34.9094 21.6161C36.4108 24.376 36.7758 27.6826 35.733 30.9772C35.6701 30.9067 34.876 30.0235 34.5471 29.6618C34.3385 32.8832 33.3852 35.3851 30.6043 37.4986C30.6043 37.4986 30.3396 36.4864 30.1845 35.8533C25.5987 39.1971 21.656 37.6675 20.5477 37.1182C21.406 33.2024 20.7415 30.9546 20.1666 29.2401C18.946 31.2352 17.6959 32.7848 16.4485 33.8316C15.5955 31.8497 15.53 28.1668 16.2199 25.9907C15.9913 26.0519 14.6436 26.4749 13.8962 26.701C14.197 24.7032 15.5233 22.0284 16.9245 20.6957C16.6798 20.6531 15.9618 20.552 15.3923 20.4576C15.7426 19.7487 16.7587 18.4319 18.3163 17.1962C18.2708 18.0674 18.5957 19.1062 19.585 19.605C18.958 18.5104 18.8818 17.159 19.5356 16.458C20.192 15.7531 21.2937 15.9952 21.9969 16.5432C21.8672 16.1628 21.5838 15.7225 21.1653 15.4325C23.1066 14.5334 25.4624 14.0133 28.1336 14.423C28.5454 14.7808 28.9853 15.2836 29.2286 15.5948C29.2393 15.3714 29.2072 14.9431 29.1364 14.6172C30.2287 14.8752 31.3691 15.2902 32.551 15.8981C30.4466 13.8098 26.1816 13.182 22.6226 14.1956C21.7884 14.4337 20.9969 14.7476 20.2522 15.1186C19.4674 15.128 18.962 15.6055 18.6732 16.0284C16.3964 17.5314 14.7265 19.5092 13.9216 21.1665C14.1008 21.2051 14.6396 21.2716 15.1383 21.3567C14.1195 22.8039 12.7892 25.5372 12.8761 27.9912C13.1074 27.922 14.3508 27.5429 14.9605 27.3461C14.6342 29.5115 14.7292 33.1492 16.141 35.2295C17.9192 33.9765 18.95 32.6598 19.807 31.472C20.0276 32.5414 20.2428 34.4421 19.4848 37.5917C20.0998 38.0639 24.5572 40.3929 29.5989 37.3496L30.0201 39.0029L30.5656 38.6505C33.6339 36.6673 34.8118 33.9885 35.2236 31.8072C35.3653 31.9628 35.9228 32.5707 36.1234 32.7728C36.8935 30.6833 38.4323 25.6582 34.904 21.6188L34.9094 21.6161Z" fill="white"/>
<defs>
<radialGradient id="paint0_radial_41_1335" cx="0" cy="0" r="1" gradientUnits="userSpaceOnUse" gradientTransform="translate(24.5498 24.5489) rotate(0.196235) scale(24.4652)">
<stop stop-color="#898989"/>
<stop offset="0.651042" stop-color="#4D4C4C"/>
<stop offset="0.859375" stop-color="#272727"/>
</radialGradient>
<radialGradient id="paint1_radial_41_1335" cx="0" cy="0" r="1" gradientUnits="userSpaceOnUse" gradientTransform="translate(-31.5 25.0029) scale(54.5 125.986)">
<stop offset="0.521599"/>
<stop offset="0.811569" stop-opacity="0"/>
</radialGradient>
<radialGradient id="paint2_radial_41_1335" cx="0" cy="0" r="1" gradientUnits="userSpaceOnUse" gradientTransform="translate(79 25.0029) rotate(180) scale(56 129.454)">
<stop offset="0.477866"/>
<stop offset="0.759042" stop-opacity="0"/>
</radialGradient>
<linearGradient id="paint3_linear_41_1335" x1="25" y1="54.5029" x2="25" y2="-0.497071" gradientUnits="userSpaceOnUse">
<stop offset="0.0885417" stop-color="#7B7B7B"/>
<stop offset="0.79" stop-color="#EDEDED"/>
</linearGradient>
</defs>
</svg>
