<svg width="55" height="46" viewBox="0 0 55 46" fill="none" xmlns="http://www.w3.org/2000/svg">
<g clip-path="url(#clip0_247_64487)">
<path d="M3.03002 44.3601H51.89L53.21 39.9301L29.76 1.39014H24.65L1.52002 39.9301L3.03002 44.3601Z" fill="#291B0E"/>
<path d="M3.03002 44.3601H51.89L53.21 39.9301L29.76 1.39014H24.65L1.52002 39.9301L3.03002 44.3601Z" fill="url(#paint0_radial_247_64487)" fill-opacity="0.3"/>
<path d="M3.03002 44.3601H51.89L53.21 39.9301L29.76 1.39014H24.65L1.52002 39.9301L3.03002 44.3601Z" fill="#291B0E"/>
<path d="M3.03002 44.3601H51.89L53.21 39.9301L29.76 1.39014H24.65L1.52002 39.9301L3.03002 44.3601Z" fill="url(#paint1_radial_247_64487)" fill-opacity="0.3"/>
<mask id="mask0_247_64487" style="mask-type:alpha" maskUnits="userSpaceOnUse" x="1" y="1" width="53" height="44">
<path d="M2.56825 43.0054C2.84438 43.8155 3.60541 44.3601 4.4613 44.3601H50.3991C51.2837 44.3601 52.0632 43.779 52.3158 42.9313L52.9563 40.7817C53.1178 40.2396 53.0422 39.6543 52.7481 39.171L30.3444 2.35054C29.9815 1.75415 29.3339 1.39014 28.6358 1.39014H25.7822C25.0798 1.39014 24.4289 1.75865 24.0674 2.36095L1.99767 39.1343C1.69475 39.639 1.62957 40.2515 1.81949 40.8087L2.56825 43.0054Z" fill="#D9D9D9"/>
</mask>
<g mask="url(#mask0_247_64487)">
<g filter="url(#filter0_f_247_64487)">
<path d="M27 48C38.0457 48 47 39.2696 47 28.5C47 17.7304 38.0457 9 27 9C15.9543 9 7 17.7304 7 28.5C7 39.2696 15.9543 48 27 48Z" fill="url(#paint2_linear_247_64487)"/>
</g>
</g>
<path d="M2.56825 43.0054C2.84438 43.8155 3.60541 44.3601 4.4613 44.3601H50.3991C51.2837 44.3601 52.0632 43.779 52.3158 42.9313L52.9563 40.7817C53.1178 40.2396 53.0422 39.6543 52.7481 39.171L30.3444 2.35054C29.9815 1.75415 29.3339 1.39014 28.6358 1.39014H25.7822C25.0798 1.39014 24.4289 1.75865 24.0674 2.36095L1.99767 39.1343C1.69475 39.639 1.62957 40.2515 1.81949 40.8087L2.56825 43.0054Z" stroke="url(#paint3_linear_247_64487)" stroke-width="2" stroke-miterlimit="10"/>
<path d="M37.0857 19.2203V18H17.1064V19.2203C17.1064 19.2203 17.1064 26.0635 17.1064 26.1048C17.1064 27.5835 17.3501 29.0369 17.8294 30.4237C18.2293 31.58 18.7853 32.671 19.4882 33.6768L17 36.1373L18.7436 37.8625L21.0729 35.5578C21.6303 36.1067 22.2362 36.6089 22.8852 37.0565C24.0673 37.8718 25.3666 38.4912 26.744 38.8976L27.0954 39.0015L27.4468 38.8976C28.8242 38.4912 30.1221 37.8731 31.3056 37.0565C32.4716 36.2519 33.4976 35.2767 34.3566 34.1564C35.225 33.0227 35.9009 31.7678 36.3641 30.4264C36.8434 29.0396 37.0871 27.5862 37.0871 26.1075C37.0871 26.0662 37.0871 19.2203 37.0871 19.2203" fill="white"/>
<mask id="mask1_247_64487" style="mask-type:luminance" maskUnits="userSpaceOnUse" x="18" y="19" width="18" height="15">
<path d="M18.3398 19.2002C18.3398 19.2002 18.3398 26.0541 18.3398 26.0954C18.3398 29.0169 19.3833 31.6958 21.1215 33.79L35.8526 19.2135V19.2002H18.3398Z" fill="white"/>
</mask>
<g mask="url(#mask1_247_64487)">
<path d="M35.8539 19.2002H18.3398V33.79H35.8539V19.2002Z" fill="url(#paint4_linear_247_64487)"/>
</g>
<path d="M27.0965 37.7224C32.1603 36.2317 35.8535 31.5891 35.8535 26.094C35.8535 26.054 35.8535 19.5438 35.8535 19.2134L21.1211 33.7885C22.6533 35.6335 24.7241 37.023 27.0965 37.721" fill="white"/>
<path d="M21.2006 31.8054L21.0929 31.9119L21.3905 32.2063L21.3218 32.2743L21.0242 31.9799L20.9165 32.0864L20.8613 32.0318L21.1454 31.7507L21.2006 31.8054ZM21.6638 31.7321L21.509 31.3897L21.6072 31.2925L21.96 31.6415L21.8954 31.7054L21.6194 31.4324H21.618L21.789 31.812L21.7405 31.86L21.3582 31.6908H21.3568L21.6328 31.9652L21.5682 32.0292L21.2154 31.6801L21.3151 31.5816L21.6624 31.7334L21.6638 31.7321Z" fill="white"/>
<path d="M24.9679 26.0847L25.1914 26.7655L24.6057 26.3445L24.0214 26.7655L24.2449 26.0847L23.6592 25.6638H24.3822L24.6057 24.9844L24.8292 25.6638H25.5522L24.9679 26.0847Z" fill="white"/>
<path d="M21.6008 26.0847L22.1865 25.6638H21.4635L21.24 24.9844L21.0165 25.6638H20.2935L20.8778 26.0847L20.6543 26.7655L21.24 26.3445L21.8243 26.7655L21.6008 26.0847Z" fill="white"/>
<path d="M23.1461 27.8809L22.9226 27.2002L22.6991 27.8809H21.9761L22.5604 28.3006L22.3383 28.9813L22.9226 28.5617L23.5069 28.9813L23.2848 28.3006L23.8691 27.8809H23.1461Z" fill="white"/>
<path d="M20.9582 23.4205L20.2944 21.9258H20.2729V23.9201C20.2729 23.952 20.2513 23.972 20.2204 23.972H19.6253C19.5929 23.972 19.5728 23.9507 19.5728 23.9201V20.4831C19.5728 20.4511 19.5943 20.4312 19.6253 20.4312H20.2513C20.2931 20.4312 20.32 20.4471 20.3348 20.4831L21.241 22.504H21.2625L22.1525 20.4831C22.1686 20.4471 22.1942 20.4312 22.2373 20.4312H22.8526C22.8849 20.4312 22.9051 20.4525 22.9051 20.4831V23.9201C22.9051 23.952 22.8849 23.972 22.8526 23.972H22.2575C22.2265 23.972 22.205 23.9507 22.205 23.9201V21.9258H22.1834L21.5197 23.4205C21.4981 23.4671 21.4672 23.4885 21.4187 23.4885H21.0552C21.008 23.4885 20.9771 23.4671 20.9555 23.4205" fill="white"/>
<path d="M23.4396 23.9734H25.7716C25.8039 23.9734 25.8241 23.952 25.8241 23.9214V23.3432C25.8241 23.3126 25.8025 23.2913 25.7716 23.2913H24.1922C24.1707 23.2913 24.1599 23.2806 24.1599 23.2593V20.4831C24.1599 20.4511 24.1397 20.4312 24.1074 20.4312H23.4383C23.4073 20.4312 23.3857 20.4511 23.3857 20.4831V23.9201C23.3857 23.952 23.4073 23.972 23.4383 23.972" fill="white"/>
<path d="M27.7668 21.8423L27.577 21.8156C27.1663 21.7584 27.0195 21.6278 27.0195 21.4253C27.0195 21.2015 27.1825 21.0403 27.4989 21.0403C27.7937 21.0403 28.0563 21.1336 28.3309 21.3108C28.3579 21.3267 28.3835 21.3214 28.405 21.2948L28.7268 20.8205C28.7537 20.7846 28.7483 20.7632 28.716 20.7419C28.4158 20.5128 27.9741 20.3716 27.5002 20.3716C26.726 20.3716 26.2319 20.8032 26.2319 21.4546C26.2319 22.1061 26.6372 22.4178 27.3642 22.5177L27.5541 22.543C27.9809 22.6003 28.1061 22.7308 28.1061 22.9386C28.1061 23.1891 27.8961 23.3609 27.5218 23.3609C27.1475 23.3609 26.8216 23.1838 26.5847 22.9959C26.5577 22.9746 26.5268 22.9746 26.5052 23.0013L26.1053 23.4542C26.0784 23.4862 26.0892 23.5221 26.1107 23.5434C26.3894 23.8085 26.932 24.027 27.4894 24.027C28.4158 24.027 28.8951 23.5528 28.8951 22.912C28.8951 22.2712 28.506 21.9382 27.7681 21.8396" fill="white"/>
<mask id="mask2_247_64487" style="mask-type:luminance" maskUnits="userSpaceOnUse" x="17" y="18" width="20" height="21">
<path d="M23.8265 35.7149C23.0321 35.1674 22.3131 34.5279 21.6776 33.8086L35.4419 20.1912C35.4419 22.0922 35.4419 26.0634 35.4419 26.094C35.4419 27.3942 35.2292 28.6704 34.8078 29.888C34.4012 31.0656 33.8087 32.1673 33.0453 33.1638C32.2913 34.1496 31.3893 35.0075 30.3646 35.7149C29.3602 36.4089 28.2602 36.9405 27.0956 37.2961C25.9296 36.9405 24.8309 36.4076 23.8265 35.7149ZM21.1458 33.1638C20.3837 32.1673 19.7899 31.0656 19.3833 29.888C18.9632 28.6704 18.7492 27.3942 18.7492 26.094C18.7492 26.0594 18.7492 21.0798 18.7492 19.6064H34.8684L21.1552 33.1758C21.1552 33.1758 21.1485 33.1678 21.1458 33.1638ZM17.9292 18.7925V19.1988C17.9292 19.1988 17.9292 26.0527 17.9292 26.094C17.9292 27.4835 18.1567 28.8476 18.6078 30.1505C19.0427 31.4093 19.6768 32.5883 20.4928 33.654C20.5183 33.6873 20.5453 33.7206 20.5709 33.7539L18.1648 36.1345L18.7465 36.71L21.0973 34.384C21.7678 35.1354 22.5245 35.8055 23.3579 36.381C24.4687 37.1483 25.6872 37.7291 26.9811 38.1101L27.0982 38.1447L27.2154 38.1101C28.5093 37.7291 29.7278 37.1469 30.8386 36.381C31.9332 35.6256 32.8972 34.7078 33.7037 33.654C34.5197 32.5883 35.1538 31.4093 35.5887 30.1505C36.0384 28.8476 36.2673 27.4821 36.2673 26.094C36.2673 26.0527 36.2673 19.1988 36.2673 19.1988V18.7925H17.9292Z" fill="white"/>
</mask>
<g mask="url(#mask2_247_64487)">
<path d="M36.2645 18.7925H17.9277V38.1461H36.2645V18.7925Z" fill="url(#paint5_radial_247_64487)"/>
</g>
</g>
<defs>
<filter id="filter0_f_247_64487" x="-2" y="0" width="58" height="57" filterUnits="userSpaceOnUse" color-interpolation-filters="sRGB">
<feFlood flood-opacity="0" result="BackgroundImageFix"/>
<feBlend mode="normal" in="SourceGraphic" in2="BackgroundImageFix" result="shape"/>
<feGaussianBlur stdDeviation="4.5" result="effect1_foregroundBlur_247_64487"/>
</filter>
<radialGradient id="paint0_radial_247_64487" cx="0" cy="0" r="1" gradientUnits="userSpaceOnUse" gradientTransform="translate(27.365 26) rotate(90) scale(26.5 31.8777)">
<stop offset="0.505208" stop-color="#B97F01" stop-opacity="0"/>
<stop offset="0.947917" stop-color="#B97F01"/>
</radialGradient>
<radialGradient id="paint1_radial_247_64487" cx="0" cy="0" r="1" gradientUnits="userSpaceOnUse" gradientTransform="translate(27.365 26) rotate(90) scale(26.5 31.8777)">
<stop offset="0.505208" stop-color="#B97F01" stop-opacity="0"/>
<stop offset="0.947917" stop-color="#B97F01"/>
</radialGradient>
<linearGradient id="paint2_linear_247_64487" x1="27" y1="19.6935" x2="27" y2="48" gradientUnits="userSpaceOnUse">
<stop stop-color="#91660A"/>
<stop offset="1" stop-color="#46300D"/>
</linearGradient>
<linearGradient id="paint3_linear_247_64487" x1="22" y1="-1.5" x2="46.5" y2="56" gradientUnits="userSpaceOnUse">
<stop stop-color="#FFEA00"/>
<stop offset="0.87" stop-color="#B87E00"/>
</linearGradient>
<linearGradient id="paint4_linear_247_64487" x1="18.3645" y1="26.3493" x2="35.8785" y2="26.3493" gradientUnits="userSpaceOnUse">
<stop stop-color="#DC1915"/>
<stop offset="0.18" stop-color="#D61916"/>
<stop offset="0.41" stop-color="#C61B1A"/>
<stop offset="0.67" stop-color="#AC1F20"/>
<stop offset="0.94" stop-color="#872328"/>
<stop offset="1" stop-color="#7F252B"/>
</linearGradient>
<radialGradient id="paint5_radial_247_64487" cx="0" cy="0" r="1" gradientUnits="userSpaceOnUse" gradientTransform="translate(27.2495 28.7783) scale(9.47872 9.37839)">
<stop stop-color="#2198D5"/>
<stop offset="0.14" stop-color="#2192CE"/>
<stop offset="0.34" stop-color="#2182BC"/>
<stop offset="0.57" stop-color="#21689F"/>
<stop offset="0.82" stop-color="#214476"/>
<stop offset="1" stop-color="#222754"/>
</radialGradient>
<clipPath id="clip0_247_64487">
<rect width="54.72" height="45.75" fill="white"/>
</clipPath>
</defs>
</svg>
