<svg width="72" height="72" viewBox="0 0 72 72" fill="none" xmlns="http://www.w3.org/2000/svg">
<g clip-path="url(#clip0_38_1139)">
<path d="M47.3879 24.0041L69 36L47.3879 46.9832V46.9959L35.9114 69.5L23.5239 46.9959L1.5 36L23.5239 25.5614L35.9114 3L47.3879 24.0041Z" fill="url(#paint0_radial_38_1139)"/>
<path d="M47.3879 24.0041L69 36L47.3879 46.9832V46.9959L35.9114 69.5L23.5239 46.9959L1.5 36L23.5239 25.5614L35.9114 3L47.3879 24.0041Z" fill="url(#paint1_radial_38_1139)" fill-opacity="0.55"/>
<path d="M47.3879 24.0041L69 36L47.3879 46.9832V46.9959L35.9114 69.5L23.5239 46.9959L1.5 36L23.5239 25.5614L35.9114 3L47.3879 24.0041Z" fill="url(#paint2_radial_38_1139)" fill-opacity="0.55"/>
<path d="M44.8701 26.7301L61.1601 35.8101L44.8701 44.8801V44.8901L35.8001 61.4801L26.7301 44.8901L10.5801 35.5701L26.0101 27.9601L35.8001 10.1401L44.8701 26.7301Z" fill="#120D00"/>
<path d="M35.8 4.17023L46.7 24.1102L46.98 24.6202L47.49 24.9002L67.43 35.8002L47.49 46.7102L46.98 46.9902L46.7 47.5002L35.8 67.4402L24.9 47.5002L24.62 46.9902L24.11 46.7102L4.17 35.8102L24.04 24.9402C24.59 24.6902 24.69 24.5102 26.89 20.4902L31.24 12.5302L35.82 4.16023M35.82 -0.00976562L23.16 23.1402L0 35.8102L23.14 48.4702L35.8 71.6202L48.46 48.4702L71.6 35.8102L48.46 23.1502L35.8 0.000234375L35.82 -0.00976562Z" fill="url(#paint3_linear_38_1139)"/>
<path d="M26.0098 27.9601L32.6298 52.0601L34.6698 57.3201L35.7998 59.1101V10.1401L26.0098 27.9601Z" fill="url(#paint4_linear_38_1139)" fill-opacity="0.5"/>
<path d="M44.8701 44.8903L38.8201 20.0503L36.7701 14.7903L35.6401 13.0103V61.9803L44.8701 44.8903Z" fill="url(#paint5_linear_38_1139)" fill-opacity="0.5"/>
<path d="M19.5799 40H28.8559V37.864H21.7999C21.7999 37.672 22.1119 37.372 23.8759 36.928C24.2959 36.82 24.8239 36.7 25.3039 36.592C27.7879 36.016 28.6519 35.368 28.6519 33.82V33.724C28.6519 32.2 27.6679 30.964 24.4759 30.964H23.9359C20.3359 30.964 19.7359 32.992 19.7359 34.204V34.288H22.3159C22.3519 33.856 22.4959 32.872 24.2479 32.872C25.7239 32.872 26.0359 33.256 26.0359 33.736C26.0359 34.18 25.7239 34.42 24.5359 34.768L23.1079 35.2C19.7479 36.256 19.5799 37.432 19.5799 38.704V40ZM30.2557 40H39.5317V37.864H32.4757C32.4757 37.672 32.7877 37.372 34.5517 36.928C34.9717 36.82 35.4997 36.7 35.9797 36.592C38.4637 36.016 39.3277 35.368 39.3277 33.82V33.724C39.3277 32.2 38.3437 30.964 35.1517 30.964H34.6117C31.0117 30.964 30.4117 32.992 30.4117 34.204V34.288H32.9917C33.0277 33.856 33.1717 32.872 34.9237 32.872C36.3997 32.872 36.7117 33.256 36.7117 33.736C36.7117 34.18 36.3997 34.42 35.2117 34.768L33.7837 35.2C30.4237 36.256 30.2557 37.432 30.2557 38.704V40ZM46.4275 30.928H45.9235C41.7475 30.928 40.9315 33.712 40.9315 35.332V35.692C40.9315 37.252 41.7475 40.144 45.9235 40.144H46.4275C50.5915 40.144 51.4195 37.252 51.4195 35.692V35.332C51.4195 33.748 50.6155 30.928 46.4275 30.928ZM48.8515 35.416V35.584C48.8515 36.4 48.4915 38.092 46.1875 38.092C43.8835 38.092 43.4995 36.4 43.4995 35.584V35.416C43.4995 34.612 43.8115 32.968 46.1755 32.968C48.5155 32.968 48.8515 34.612 48.8515 35.416Z" fill="white"/>
</g>
<defs>
<radialGradient id="paint0_radial_38_1139" cx="0" cy="0" r="1" gradientUnits="userSpaceOnUse" gradientTransform="translate(36 35.5) rotate(90) scale(32.5 32)">
<stop stop-color="#8F6800"/>
<stop offset="0.672901"/>
</radialGradient>
<radialGradient id="paint1_radial_38_1139" cx="0" cy="0" r="1" gradientUnits="userSpaceOnUse" gradientTransform="translate(54.5 37) rotate(120.639) scale(37.7732 38.3412)">
<stop stop-color="#FFBA03"/>
<stop offset="0.644675" stop-color="#8F6800" stop-opacity="0"/>
</radialGradient>
<radialGradient id="paint2_radial_38_1139" cx="0" cy="0" r="1" gradientUnits="userSpaceOnUse" gradientTransform="translate(17 36) rotate(61.4195) scale(38.1486 38.7222)">
<stop stop-color="#FFBA02"/>
<stop offset="0.51631" stop-color="#8F6800" stop-opacity="0"/>
</radialGradient>
<linearGradient id="paint3_linear_38_1139" x1="35.8" y1="0.000234376" x2="35.8" y2="71.6202" gradientUnits="userSpaceOnUse">
<stop offset="0.341057" stop-color="#FFF68D"/>
<stop offset="0.657944" stop-color="#FFEA00"/>
<stop offset="1" stop-color="#B87E00"/>
</linearGradient>
<linearGradient id="paint4_linear_38_1139" x1="29.3998" y1="-0.909863" x2="32.2198" y2="36.4501" gradientUnits="userSpaceOnUse">
<stop offset="0.43" stop-color="#FFEA00"/>
<stop offset="0.46" stop-color="#FFEA00" stop-opacity="0.97"/>
<stop offset="0.51" stop-color="#FFEA00" stop-opacity="0.88"/>
<stop offset="0.58" stop-color="#FFEA00" stop-opacity="0.74"/>
<stop offset="0.65" stop-color="#FFEA00" stop-opacity="0.55"/>
<stop offset="0.73" stop-color="#FFEA00" stop-opacity="0.3"/>
<stop offset="0.82" stop-color="#FFEA00" stop-opacity="0"/>
</linearGradient>
<linearGradient id="paint5_linear_38_1139" x1="41.7401" y1="73.0403" x2="38.9201" y2="35.6803" gradientUnits="userSpaceOnUse">
<stop offset="0.43" stop-color="#FFEA00"/>
<stop offset="0.46" stop-color="#FFEA00" stop-opacity="0.97"/>
<stop offset="0.51" stop-color="#FFEA00" stop-opacity="0.88"/>
<stop offset="0.58" stop-color="#FFEA00" stop-opacity="0.74"/>
<stop offset="0.65" stop-color="#FFEA00" stop-opacity="0.55"/>
<stop offset="0.73" stop-color="#FFEA00" stop-opacity="0.3"/>
<stop offset="0.82" stop-color="#FFEA00" stop-opacity="0"/>
</linearGradient>
<clipPath id="clip0_38_1139">
<rect width="71.6" height="71.62" fill="white"/>
</clipPath>
</defs>
</svg>
