<svg xmlns:xlink="http://www.w3.org/1999/xlink" fill="none" height="40" width="40" viewBox="0 0 40 40" xmlns="http://www.w3.org/2000/svg" aria-labelledby="all_star-rare" class="sc-eeMvmM ceeiFp" style="color: transparent;"><defs><linearGradient id="svg-rare-gradient" x1="1" x2="0.6" y1="1" y2="0"><stop offset="0" stop-color="#c22342"></stop><stop offset="1" stop-color="#f2412d"></stop></linearGradient></defs><title id="all_star-rare">all_star-rare</title><rect x="10" y="12" width="20" height="15" fill="#000000" fill-opacity="0"></rect><path clip-rule="evenodd" d="M22.5 0h-5l-3.718 11.442H1.752L.205 16.197 9.94 23.27 6.222 34.71l4.045 2.939L20 30.578l9.733 7.072 4.045-2.94L30.06 23.27l9.733-7.072-1.545-4.755h-12.03zM21 12h-2l-1.488 4.577H12.7l-.618 1.902 3.893 2.829-1.487 4.576 1.618 1.176L20 24.23l3.894 2.829 1.618-1.176-1.487-4.577 3.893-2.828-.618-1.902h-4.812z" fill="url(#svg-rare-gradient)" fill-rule="evenodd"></path></svg>