<svg xmlns:xlink="http://www.w3.org/1999/xlink" fill="none" height="40" width="40" viewBox="0 0 40 40" xmlns="http://www.w3.org/2000/svg" aria-labelledby="under_twenty_one-rare_pro" class="sc-eeMvmM ceeiFp" style="color: transparent;"><defs><linearGradient id="svg-rare-gradient" x1="1" x2="0.6" y1="1" y2="0"><stop offset="0" stop-color="#c22342"></stop><stop offset="1" stop-color="#f2412d"></stop></linearGradient><linearGradient id="svg-rare-gradient" x1="1" x2="0.6" y1="1" y2="0"><stop offset="0" stop-color="#c22342"></stop><stop offset="1" stop-color="#f2412d"></stop></linearGradient><linearGradient id="svg-rare-gradient" x1="1" x2="0.6" y1="1" y2="0"><stop offset="0" stop-color="#c22342"></stop><stop offset="1" stop-color="#f2412d"></stop></linearGradient></defs><title id="under_twenty_one-rare_pro">under_twenty_one-rare_pro</title><g fill="url(#svg-rare-gradient)"><path clip-rule="evenodd" d="m20 38 14-6V0L20 6 6 0v32zm-9-24v3h3v-3h2v3c0 1.02-.701 1.83-2.06 3.19l-.139.137C12.66 21.465 11 23.118 11 25.5V29h8v-3h-5v-.5c0-1.02.701-1.83 2.06-3.19l.139-.137C17.34 21.035 19 19.382 19 17v-3a3 3 0 0 0-3-3h-2a3 3 0 0 0-3 3zm10 2h3v-2h2v4.5h-3v3h3V26h-2v-2h-3v2a3 3 0 0 0 3 3h2a3 3 0 0 0 3-3V14a3 3 0 0 0-3-3h-2a3 3 0 0 0-3 3z" fill-rule="evenodd" fill="url(#svg-rare-gradient)"></path><path d="M4 7.143 0 5.429v8.912l4 1.714zM4 18.23l-4-1.713v8.912l4 1.714zM40 5.429l-4 1.714v8.912l4-1.714zM40 16.517l-4 1.714v8.912l4-1.714z" fill="url(#svg-rare-gradient)"></path></g></svg>