<svg xmlns:xlink="http://www.w3.org/1999/xlink" fill="none" height="40" width="40" viewBox="0 0 40 40" xmlns="http://www.w3.org/2000/svg" aria-labelledby="all_star-rare_pro" class="sc-eeMvmM ceeiFp" style="color: transparent;"><defs><linearGradient id="svg-rare-gradient" x1="1" x2="0.6" y1="1" y2="0"><stop offset="0" stop-color="#c22342"></stop><stop offset="1" stop-color="#f2412d"></stop></linearGradient><linearGradient id="svg-rare-gradient" x1="1" x2="0.6" y1="1" y2="0"><stop offset="0" stop-color="#c22342"></stop><stop offset="1" stop-color="#f2412d"></stop></linearGradient><linearGradient id="svg-rare-gradient" x1="1" x2="0.6" y1="1" y2="0"><stop offset="0" stop-color="#c22342"></stop><stop offset="1" stop-color="#f2412d"></stop></linearGradient></defs><title id="all_star-rare_pro">all_star-rare_pro</title><g fill="url(#svg-rare-gradient)"><path clip-rule="evenodd" d="M17.5 0h5l3.718 11.442h12.03l1.546 4.755-9.734 7.072 3.718 11.442-4.045 2.939L20 30.578l-9.733 7.072-4.045-2.94L9.94 23.27.206 16.197l1.545-4.755h12.031zM19 12h2l1.487 4.577H27.3l.619 1.902-3.894 2.829 1.487 4.576-1.618 1.176L20 24.23l-3.893 2.829-1.618-1.176 1.487-4.576-3.893-2.83.618-1.901h4.812z" fill-rule="evenodd" fill="url(#svg-rare-gradient)"></path><path d="M8.978 8.231a2 2 0 1 1 3.236-2.35 2 2 0 0 1-3.236 2.35zM30.58 5.438a2 2 0 1 0-2.35 3.236 2 2 0 0 0 2.35-3.236zM37.12 25.562a2 2 0 1 0-3.805-1.236 2 2 0 0 0 3.804 1.236zM22 36a2 2 0 1 1-4 0 2 2 0 0 1 4 0zM5.401 26.846a2 2 0 1 1-1.236-3.804 2 2 0 0 1 1.236 3.804z" fill="url(#svg-rare-gradient)"></path></g></svg>