<svg width="54" height="54" viewBox="0 0 54 54" fill="none" xmlns="http://www.w3.org/2000/svg">
<path d="M2.51 48.97H51.37L52.69 44.54L29.24 6H24.13L1 44.54L2.51 48.97Z" fill="#200104"/>
<path d="M2.51 48.97H51.37L52.69 44.54L29.24 6H24.13L1 44.54L2.51 48.97Z" fill="url(#paint0_radial_41_1850)" fill-opacity="0.3"/>
<mask id="mask0_41_1850" style="mask-type:alpha" maskUnits="userSpaceOnUse" x="1" y="6" width="52" height="43">
<path d="M2.04823 47.6153C2.32436 48.4254 3.08539 48.97 3.94128 48.97H49.879C50.7636 48.97 51.5432 48.3889 51.7958 47.5411L52.4362 45.3916C52.5978 44.8494 52.5222 44.2642 52.2281 43.7809L29.8244 6.9604C29.4615 6.36401 28.8139 6 28.1158 6H25.2622C24.5598 6 23.9088 6.36851 23.5474 6.97081L1.47765 43.7441C1.17473 44.2489 1.10955 44.8614 1.29947 45.4186L2.04823 47.6153Z" fill="#D9D9D9"/>
</mask>
<g mask="url(#mask0_41_1850)">
<g filter="url(#filter0_f_41_1850)">
<path d="M26.48 52.6099C37.5257 52.6099 46.48 43.8794 46.48 33.1099C46.48 22.3403 37.5257 13.6099 26.48 13.6099C15.4343 13.6099 6.47998 22.3403 6.47998 33.1099C6.47998 43.8794 15.4343 52.6099 26.48 52.6099Z" fill="url(#paint1_linear_41_1850)" fill-opacity="0.35"/>
</g>
</g>
<path d="M2.04823 47.6153C2.32436 48.4254 3.08539 48.97 3.94128 48.97H49.879C50.7636 48.97 51.5432 48.3889 51.7958 47.5411L52.4362 45.3916C52.5978 44.8494 52.5222 44.2642 52.2281 43.7809L29.8244 6.9604C29.4615 6.36401 28.8139 6 28.1158 6H25.2622C24.5598 6 23.9088 6.36851 23.5474 6.97081L1.47765 43.7441C1.17473 44.2489 1.10955 44.8614 1.29947 45.4186L2.04823 47.6153Z" stroke="url(#paint2_linear_41_1850)" stroke-width="2" stroke-miterlimit="10"/>
<path d="M26.56 20.6099C23.36 20.6099 20.28 21.8799 18.02 24.1499C15.75 26.4099 14.48 29.4899 14.48 32.6899C14.48 35.8899 15.75 38.9699 18.02 41.2299C20.29 43.4899 23.36 44.7699 26.56 44.7699C29.76 44.7699 32.84 43.4999 35.1 41.2299C37.37 38.9599 38.64 35.8899 38.64 32.6899C38.64 30.5699 38.08 28.4899 37.02 26.6499C35.96 24.8099 34.43 23.2899 32.6 22.2299C30.76 21.1699 28.68 20.6099 26.56 20.6099ZM35.15 26.7199C34.08 27.2699 32.94 27.7099 31.78 28.0199C31.44 26.1999 30.82 24.4399 29.96 22.8099C32.07 23.5199 33.89 24.8999 35.16 26.7299L35.15 26.7199ZM27.79 22.2999C29 24.1299 29.82 26.1999 30.21 28.3599C29.01 28.5699 27.79 28.6699 26.57 28.6699C25.35 28.6699 24.13 28.5699 22.93 28.3599C23.32 26.1999 24.14 24.1399 25.35 22.2999C26.15 22.1999 26.96 22.1999 27.77 22.2999H27.8H27.79ZM30.59 32.6899C30.59 33.5999 30.54 34.5199 30.44 35.4299C27.88 34.9999 25.26 34.9999 22.69 35.4299C22.48 33.6099 22.48 31.7699 22.69 29.9399C23.97 30.1599 25.27 30.2699 26.56 30.2699C27.86 30.2699 29.15 30.1699 30.43 29.9499C30.53 30.8599 30.58 31.7699 30.58 32.6899H30.59ZM19.16 25.2899C20.29 24.1599 21.67 23.3099 23.19 22.7899C22.32 24.4299 21.71 26.1799 21.37 27.9999C20.2 27.6899 19.07 27.2599 18 26.6999C18.35 26.1899 18.74 25.7199 19.17 25.2799L19.16 25.2899ZM17.16 28.0999C18.41 28.7499 19.73 29.2599 21.1 29.6099C20.86 31.6599 20.86 33.7199 21.1 35.7699C19.73 36.1199 18.41 36.6299 17.16 37.2799C16.46 35.8499 16.09 34.2799 16.09 32.6899C16.09 31.0999 16.46 29.5299 17.16 28.0999ZM17.97 38.6599C19.04 38.1099 20.18 37.6699 21.34 37.3599C21.68 39.1799 22.3 40.9399 23.16 42.5699C21.05 41.8599 19.23 40.4799 17.96 38.6499L17.97 38.6599ZM25.33 43.0799C24.12 41.2499 23.3 39.1799 22.91 37.0199C25.31 36.6099 27.76 36.6099 30.16 37.0199C29.77 39.1799 28.95 41.2399 27.74 43.0799C26.94 43.1799 26.13 43.1799 25.32 43.0799H25.33ZM33.96 40.0899C32.83 41.2199 31.45 42.0699 29.93 42.5899C30.8 40.9499 31.41 39.1999 31.75 37.3799C32.92 37.6899 34.05 38.1199 35.12 38.6799C34.78 39.1899 34.39 39.6599 33.96 40.0999V40.0899ZM35.96 37.2699C34.71 36.6199 33.39 36.1099 32.02 35.7599C32.14 34.7399 32.2 33.7099 32.21 32.6799C32.21 31.6499 32.15 30.6199 32.03 29.5999C33.4 29.2499 34.72 28.7499 35.97 28.0899C36.67 29.5199 37.04 31.0899 37.04 32.6799C37.04 34.2699 36.67 35.8399 35.97 37.2699H35.96Z" fill="url(#paint3_linear_41_1850)"/>
<defs>
<filter id="filter0_f_41_1850" x="-2.52002" y="4.60986" width="58" height="57" filterUnits="userSpaceOnUse" color-interpolation-filters="sRGB">
<feFlood flood-opacity="0" result="BackgroundImageFix"/>
<feBlend mode="normal" in="SourceGraphic" in2="BackgroundImageFix" result="shape"/>
<feGaussianBlur stdDeviation="4.5" result="effect1_foregroundBlur_41_1850"/>
</filter>
<radialGradient id="paint0_radial_41_1850" cx="0" cy="0" r="1" gradientUnits="userSpaceOnUse" gradientTransform="translate(26.845 30.6099) rotate(90) scale(26.5 31.8777)">
<stop offset="0.505208" stop-color="#DE0B13" stop-opacity="0"/>
<stop offset="0.947917" stop-color="#DE0B13"/>
</radialGradient>
<linearGradient id="paint1_linear_41_1850" x1="26.48" y1="24.3034" x2="26.48" y2="52.6099" gradientUnits="userSpaceOnUse">
<stop stop-color="#E43E48"/>
<stop offset="1" stop-color="#2D0805"/>
</linearGradient>
<linearGradient id="paint2_linear_41_1850" x1="21.48" y1="3.10986" x2="45.98" y2="60.6099" gradientUnits="userSpaceOnUse">
<stop stop-color="#F90D0F"/>
<stop offset="0.87" stop-color="#780816"/>
</linearGradient>
<linearGradient id="paint3_linear_41_1850" x1="26.56" y1="20.6099" x2="26.56" y2="44.7699" gradientUnits="userSpaceOnUse">
<stop stop-color="#FF5C5E"/>
<stop offset="0.87" stop-color="#910616"/>
</linearGradient>
</defs>
</svg>
