<svg width="41" height="40" viewBox="0 0 41 40" fill="none" xmlns="http://www.w3.org/2000/svg">
<path fill-rule="evenodd" clip-rule="evenodd" d="M20.6378 9L37.0923 1L37.0922 8L20.6377 16L4.1832 8L4.1833 1L20.6378 9ZM20.6377 19.5L37.0922 11.5V29.5L20.6377 39L4.1832 29.5V11.5L20.6377 19.5ZM11.683 20H10.683L9.93941 22.2884L7.53323 22.2884L7.22421 23.2395L9.17086 24.6538L8.42732 26.9422L9.23634 27.53L11.183 26.1157L13.1296 27.5299L13.9386 26.9422L13.1951 24.6538L15.1417 23.2395L14.8327 22.2884H12.4265L11.683 20ZM21.1831 25H20.1831L19.4395 27.2884L17.0333 27.2884L16.7243 28.2395L18.671 29.6538L17.9274 31.9422L18.7364 32.53L20.6831 31.1157L22.6297 32.5299L23.4387 31.9422L22.6952 29.6538L24.6418 28.2395L24.3328 27.2884H21.9266L21.1831 25ZM29.683 20H30.683L31.4265 22.2884H33.8327L34.1417 23.2395L32.1951 24.6538L32.9386 26.9422L32.1296 27.5299L30.183 26.1157L28.2363 27.53L27.4273 26.9422L28.1709 24.6538L26.2242 23.2395L26.5332 22.2884L28.9394 22.2884L29.683 20Z" fill="url(#paint0_linear_1_510)"/>
<defs>
<linearGradient id="paint0_linear_1_510" x1="31.0809" y1="34.0381" x2="17.0981" y2="-2.06464" gradientUnits="userSpaceOnUse">
<stop stop-color="#AE5E13"/>
<stop offset="1" stop-color="#DFAD46"/>
</linearGradient>
</defs>
</svg>
