<svg width="41" height="40" viewBox="0 0 41 40" fill="none" xmlns="http://www.w3.org/2000/svg">
<path fill-rule="evenodd" clip-rule="evenodd" d="M20.6378 9L37.0923 1L37.0922 8L20.6377 16L4.18323 8L4.18333 1L20.6378 9ZM20.6377 19.5L37.0922 11.5V29.5L20.6377 39L4.18323 29.5V11.5L20.6377 19.5ZM11.683 20H10.683L9.93944 22.2884L7.53326 22.2884L7.22424 23.2395L9.17089 24.6538L8.42735 26.9422L9.23637 27.53L11.183 26.1157L13.1296 27.5299L13.9386 26.9422L13.1951 24.6538L15.1417 23.2395L14.8327 22.2884H12.4265L11.683 20ZM21.1831 25H20.1831L19.4395 27.2884L17.0334 27.2884L16.7243 28.2395L18.671 29.6538L17.9275 31.9422L18.7365 32.53L20.6831 31.1157L22.6297 32.5299L23.4387 31.9422L22.6952 29.6538L24.6418 28.2395L24.3328 27.2884H21.9266L21.1831 25ZM29.683 20H30.683L31.4265 22.2884H33.8327L34.1417 23.2395L32.1951 24.6538L32.9386 26.9422L32.1296 27.5299L30.183 26.1157L28.2364 27.53L27.4273 26.9422L28.1709 24.6538L26.2242 23.2395L26.5333 22.2884L28.9394 22.2884L29.683 20Z" fill="url(#paint0_linear_1_513)"/>
<defs>
<linearGradient id="paint0_linear_1_513" x1="31.0809" y1="34.0381" x2="17.0981" y2="-2.06464" gradientUnits="userSpaceOnUse">
<stop stop-color="#C22342"/>
<stop offset="1" stop-color="#F2412D"/>
</linearGradient>
</defs>
</svg>
