<svg width="15" height="30" viewBox="0 0 15 30" fill="none" xmlns="http://www.w3.org/2000/svg">
<g clip-path="url(#clip0_3293_215298)">
<path d="M6.38672 20.2281L11.0398 0H4.01536C3.19207 0.000827298 2.40272 0.328248 1.82056 0.910408C1.2384 1.49257 0.910984 2.28191 0.910156 3.10521V26.8906C0.910431 27.7145 1.23754 28.5046 1.8197 29.0875C2.40186 29.6704 3.19151 29.9986 4.01536 30H11.0352C11.8597 29.9989 12.6502 29.671 13.2335 29.0882C13.8168 28.5054 14.1453 27.7152 14.1471 26.8906V3.10521C14.1456 2.28176 13.8177 1.4925 13.2352 0.910433C12.6528 0.328362 11.8633 0.000963638 11.0398 0" fill="#F0F1F5"/>
<path d="M9.29754 5.50001L9.30484 5.60105C9.5189 5.72605 9.62723 5.82761 9.84338 5.96563C10.4163 6.32605 11.122 6.9672 11.033 9.17553C11.1934 9.6573 11.2642 10.6042 11.4126 10.9073C11.7111 11.499 11.9106 11.8839 11.9975 12.4422C11.9975 12.4422 12.0835 13.3115 12.1955 13.3745C12.7882 13.5078 12.6168 13.5667 12.7033 13.6677C12.7955 13.787 13.1371 13.7813 13.1371 14.1C13.2505 14.2519 13.3425 14.4185 13.4106 14.5953V3.10522C13.4102 2.47637 13.1603 1.87336 12.7158 1.4285C12.2714 0.983645 11.6686 0.733265 11.0397 0.7323H8.76994C9.13452 0.861466 9.34025 1.01459 9.46056 1.2573C9.75379 1.28282 10.1022 1.93959 9.55952 2.9099C9.79963 3.0698 9.61161 3.30886 9.43973 3.58699C9.38765 3.67657 9.33556 3.83438 9.17359 3.82397C8.96525 4.2573 8.71838 4.67761 8.53036 4.70417C8.47359 4.77449 8.43192 4.96095 8.51786 5.04845C8.7939 5.1724 9.13088 5.3422 9.29911 5.50053" fill="#0A0C14"/>
<path d="M13.4106 16.1536C13.2762 16.4913 13.0573 16.7887 12.7748 17.0173C12.4923 17.2459 12.1557 17.3979 11.7975 17.4588C11.4392 17.5198 11.0713 17.4875 10.7291 17.3651C10.3869 17.2427 10.082 17.0344 9.84362 16.7601C9.60523 16.4858 9.44142 16.1548 9.36794 15.7989C9.29445 15.443 9.31376 15.0742 9.42401 14.7279C9.53426 14.3817 9.73174 14.0696 9.99747 13.8217C10.2632 13.5738 10.5882 13.3984 10.9413 13.3125C10.6976 12.7021 10.1825 11.7125 10.0293 11.3854C9.88455 11.063 9.53559 9.0505 9.46059 8.65258C9.4434 8.5656 8.54757 9.17341 8.546 9.20987C8.49392 9.26196 7.87361 10.8791 7.84757 10.9666C7.83796 11.0568 7.83327 11.1474 7.8335 11.238C7.8335 11.238 8.13819 11.276 8.31371 11.8078C8.48923 12.3396 9.01684 14.2776 9.01684 14.2776C9.01684 14.2776 8.87361 14.4255 8.86736 14.4166C9.53559 16.6562 9.30225 17.6177 9.60225 18.2739C9.97934 19.1989 10.0809 19.0776 10.4043 19.8552C10.6361 20.4213 10.895 22.65 10.9814 22.7484C11.3424 23.2062 11.5366 23.5635 11.5366 23.8219C11.5366 24.0802 11.2309 24.8489 11.3424 25.2958C11.4101 25.5562 11.4465 26.1484 11.5679 26.2604C11.5679 26.2604 11.6799 26.4817 11.6252 26.5797C11.609 26.614 11.5773 26.6651 11.5913 26.7057C11.7903 27.4083 12.433 28.6067 11.3924 29.2344H11.4148C11.9735 29.1475 12.4823 28.8627 12.8487 28.432C13.215 28.0014 13.4144 27.4534 13.4106 26.888V16.1536Z" fill="#0A0C14"/>
<path d="M10.7379 26.4349C10.3566 26.0942 10.6113 25.9505 10.5962 25.8161C10.3446 24.7771 9.51911 24.1495 9.94619 23.8057C9.84203 23.4625 9.6264 23.0317 9.63369 23.0323C8.34775 22.2937 7.25244 21.0942 7.0665 20.9182C6.84098 20.6734 6.45661 20.4271 6.38421 20.2281C6.07536 19.9437 4.5613 17.7937 4.20609 17.0015L3.59098 16.9146C3.3139 15.7713 2.3764 14.813 2.354 13.6666C2.34515 13.2333 2.55036 12.3052 2.62692 12.1198C2.70348 11.9343 3.05973 11.6234 3.05973 11.6234V11.3151C1.71755 11.3531 2.10348 11.2161 1.87223 10.6942C1.70973 10.3328 1.8264 10.2536 1.88473 10.0031C2.06494 9.26299 2.66286 8.12237 2.91077 7.60414C2.9863 7.34372 3.24515 6.71195 3.24515 6.71195C4.24515 4.67497 4.61859 4.82497 5.80661 4.70987L5.86598 4.62758C7.05609 4.57549 6.8613 4.48643 7.02953 3.33956C6.85557 3.41404 6.80348 2.98174 6.80348 2.98174C6.70869 2.32862 6.98369 2.45258 7.11598 2.43956C7.14411 1.36664 7.25401 1.02862 8.02796 0.733307H4.01755C3.70575 0.733239 3.39699 0.794592 3.10891 0.913864C2.82083 1.03314 2.55906 1.20799 2.33857 1.42844C2.11807 1.64889 1.94316 1.91061 1.82382 2.19867C1.70449 2.48673 1.64307 2.79547 1.64307 3.10727V26.8906C1.64293 27.2025 1.70425 27.5114 1.82351 27.7996C1.94278 28.0878 2.11766 28.3497 2.33817 28.5703C2.55867 28.7909 2.82048 28.9659 3.10863 29.0853C3.39678 29.2047 3.70564 29.2661 4.01755 29.2661H11.0399C10.2358 28.8317 10.7097 28.0047 10.7379 26.4349Z" fill="#0A0C14"/>
<path d="M5.34502 27.7734V23.4656H6.17835C6.66169 23.4656 6.9596 23.726 6.9596 24.3281V24.9672C6.9596 25.3588 6.84033 25.5583 6.67262 25.6547C6.84033 25.7693 6.9596 25.9625 6.9596 26.288V26.913C6.9596 27.5036 6.64294 27.7687 6.17835 27.7687L5.34502 27.7734ZM5.91794 25.9041V27.2307H6.13877C6.33564 27.2307 6.38981 27.1265 6.38981 26.9234V26.1943C6.38981 25.9859 6.32419 25.9052 6.13304 25.9052L5.91794 25.9041ZM5.91794 24.0104V25.4297H6.13304C6.33564 25.4297 6.38981 25.3568 6.38981 25.1219V24.2979C6.38981 24.0984 6.32939 24.0083 6.13877 24.0083L5.91794 24.0104ZM8.31377 26.8969H7.79294L7.72002 27.7734H7.14137L7.66221 23.4677H8.48564L8.98512 27.7734H8.38304L8.31377 26.8969ZM8.05335 23.9479H8.02367C7.98773 24.4687 7.91637 25.3771 7.89242 25.6666L7.82679 26.4083H8.27419L8.2096 25.6666C8.18564 25.3713 8.10231 24.4729 8.05335 23.9479M3.63825 27.7734H3.13721V23.4656H3.93096L4.5695 26.9922C4.51741 26.1479 4.44398 25.1286 4.44398 24.2599V23.4656H4.94554V27.7734H4.21637L3.57783 24.3234C3.6195 25.1198 3.63721 25.7536 3.63721 26.4166L3.63825 27.7734Z" fill="#F0F1F5"/>
</g>
<defs>
<clipPath id="clip0_3293_215298">
<rect width="13.237" height="30" fill="white" transform="translate(0.910156)"/>
</clipPath>
</defs>
</svg>
