<svg width="190" height="39" viewBox="0 0 190 39" fill="none" xmlns="http://www.w3.org/2000/svg">
<path d="M4.91531 33C2.53057 33 0.601563 31.165 0.601563 28.8984L0.601563 10.1016C0.601562 7.83129 2.53057 6.00002 4.91531 6.00002L49.2039 6.00002C51.5886 6.00002 53.5255 7.83129 53.5255 10.1016V28.8984C53.5255 31.165 51.5925 33 49.2039 33H4.91531Z" fill="white"/>
<path d="M51.2387 8.16532C50.6965 7.64746 49.9736 7.36226 49.2036 7.36226H36.8281L43.9509 18.6463L44.6031 18.7251L44.9842 19.2355V19.7271L45.4438 19.8059L45.8524 20.3425V20.8078L46.3081 20.8866C46.3081 20.8866 46.7757 21.3482 46.7757 21.3782V22.429C46.7757 22.429 47.7814 23.3071 48.6732 23.6411C49.2979 23.8737 49.3804 24.8231 49.734 25.341C50.2172 26.0577 50.8694 26.3692 50.7358 26.7745C50.4097 27.8853 49.2193 29.739 48.1114 29.8441C48.1114 29.8441 45.3378 29.8479 43.7113 29.8479V31.6304H49.2075C50.7948 31.6304 52.0873 30.4032 52.0873 28.891V10.1017C52.0873 9.3699 51.7848 8.68693 51.2426 8.16907" fill="#292929"/>
<path d="M7.99501 27.7689C6.90283 27.7689 6.01493 26.9283 6.01101 25.8889C6.01101 24.8531 6.89497 24.0051 7.98715 24.0051C9.07934 24.0051 9.9633 24.8494 9.9633 25.8851C9.96723 26.9283 9.08327 27.7689 7.99501 27.7689V27.7689ZM32.6046 7.36226H4.91882C4.15272 7.36226 3.42197 7.64746 2.88374 8.16532C2.33765 8.68318 2.03906 9.36615 2.03906 10.0979L2.03906 28.8985C2.03906 29.6265 2.33765 30.3169 2.88374 30.831C3.42197 31.3489 4.14879 31.6379 4.91882 31.6379H22.8967C22.4449 30.9211 21.9381 30.1068 21.7848 29.8666H19.6398C19.6398 24.8156 21.4548 22.0087 23.5921 21.4683C23.8906 21.4158 23.7531 20.0311 23.3799 19.6145C23.3799 19.6145 22.3506 19.6408 22.1345 19.5845C21.8634 19.5094 22.052 19.2505 22.052 19.2505L23.0538 17.1903L22.9124 16.6274H19.2037C19.1487 16.6274 22.2681 14.5898 22.2681 14.5898C22.4252 9.23106 28.2083 8.81827 31.7127 11.0323C33.7753 12.342 33.9403 14.92 33.7832 16.7213C33.7557 16.8263 33.241 16.7475 33.241 16.7475C33.241 16.7475 32.8835 18.7064 33.8067 18.7064H37.8691C39.527 18.6501 41.1299 19.7046 41.1299 19.7046L41.5346 18.3649L32.6046 7.36226Z" fill="#292929"/>
<path d="M165.422 19.501L177.41 30.84L180.193 28.208V22.5375L177.408 25.1715L171.41 19.499L177.408 13.8247L183.406 19.499H183.404V25.1695L189.398 19.501L177.41 8.16002L165.422 19.501Z" fill="white"/>
<path d="M87.5066 10.8357H78.6094V27.2259H82.4465V22.964H87.504C88.7503 22.964 89.7716 22.0034 89.7716 20.8343V12.9678C89.7716 11.7962 88.7503 10.8381 87.504 10.8381L87.5066 10.8357ZM85.9371 19.6869H82.4491V14.1152H85.9371V19.6869Z" fill="white"/>
<path d="M95.1965 10.8357H91.3594V27.2259H101.358L102.105 23.9488H95.1965V10.8357Z" fill="white"/>
<path d="M107.332 23.9488H111.293L111.916 27.2259H115.779L112.266 10.8357L106.533 10.8284L102.797 27.2259H106.683L107.332 23.9488ZM109.3 14.1152H109.473L110.693 20.6717H107.976L109.297 14.1152H109.3Z" fill="white"/>
<path d="M122.484 27.2259V21.8167L127.071 10.8357H122.957L120.591 17.7197L118.2 10.8357H114.086L118.673 21.8167V27.2259H122.484Z" fill="white"/>
<path d="M128.336 27.2259H137.83V23.9488H132.173V20.6693H135.612L136.408 17.3922H132.173V14.1127H137.83V10.8357H128.336V27.2259Z" fill="white"/>
<path d="M150.626 20.5286V12.9654C150.626 11.7938 149.605 10.8357 148.359 10.8357H139.562V27.2259H143.4V22.6365H145.419L146.691 27.2259H150.652L149.331 22.4255C150.127 22.098 150.626 21.3485 150.626 20.5286V20.5286ZM146.789 19.357H143.4V14.1127H146.789V19.357Z" fill="white"/>
<path d="M162.607 15.2601V12.9654C162.607 11.7938 161.586 10.8357 160.34 10.8357H154.408C153.162 10.8357 152.141 11.7962 152.141 12.9654V17.1327C152.141 17.9768 152.689 18.7482 153.537 19.0757L158.77 21.1593V23.9464H155.98V21.9792L152.143 22.7991V25.0937C152.143 26.2653 153.165 27.2235 154.411 27.2235H160.342C161.589 27.2235 162.61 26.2629 162.61 25.0937V20.434C162.61 19.5899 162.062 18.8185 161.214 18.4911L155.98 16.4074V14.1127H158.77V16.08L162.607 15.2601Z" fill="white"/>
<path d="M72.8977 25.6759L75.5247 24.6183V23.9124L72.8977 22.8573H77.0244V21.3049H69.5234V22.947L73.1227 24.2666L69.5234 25.5837V27.2259H77.0244V25.6759H72.8977Z" fill="white"/>
<path d="M75.5247 16.3517V18.5105H69.5234V20.0605H77.0244V16.3517H75.5247Z" fill="white"/>
<path d="M76.0496 10.8357H74.175C73.7691 10.8357 73.4252 11.0661 73.2752 11.3984C73.1252 11.0661 72.7814 10.8357 72.3754 10.8357H70.4982C69.963 10.8357 69.5234 11.248 69.5234 11.7526V15.3474H77.0244V11.7526C77.0244 11.248 76.5848 10.8357 76.0496 10.8357V10.8357ZM75.5247 12.3857V13.795H74.025V12.3857H75.5247ZM72.5254 12.3857V13.795H71.0231V12.3857H72.5228H72.5254Z" fill="white"/>
</svg>
