<svg fill="none" height="220" viewBox="0 0 923 220" width="923" xmlns="http://www.w3.org/2000/svg"><g fill="#ff4b44"><path d="m.562256 170.537v-168.08889h46.093344v172.08489h81.4334v43.02h-100.7921l-18.13064-22.432c-6.14667-7.989-8.604004-15.365-8.604004-24.584z"/><path d="m263.298 143.803-24.276-98.3336h-4.917l-24.276 98.3336zm-110.319 38.718 49.782-180.07297h52.854c9.834 0 15.98 4.608 18.746 14.44267l45.786 165.6303c2.151 7.376 2.459 12.294 2.459 21.819v13.213h-40.871l-16.286-65.453-66.068 33.803-7.99 31.65h-40.87v-13.213c0-9.525.308-14.443 2.458-21.819z"/><path d="m343.503 170.537v-168.08901h46.094v172.08501h81.434v43.02h-100.794l-18.13-22.432c-6.146-7.989-8.604-15.365-8.604-24.584z"/><path d="m497.149 2.44799h46.095v215.10501h-46.095z"/><path d="m574.588 149.269v-78.5365c0-45.7866 24.891-70.6772908 70.677-70.6772908h20.178c45.173 0 70.678 23.0466908 70.678 63.9172908h-46.094v-8.6053c0-7.9893-4.303-12.292-12.291-12.292h-44.761c-7.991 0-12.294 4.3027-12.294 12.292v109.2658c0 7.989 4.303 12.292 12.294 12.292h44.761c7.988 0 12.291-4.303 12.291-12.292v-27.042h-31.959v-43.0211h51.319l18.13 22.4331c6.146 7.682 8.604 14.75 8.604 24.583v7.683c0 45.786-24.89 70.677-70.678 70.677h-20.178c-45.786 0-70.677-24.891-70.677-70.677z"/><path d="m862.792 143.803-24.276-98.3338h-4.918l-24.276 98.3338zm-110.319 38.718 49.781-180.07309h52.855c9.833 0 15.98 4.608 18.745 14.44269l45.787 165.6304c2.151 7.376 2.459 12.294 2.459 21.819v13.213h-40.871l-16.287-65.453-66.068 33.803-7.989 31.65h-40.871v-13.213c0-9.525.307-14.443 2.459-21.819z"/></g></svg>