<svg width="42" height="50" viewBox="0 0 42 50" fill="none" xmlns="http://www.w3.org/2000/svg">
    <path d="M7.83715 3.32575C9.58738 4.13113 10.7103 5.15444 10.9142 5.3092C10.8201 4.8544 10.475 2.6625 10.2774 1.30124C11.2968 2.01503 13.665 3.66686 14.4429 4.20694C14.7597 3.22153 15.8575 0.00631672 15.8575 0.00631672C15.8575 0.00631672 17.8429 3.24364 18.1817 3.77108C18.5957 3.33523 20.9701 0.675889 21.5849 0C21.6884 1.5318 21.8296 3.72055 21.8641 4.04902C21.9864 3.88478 22.8929 2.60249 24.4173 1.4181C23.7555 2.72882 23.4418 4.5354 23.3007 5.98825C21.8013 5.56503 20.2205 5.34079 18.5895 5.34079C15.4591 5.34079 12.5201 6.17144 9.97946 7.62428C9.51838 6.22197 8.79382 4.47855 7.83402 3.32259M26.0797 21.5495V19.2976C26.0797 19.2976 25.0791 18.9723 24.0095 18.1385C21.8672 18.4638 19.2701 20.6367 19.2701 20.6367C19.2701 20.6367 20.1484 22.3138 21.1082 24.1204C22.7957 24.3541 25.2799 22.2127 26.0828 21.5495M28.2377 25.6364C28.2377 25.6364 28.0652 24.7047 27.3312 23.833L25.6594 23.874C25.6594 23.874 23.4042 25.8259 22.0272 25.8733C22.0272 25.8733 22.7862 27.2945 23.1658 28.0336C23.9248 27.8694 25.2548 27.2661 25.7943 26.6376C25.7943 26.6376 26.1487 27.7904 26.0828 29.1485C26.8356 28.7063 27.877 27.5156 28.2377 25.6364ZM28.9246 18.2301C28.0808 18.9438 27.3657 19.3418 27.3657 19.3418L27.372 21.6063C27.9773 22.2822 28.5733 22.8444 29.0187 23.8677C29.8624 22.3391 29.7025 20.084 28.9246 18.2301ZM29.1097 16.2119L29.2414 15.1822C29.2853 14.6169 29.141 13.6757 28.3537 12.7029C27.3751 11.6007 24.9191 9.8225 23.7492 9.39612C23.7492 9.39612 23.652 10.5331 23.2505 11.0827C20.9168 9.38665 19.7688 8.96027 19.7688 8.96027C17.2062 9.3298 15.5564 10.3247 14.6624 11.108L15.4434 11.7775C13.8971 12.2576 12.8965 13.5936 12.8965 13.5936C12.9059 13.6157 14.2766 13.8147 14.2766 13.8147C14.2766 13.8147 14.1355 15.4349 16.1523 16.4487C17.8774 17.3173 20.3585 16.2403 22.6921 17.1846C21.1552 15.4002 20.0982 14.6011 20.0982 14.6011C20.0982 14.6011 19.4865 14.4716 19.0568 14.4748C18.5205 14.4779 17.7206 14.5853 16.8424 14.241C16.4252 14.0768 15.9359 13.7862 15.5532 13.543C15.5532 13.543 16.6322 12.4281 18.2068 12.1818C18.2068 12.1818 19.6277 12.5829 20.7537 13.423C21.5034 12.6903 22.2844 12.7124 22.2844 12.7124C22.2844 12.7124 21.5128 13.442 21.7449 14.32C22.8709 15.3307 24.0911 16.7741 24.0911 16.7741C25.3332 16.0887 28.0338 16.2466 28.589 16.8941C27.8864 15.9781 26.8733 15.2107 26.0891 14.5537C25.995 14.2095 25.1387 13.0093 24.9944 12.8987C24.9944 12.8987 25.8068 13.1514 26.5314 13.8084C26.7415 13.5083 27.1305 13.2051 27.6637 13.0693C28.2094 13.5304 28.3067 14.241 28.2941 14.3579C28.0463 14.6516 27.8048 14.7748 27.8048 14.7748L29.1191 16.2087L29.2508 15.1791M30.4302 17.0457C32.4345 20.7789 32.9238 25.2479 31.5311 29.7012C31.4464 29.6065 30.3863 28.4126 29.9471 27.9231C29.668 32.2784 28.3945 35.661 24.6808 38.5162C24.6808 38.5162 24.3295 37.1486 24.1193 36.2927C17.9935 40.8155 12.7271 38.7468 11.2466 38.0014C12.3915 32.708 11.5039 29.6696 10.7385 27.3514C9.10748 30.0486 7.4388 32.1426 5.77013 33.5576C4.63154 30.8793 4.54371 25.8986 5.46588 22.9581C5.15849 23.0402 3.36121 23.6151 2.36063 23.9183C2.76212 21.2179 4.5343 17.6015 6.40686 15.8013C6.08065 15.7444 5.12085 15.6055 4.36179 15.4791C4.82914 14.5221 6.1873 12.7408 8.26687 11.0701C8.20727 12.2481 8.64013 13.6504 9.96064 14.3263C9.12317 12.8482 9.02279 11.0195 9.89477 10.072C10.773 9.11819 12.2441 9.44665 13.1819 10.1889C13.0063 9.67406 12.6299 9.08029 12.0716 8.68549C14.6656 7.46952 17.8116 6.76521 21.381 7.32108C21.93 7.80431 22.5196 8.48336 22.8427 8.90342C22.8584 8.60021 22.8145 8.02223 22.7204 7.58322C24.1789 7.93064 25.7033 8.49283 27.281 9.314C24.4706 6.49043 18.7745 5.64083 14.0194 7.01156C12.9059 7.33371 11.8489 7.75693 10.8514 8.25911C9.80381 8.27174 9.12944 8.91605 8.7405 9.49087C5.69799 11.5217 3.46785 14.1968 2.39513 16.4361C2.63352 16.4898 3.35494 16.5782 4.0199 16.6951C2.65861 18.6596 0.88015 22.3549 0.999341 25.6712C1.30987 25.5764 2.96913 25.0647 3.78465 24.7994C3.34866 27.7272 3.47726 32.6448 5.36237 35.4558C7.73678 33.7629 9.11376 31.9816 10.2586 30.3771C10.5535 31.8236 10.842 34.3914 9.8289 38.6489C10.6507 39.2868 16.604 42.4357 23.3383 38.3235L23.8997 40.5597L24.6274 40.0827C28.727 37.4013 30.2984 33.7787 30.8473 30.8319C31.0355 31.0435 31.782 31.8647 32.0487 32.1363C33.0775 29.3096 35.132 22.5191 30.4208 17.0583M19.1478 49.9747L18.9031 47.1133L19.59 47.0532L19.7092 47.4575C19.8127 47.1827 20.0511 46.9743 20.393 46.9427C20.4683 46.9364 20.5436 46.9427 20.6188 46.9617L20.6847 47.7197C20.5843 47.707 20.4934 47.6976 20.4056 47.707C20.0166 47.7418 19.7782 48.0039 19.8159 48.4619L19.9382 49.9052L19.1478 49.9747ZM20.9231 48.4145C20.7631 47.6249 21.196 46.8069 22.1056 46.6206C22.7894 46.4816 23.5861 46.8511 23.7806 47.8113C23.7962 47.8839 23.8151 47.9818 23.8119 48.0892L21.7637 48.5061C21.9017 48.8093 22.2279 48.9577 22.573 48.8883C22.8803 48.8251 23.0999 48.6577 23.2567 48.4113L23.8213 48.7967C23.5892 49.2041 23.1877 49.4883 22.7172 49.5831C21.8515 49.76 21.0925 49.2925 20.9168 48.4177M22.2154 47.3091C21.8923 47.3754 21.6602 47.6218 21.6602 47.9376L22.9525 47.6754C22.8333 47.3912 22.529 47.2459 22.2154 47.3091ZM24.6651 49.1125L23.6112 46.4437L24.2573 46.1847L24.4706 46.5037C24.4706 46.5037 24.4643 46.0205 24.9599 45.8215C25.2673 45.6983 25.5747 45.7204 25.8633 45.9226L25.8884 45.9447L25.8978 45.9068C26.0075 45.433 26.3181 45.2783 26.5125 45.1993C27.0771 44.975 27.6354 45.2435 27.8738 45.8531L28.5451 47.5554L27.8142 47.846L27.1932 46.27C27.0803 45.9826 26.8482 45.8657 26.5972 45.9636C26.3118 46.0773 26.2365 46.3174 26.3557 46.6206L26.9736 48.1839L26.2365 48.4777L25.6155 46.9016C25.5026 46.6142 25.2767 46.4942 25.0258 46.5953C24.7404 46.709 24.6588 46.9522 24.778 47.2554L25.3959 48.8188L24.6651 49.1125ZM27.8331 44.1381C27.5915 44.2739 27.3061 44.1949 27.1744 43.9581C27.0395 43.7149 27.1179 43.4275 27.3594 43.2916C27.6009 43.1558 27.8864 43.2348 28.0212 43.478C28.153 43.7149 28.0746 44.0023 27.8331 44.1381ZM29.072 47.1827L27.67 44.6813L28.3537 44.2928L29.7527 46.7943L29.0689 47.1827H29.072ZM29.4453 45.3762C28.9811 44.7192 29.0469 43.7938 29.8028 43.2537C30.3706 42.8495 31.2488 42.8589 31.8134 43.658C31.8573 43.7212 31.9138 43.8001 31.9546 43.898L30.2514 45.114C30.4992 45.3351 30.8567 45.3383 31.1453 45.133C31.4025 44.9498 31.5343 44.7066 31.5782 44.416L32.2494 44.536C32.2024 45.0035 31.9483 45.4267 31.5562 45.7046C30.8348 46.2194 29.9534 46.0994 29.4421 45.3762M30.1824 43.8317C29.9126 44.0244 29.7997 44.3434 29.9283 44.6308L31.0042 43.8633C30.7815 43.6517 30.4459 43.6422 30.1824 43.8317ZM33.0869 44.4286L31.1579 42.3125L31.666 41.842L32.0047 42.0915C31.9201 41.8104 31.9828 41.4977 32.2369 41.264C32.2902 41.2134 32.356 41.1724 32.4282 41.1376L32.9395 41.6998C32.8516 41.7504 32.7764 41.8009 32.7105 41.8609C32.4251 42.1262 32.3937 42.4831 32.7011 42.821L33.6734 43.8854L33.09 44.4255L33.0869 44.4286ZM32.1177 39.3626L32.6352 38.6899L35.4299 40.866L36.5528 39.4037L37.1864 39.8964L35.546 42.0315L32.1177 39.3626ZM36.098 38.9678C35.4048 38.5636 35.0818 37.6982 35.546 36.8865C35.8941 36.2801 36.6971 35.92 37.5409 36.4096C37.6067 36.4475 37.6883 36.4949 37.7698 36.5675L36.7253 38.3899C37.0421 38.4878 37.3684 38.3362 37.544 38.0298C37.7008 37.755 37.7197 37.4803 37.6412 37.1992L38.3031 37.0255C38.4536 37.4708 38.3972 37.9603 38.1588 38.3772C37.7165 39.1479 36.8665 39.41 36.1012 38.9647M36.1325 37.2497C35.9663 37.5371 35.9977 37.8751 36.2329 38.0835L36.8916 36.9339C36.603 36.836 36.2925 36.9686 36.1325 37.2497ZM39.5891 35.4084C39.3162 36.119 38.4254 36.4917 37.6726 36.198C36.9324 35.9106 36.5466 35.0388 36.8194 34.3282C36.9731 33.9271 37.2147 33.7155 37.5283 33.6523L37.2084 33.4407L37.4593 32.7869L40.1192 33.8229L39.8682 34.4767L39.5044 34.423C39.68 34.6756 39.7302 35.0452 39.5891 35.4115M37.5377 34.4419C37.384 34.843 37.5691 35.2631 37.9737 35.421C38.3658 35.5726 38.7892 35.3926 38.9429 34.9915C39.0904 34.6062 38.899 34.1829 38.5101 34.0313C38.1055 33.8734 37.6883 34.0598 37.5409 34.4451M40.6524 31.8647C40.4861 32.6606 39.7114 33.1533 38.8833 32.9796C38.071 32.809 37.5816 32.0289 37.7479 31.2299C37.8138 30.9046 38.0302 30.6424 38.3062 30.5224L37.9706 30.3676L38.1117 29.6886L40.7778 30.2508C41.2985 30.3613 41.6341 30.5792 41.8349 30.9804C41.976 31.2867 42.0513 31.672 41.9604 32.1079C41.838 32.689 41.5557 33.068 41.1605 33.3396L40.6587 32.7806C40.9002 32.6164 41.1323 32.3732 41.2107 32.0037C41.3299 31.4288 41.0978 31.1098 40.6806 31.0214L40.483 30.9804C40.6743 31.2678 40.7151 31.5615 40.6524 31.8615M38.463 31.2772C38.3783 31.691 38.6261 32.0826 39.0496 32.1711C39.4605 32.2563 39.8494 32.0005 39.9372 31.5868C40.0219 31.1793 39.7679 30.7877 39.357 30.7024C38.9335 30.614 38.5509 30.8698 38.4662 31.2772M39.6549 29.4991L38.1368 29.4296L38.1713 28.64L39.6361 28.7063C40.1286 28.7284 40.3481 28.5105 40.367 28.1284C40.3826 27.7746 40.1474 27.5062 39.6926 27.4872L38.2278 27.4209L38.2623 26.6313L39.7804 26.7008C40.8437 26.7482 41.1511 27.5409 41.126 28.1631C41.0978 28.7948 40.7214 29.5496 39.6581 29.5022M39.5232 26.3976C38.7202 26.3976 38.0114 25.8101 38.0114 24.8752C38.0114 24.1741 38.5289 23.4571 39.5012 23.4571C39.5765 23.4571 39.6738 23.4571 39.7773 23.4792V25.5827C40.1003 25.5069 40.3074 25.2132 40.3074 24.8595C40.3074 24.5436 40.1882 24.2941 39.978 24.092L40.4642 23.6087C40.8155 23.9183 41.01 24.3699 41.01 24.8531C41.01 25.7438 40.4046 26.3976 39.5201 26.3976M38.6951 24.8974C38.6951 25.229 38.8896 25.5069 39.197 25.5669V24.2404C38.8959 24.3004 38.6951 24.572 38.6951 24.8974ZM15.6693 50V45.6351H17.04C17.937 45.6351 18.6051 46.1689 18.6051 47.0912C18.6051 48.0134 17.9465 48.5756 17.04 48.5756H16.5067V50H15.6693ZM16.5067 47.7607H16.9929C17.4195 47.7607 17.7332 47.5207 17.7332 47.0912C17.7332 46.6616 17.4195 46.4437 16.9929 46.4437H16.5067V47.7639V47.7607Z" fill="white"/>
</svg>

