<svg width="36" height="20" viewBox="0 0 36 20" xmlns="http://www.w3.org/2000/svg">
    <path
        d="M33.0042 0.0757789H3.00156C2.20619 0.073236 1.44187 0.390819 0.874175 0.959728C0.593593 1.24672 0.371799 1.58791 0.221739 1.96339C0.071679 2.33887 -0.00364046 2.74111 0.000176871 3.14664V16.8191C-0.0041429 17.2232 0.0707045 17.6241 0.220317 17.9982C0.369929 18.3722 0.591286 18.712 0.871365 18.9974C1.15106 19.283 1.48321 19.5093 1.84876 19.6635C2.21431 19.8176 2.60607 19.8966 3.00156 19.8957H33.0042C33.8005 19.8919 34.5628 19.566 35.1243 18.9894C35.6858 18.4127 36.0007 17.6324 35.9999 16.8191V3.14377C36.0029 2.74075 35.9275 2.34114 35.7781 1.9681C35.6287 1.59507 35.4083 1.25603 35.1296 0.970641C34.851 0.685257 34.5196 0.459205 34.1548 0.305594C33.7899 0.151983 33.3988 0.073868 33.0042 0.0757789Z"
        fill="white" />
    <path
        d="M34.502 3.47232C34.5049 3.2232 34.4581 2.976 34.3642 2.74518C34.2703 2.51436 34.1313 2.30454 33.9553 2.128C33.7793 1.95145 33.5698 1.81172 33.3391 1.71698C33.1083 1.62224 32.861 1.57439 32.6115 1.57622H24.4478L29.1315 9.39283L29.5638 9.44747L29.8374 9.80538V10.1387L30.1329 10.1988L30.4064 10.5704V10.8928L30.7129 10.9474L31.022 11.2835V12.0266C31.3901 12.3584 31.8049 12.6346 32.2531 12.8462C32.6663 13.0047 32.7128 13.6659 32.9617 14.0183C33.2736 14.532 33.7004 14.7369 33.6101 15.0237C33.4022 15.7915 32.6143 17.0865 31.8811 17.1466H28.9811V18.387H32.6143C32.8643 18.3859 33.1117 18.3355 33.3422 18.2387C33.5726 18.1419 33.7817 18.0006 33.9574 17.8229C34.133 17.6452 34.2718 17.4346 34.3657 17.2032C34.4597 16.9718 34.5069 16.7242 34.5048 16.4745V3.47232"
        fill="#BF0D3E" />
    <path
        d="M14.5304 17.1657H13.1269C13.1269 13.6631 14.3116 11.726 15.7315 11.3408C15.9257 11.3053 15.8327 10.3491 15.5865 10.0567H14.7657C14.6344 10.0567 14.711 9.81083 14.711 9.81083L15.3758 8.39285L15.2855 8.00489H12.8287L14.8478 6.59512C14.9408 2.8767 18.7601 2.58709 21.0609 4.1362C22.4288 5.04054 22.5328 6.83281 22.4288 8.07047C22.4124 8.1497 22.0732 8.09778 22.0732 8.09778C22.0732 8.09778 21.8406 9.46385 22.448 9.46385H25.1319C26.2262 9.42013 27.2822 10.1605 27.2822 10.1605L27.5394 9.22342L21.6601 1.5762H3.40371C2.89869 1.57326 2.41293 1.76965 2.0522 2.12263C1.87632 2.3004 1.73741 2.51119 1.6435 2.74283C1.54959 2.97448 1.50253 3.2224 1.50503 3.4723V16.4909C1.50189 16.74 1.54867 16.9873 1.64264 17.2182C1.73661 17.449 1.87586 17.6588 2.0522 17.8351C2.41071 18.1931 2.89673 18.3945 3.40371 18.3952H15.2554C14.9654 17.8979 14.6344 17.3324 14.5332 17.1657"
        fill="#041E42" />
    <path
        d="M4.13679 14.4034C4.1368 14.1468 4.21314 13.896 4.35612 13.6828C4.49911 13.4696 4.70229 13.3036 4.93989 13.2059C5.17748 13.1082 5.43878 13.0832 5.69063 13.1341C5.94248 13.185 6.17352 13.3094 6.35444 13.4916C6.53535 13.6738 6.65799 13.9056 6.70678 14.1575C6.75558 14.4094 6.72833 14.6701 6.6285 14.9066C6.52867 15.143 6.36075 15.3445 6.14606 15.4855C5.93137 15.6265 5.67958 15.7006 5.42264 15.6984C5.25275 15.6988 5.08448 15.6655 4.92759 15.6004C4.7707 15.5353 4.62832 15.4397 4.5087 15.3193C4.38908 15.1988 4.29461 15.0558 4.23076 14.8986C4.16692 14.7413 4.13498 14.573 4.13679 14.4034Z"
        fill="white" />
</svg>
